<svg xmlns="http://www.w3.org/2000/svg" viewBox="0 0 153.19 53"><defs><style>.cls-1{fill:#009fe8;}.cls-2{fill:#fff;}.cls-3{fill:#3e3a39;}</style></defs><title>alipay</title><g id="图层_2" data-name="图层 2"><g id="图层_1-2" data-name="图层 1"><g id="_编组_" data-name="&lt;编组&gt;"><g id="_编组_2" data-name="&lt;编组&gt;"><g id="_编组_3" data-name="&lt;编组&gt;"><path id="_路径_" data-name="&lt;路径&gt;" class="cls-1" d="M43.76,33.26c7.66,2.56,9.39,2.7,9.39,2.7V8.49A8.5,8.5,0,0,0,44.64,0H8.51A8.5,8.5,0,0,0,0,8.49v36A8.5,8.5,0,0,0,8.51,53H44.64a8.5,8.5,0,0,0,8.51-8.49v-.36S39.32,38.4,32.33,35c-4.68,5.75-10.73,9.24-17,9.24S4.68,40.65,4.17,36.84v0a8.59,8.59,0,0,1,2-7.93A10.73,10.73,0,0,1,12,25.62c4.52-1.11,11.72.69,18.47,2.91a36.79,36.79,0,0,0,3-7.3H12.66v-2.1H23.39V15.37h-13v-2.1h13V7.89a.89.89,0,0,1,.92-.9h5.24v6.28H42.39v2.1H29.55v3.76H40a42.72,42.72,0,0,1-4.44,11.18C38.77,31.46,41.63,32.55,43.76,33.26Z"/><path id="_路径_2" data-name="&lt;路径&gt;" class="cls-1" d="M53.15,44.15v.36A8.5,8.5,0,0,1,44.64,53H8.51A8.5,8.5,0,0,1,0,44.51v-36A8.5,8.5,0,0,1,8.51,0H44.64a8.5,8.5,0,0,1,8.51,8.49V44.15Z"/></g></g><path id="_复合路径_" data-name="&lt;复合路径&gt;" class="cls-2" d="M43.76,33.28c-2.13-.71-5-1.8-8.16-2.94A42.68,42.68,0,0,0,40,19.16H29.56V15.4H42.4V13.3H29.56V7H24.32a.89.89,0,0,0-.92.9V13.3h-13v2.1h13v3.76H12.69v2.1H33.47a36.88,36.88,0,0,1-3,7.29c-6.74-2.22-13.94-4-18.46-2.91A10.65,10.65,0,0,0,6.17,29C1.15,35,4.75,44.3,15.35,44.3c6.27,0,12.31-3.49,17-9.23,7,3.35,20.81,9.09,20.81,9.09V36S51.42,35.84,43.76,33.28Zm-29.4,7.48c-8.27,0-10.71-6.49-6.63-10a10.44,10.44,0,0,1,5.18-1.92c4.91-.48,9.46,1.38,14.83,4C24,37.69,19.17,40.76,14.36,40.76Z"/><g id="_编组_4" data-name="&lt;编组&gt;"><g id="_编组_5" data-name="&lt;编组&gt;"><path id="_路径_3" data-name="&lt;路径&gt;" class="cls-3" d="M131.56,8.33H147v3.06h5.52V7.76h0a1.47,1.47,0,0,0-1.43-1.5h-8.93V3.4h-5.78V6.25H126v5.13h5.52Z"/><polygon id="_路径_4" data-name="&lt;路径&gt;" class="cls-3" points="98.12 3.67 92.46 17.05 96.8 17.05 96.8 32.98 101.55 32.98 101.55 11.85 99.83 11.85 103.41 3.67 98.12 3.67"/><path id="_路径_5" data-name="&lt;路径&gt;" class="cls-3" d="M153.19,32.32l-1.75-5.93a.9.9,0,0,0-.86-.64H146l1.33,4.5h-5.4V21.53h10.61V19.45H141.91v-4.1h10.61V13.28H126v2.07h10.61v4.1H126v2.08h10.61v8.71H126v2.07Z"/><path id="_路径_6" data-name="&lt;路径&gt;" class="cls-3" d="M109.29,14h-4.11l3.2,10.08h4.86l-3-9.46A1.1,1.1,0,0,0,109.29,14Z"/><path id="_路径_7" data-name="&lt;路径&gt;" class="cls-3" d="M120.67,3.91h-4.93V9.06H103.57v2.07h12.16V29.67a.85.85,0,0,1-.8.78h-2.51V32.6h6.39a2,2,0,0,0,1.84-1.92V11.14h2V9.06h-2Z"/><path id="_路径_8" data-name="&lt;路径&gt;" class="cls-3" d="M83.67,15.41S81.05,25.63,63.43,30.9v2.53s22.29-4.2,26.45-20.13l-6.06.86Z"/><path id="_路径_9" data-name="&lt;路径&gt;" class="cls-3" d="M71.6,17.52S75.9,25.28,91.71,31v2.4s-17.9-3.56-25-15.92Z"/><polygon id="_路径_10" data-name="&lt;路径&gt;" class="cls-3" points="88.91 15.41 65.32 15.41 65.32 13.3 89.88 13.3 88.91 15.41"/><rect id="_路径_11" data-name="&lt;路径&gt;" class="cls-3" x="63.62" y="7.79" width="27.77" height="2.12"/><path id="_路径_12" data-name="&lt;路径&gt;" class="cls-3" d="M75.5,3.48h0a1,1,0,0,0-1,1h0V14.63H80.4V3.48Z"/></g><path id="_复合路径_2" data-name="&lt;复合路径&gt;" class="cls-3" d="M74.33,47.12l.82,2.47h2.3L72.92,37.31H71.16L66.65,49.6H69l.85-2.47ZM72.1,40.48l1.7,5.09H70.34Z"/><polygon id="_路径_13" data-name="&lt;路径&gt;" class="cls-3" points="84.69 37.31 84.69 49.6 92.13 49.6 92.13 47.93 86.9 47.93 86.9 37.31 84.69 37.31"/><rect id="_路径_14" data-name="&lt;路径&gt;" class="cls-3" x="100.23" y="37.31" width="2.21" height="12.28"/><path id="_复合路径_3" data-name="&lt;复合路径&gt;" class="cls-3" d="M116.17,37.31H111.4V49.6h2.21V44.88h2.56a3.79,3.79,0,1,0,0-7.56Zm-.12,5.87h-2.44V39h2.44a2,2,0,0,1,2,2.11A2,2,0,0,1,116.05,43.19Z"/><path id="_复合路径_4" data-name="&lt;复合路径&gt;" class="cls-3" d="M133.2,47.12,134,49.6h2.3l-4.52-12.28H130L125.53,49.6h2.3l.85-2.47ZM131,40.48l1.7,5.09h-3.46Z"/><polygon id="_路径_15" data-name="&lt;路径&gt;" class="cls-3" points="148.62 37.31 146.21 42.55 143.76 37.31 141.38 37.31 145.1 44.55 145.1 49.6 147.29 49.6 147.29 44.55 147.3 44.52 151.01 37.31 148.62 37.31"/></g></g></g></g></svg>