<svg xmlns="http://www.w3.org/2000/svg" viewBox="0 0 640 445"><defs><style>.cls-1{fill:#efefef;}.cls-2{fill:#666;}.cls-3{fill:#fff;}.cls-4{fill:none;stroke:#666;stroke-linecap:round;stroke-linejoin:round;stroke-width:0;}</style></defs><title>cartimg</title><g id="图层_2" data-name="图层 2"><g id="图层_1-2" data-name="图层 1"><rect class="cls-1" width="640" height="445"/><path class="cls-2" d="M362.38,119.49a5.1,5.1,0,0,0-4.34-.29L284.63,148l-8.73-10.6a5.1,5.1,0,0,0-5.8-1.51L249.34,144a5.1,5.1,0,0,0,3.72,9.49l17.32-6.79,47.37,57.54A13.93,13.93,0,1,0,344,211l10-3.93a13.95,13.95,0,1,0-3.81-9.46l-9.84,3.86a13.94,13.94,0,0,0-14.79-3.8l-3.4-4.13,48.09-18.86a5.1,5.1,0,0,0,3.15-5.67l-8.45-46A5.1,5.1,0,0,0,362.38,119.49Zm0,73.65a4.66,4.66,0,1,1-2.64,6A4.66,4.66,0,0,1,362.38,193.14ZM328.33,206.5a4.65,4.65,0,0,1,5.23,1.32,6,6,0,0,1,1.12,3,4.65,4.65,0,1,1-6.34-4.28ZM322,182.63l-6.68,2.62-8.52-10.35,10.55-4.14Zm-8.38-21.36L300,166.62l-8.52-10.35L309,149.41Zm28.55,13.45-10.68,4.19L326.83,167l10.68-4.19Zm-8.38-21.36-10.68,4.19-4.65-11.87,10.68-4.19Zm28.79,13.35L351.66,171,347,159.13l13.23-5.19Zm-4.22-23-15.08,5.91-4.65-11.87L356,131Z"/><path class="cls-3" d="M240.38,237.51c-2.8-2-7.59-7.83-6.69-8.31a.88.88,0,0,1-1.2-.05,23.73,23.73,0,0,1-3.2-3.24c.59-.28-2.16-4-3.63-6.48.85,2.3,2.44,5.24,6.31,10.67a18.63,18.63,0,0,1,1.83,1.82c.65.68,1.33,1.43,2,2.24s1.36,1.69,2.1,2.55l2.24,2.61,1.13,1.31,1.17,1.23c.78.81,1.55,1.58,2.3,2.3a21,21,0,0,0,4.33,3.16C246.22,244.35,244,241,240.38,237.51Z"/><path class="cls-3" d="M228.45,213.66l-.74-.57c.44.71.86,1.43,1.33,2.13l1.42,2.07,1.42,2.06c.49.68,1,1.33,1.51,2-.35-.38-.86-1-1.44-1.73s-1.13-1.63-1.68-2.46-1-1.64-1.39-2.27S228.38,213.79,228.45,213.66Z"/><path class="cls-2" d="M216.16,183.75c.86.73.31-4.35,1-4.36-1.48.44-1.5-7.83-1.91-12.16l-1.15-1.71c-.08.54-.13,1.18-.17,1.91s0,1.54,0,2.43.09,1.84.16,2.85.24,2.06.38,3.15a118.41,118.41,0,0,0,2.76,13.76C216.85,187.67,216.5,185.71,216.16,183.75Z"/><path class="cls-3" d="M215.56,175.49c-.35-.92-.75-1.85-1.07-2.78C215,175.09,215.87,180.6,215.56,175.49Z"/><path class="cls-3" d="M212.81,182.3c1.32,7.25-.42-4.44,1.27,2.78C213.37,182.69,212.83,179.86,212.81,182.3Z"/><path class="cls-2" d="M213.26,151.72a119.38,119.38,0,0,0,.34,15.36l.11-3.18.06-1.58.13-1.58c-.14-1.49-.33-3-.42-4.49Z"/><path class="cls-2" d="M215.65,151.08c-.19,2-.72,5-.95,2.19.27-1.34.49-2.55.64-3.7s.2-2.23.28-3.31.22-2.13.4-3.23a16.14,16.14,0,0,1,.87-3.43c-.24,1.59-.33,3.2-.46,4.8.52-.25.59-2.77,1-5.13a25.07,25.07,0,0,1,.6-3.16c.28-.81.6-1.29,1-1.13.25-3.27-.38-2.18-.92-1.29s-1,1.57-.31-2.67c-.42,2-.9,3.79-1.27,5.55l-1.08,5.06-.92,4.85-.75,4.92c.54-1.92.55-2.73,1.14-5.43a115.25,115.25,0,0,0-.33,16.83,16.86,16.86,0,0,0,.54-5.27A34.14,34.14,0,0,1,215.65,151.08Z"/><path class="cls-2" d="M220.63,127.63c1.59-4.86,4.65-12.09,4.25-13.81a13.85,13.85,0,0,0-2.4,5,33.29,33.29,0,0,0-.43,3.38c-.36.7-1,2.25-1.53,3.35s-.89,1.8-.89.7C220.11,125.62,219.51,129.7,220.63,127.63Z"/><path class="cls-2" d="M228.63,109.3c.27-1.26.52-2.55.87-3.79-.37.72-.72,1.44-1,2.19l-.81-.13a9.93,9.93,0,0,1-.15,2.11,14.6,14.6,0,0,1-.59,2.15,21.18,21.18,0,0,1-1.23,3,9.6,9.6,0,0,0,1.51-2.73A13.81,13.81,0,0,1,228.63,109.3Z"/><path class="cls-2" d="M224.53,105.63a35.63,35.63,0,0,0,2.61-4l1.11-2.09,1.36-2.45c-1.6,2.42-3.38,5.45-4.81,8.08a31.08,31.08,0,0,0-2.58,5.81l0-.49-1,3a57.19,57.19,0,0,0-1.5,5.92,45.55,45.55,0,0,1,1.65-4.7l2.16-4.65C224.92,107.36,225.79,105.34,224.53,105.63Z"/><path class="cls-2" d="M221.09,112.2c.43-1.35.79-2.76,1.3-4.09C221.88,109.44,221.52,110.85,221.09,112.2Z"/><path class="cls-2" d="M236.85,95.83c-1.68,2-3.19,4.13-4.74,6.24l1.34-1.42,1.64-2.45Z"/><path class="cls-2" d="M228.84,101.86c1.75-2.71,1.16-2.05.43-1.41-.35.33-.69.68-.76.62s.13-.55,1-1.82a17.83,17.83,0,0,0-2,3.36c-1.26,2.18-2.39,4.73-2.28,5.07.48-.64,1-2.12,1.72-3.37S228.28,101.91,228.84,101.86Z"/><path class="cls-2" d="M240.05,91.86c1.11-1.86,2.36-3.63,3.61-5.41C242.41,88.23,241.16,90,240.05,91.86Z"/><path class="cls-2" d="M251.44,80.58,252,79.3C254.48,77.42,257.25,75,260,73a37.18,37.18,0,0,1,4.11-2.68c.66-.38,1.3-.72,1.91-1a14.62,14.62,0,0,1,1.79-.64c-1.28,0,1.44-2.64-3.35.11-.5.8-2.14,1.89-1.62,2.08-2,1.18-1.92.51-3.3,1.28-2.94,2.82-8,6.55-10,9.2A16.11,16.11,0,0,1,252,79.3a20.57,20.57,0,0,1-2.94,3A21.34,21.34,0,0,1,246.84,84c-1.27.89-2.19,1.5-2.56,3.2a13.31,13.31,0,0,1,3.24-3.26l2-1.68A17.3,17.3,0,0,0,251.44,80.58Z"/><path class="cls-2" d="M248.37,78.06c-.72.62-1.46,1.21-2.15,1.85l-2.07,1.94a11.62,11.62,0,0,1,2.75-3.27c1.21-1.11,2.34-2.13,2.45-2.71-.55-.11-4.92,3.6-3.59,2,.7,1.75-5.46,5.62-1.95,4.91-1.27,1.32-2,2.13-2.49,2.56a3.69,3.69,0,0,1-1.14.7c-.62.27-1.36.52-3.76,3.59l-.63,2.29c1.26-1.74,2.31-3.09,3.25-4.24s1.87-2,2.75-2.92,1.79-1.78,2.84-2.83S246.83,79.58,248.37,78.06Z"/><path class="cls-2" d="M266,65.17l2.65-.9-1.7,0q1-.62,2-1.17t2-1c1.3-.59,2.53-1.15,3.76-1.58a55.84,55.84,0,0,1,6.88-1.92c2.15-.46,4.13-.88,6-1.24.95-.2,1.86-.42,2.76-.69s1.79-.49,2.66-.83c1.07-.46,2.15-.9,3.24-1.26s2.2-.63,3.3-.9l1.66-.39c.56-.11,1.12-.19,1.67-.28l3.35-.47c4.5-.44,9-.62,13.72-.85,4.58-.91-4.45-.29-5-.57.6-.76,1.75-.71,3-.54a5.67,5.67,0,0,0,3.65-.26c.3-.51-2.17-.76-5.24-.77l-4.78.11c-1.56.1-3,.18-4.05.17a11.08,11.08,0,0,0-3.17.91,6.59,6.59,0,0,0-1.23.94,8.69,8.69,0,0,0-2.82-.11,10.2,10.2,0,0,1-2.84,0c-1.8.61-3.38,1.15-4.86,1.58s-2.9.73-4.27,1.15-2.76.78-4.21,1.31a40.44,40.44,0,0,0-4.56,2.17c-2.46.16,5.11-2.26,2.77-1.43-1.25.53-2.51,1-3.74,1.59L279,58a40.87,40.87,0,0,1-4.23,2.37c-1.6.8-3.26,1.71-4.93,2.5l-8,4a8.78,8.78,0,0,1,2.83-1.14c.49,0,.29.31-1,1.32l-2.74.74c-1.76,1.65-3.34,3.49-5,5.23a23.64,23.64,0,0,1,3.12-2.65c1.08-.81,2.26-1.42,3.25-2C264.37,67,265.94,66.15,266,65.17Z"/><path class="cls-2" d="M258.45,68.11c-3.58,2.37-3.17,2.49-2.84,2.67.17.09.31.2-.07.62a9.68,9.68,0,0,1-1,.89c-.49.42-1.17,1-2.1,1.66l1.88-1.58c.63-.53,1.29-1,1.94-1.5,1.31-1,2.57-2,3.94-2.92Z"/><path class="cls-3" d="M295.92,53l4.17-.37c-1.23-.36-3.35.26-4.6.71S293.83,54.16,295.92,53Z"/><path class="cls-3" d="M310.94,50.14l-2,1.46c1.25-.38,2.5-.83,3.77-1.15C312.11,50.32,311.53,50.22,310.94,50.14Z"/><path class="cls-2" d="M324.87,50.76c1.54-.28,1.4-.56.41-.75a17.71,17.71,0,0,0-4.61-.14c.81,0,1.52,0,2.12,0a10.81,10.81,0,0,1,1.46.25C325,50.34,325.24,50.57,324.87,50.76Z"/><path class="cls-3" d="M346.94,55.43c-3.33-.69-1.87-.31-.2.24s3.49,1.35,1,1.3c.49-.17,1.59-.17,1.93-.35.17-.09.14-.21-.25-.41a7.64,7.64,0,0,0-.89-.36C348.13,55.73,347.61,55.59,346.94,55.43Z"/><path class="cls-2" d="M366.73,64.73c-2.3-.71-3.12-1.28-3.31-1.67A18.15,18.15,0,0,1,366.73,64.73Z"/><path class="cls-2" d="M284.87,59.62c-.73.3-1.51.63-2.24.88Z"/><path class="cls-2" d="M286.34,59.06c-.5.15-1,.36-1.47.55A14.32,14.32,0,0,1,286.34,59.06Z"/><path class="cls-2" d="M336.11,55.36h0c-.17-.06-.34-.1-.51-.17Z"/><path class="cls-2" d="M220.88,195.07c.5,1.24.86,2.21,1.13,3l-1.13-3A.16.16,0,0,1,220.88,195.07Z"/><path class="cls-2" d="M220.59,199.13a13.08,13.08,0,0,1-1.53-6.2,26.17,26.17,0,0,0-.4-3.53,37.79,37.79,0,0,0-1.24-5.33c.53,1.78,1,3.62,1.58,5.46s1.18,3.71,1.89,5.57C221.53,200.46,218.93,191.42,220.59,199.13Z"/><path class="cls-2" d="M219,122.67l.08-.32C219.21,121.8,219.15,122.09,219,122.67Z"/><path class="cls-3" d="M420.08,213.7l-.26-.2c.9-1.43,1.87-2.83,2.71-4.3C421.78,210.73,420.9,212.2,420.08,213.7Z"/><path class="cls-3" d="M419.24,214c-1.62,2.36-3.23,4.72-5,6.95a108.73,108.73,0,0,0,17.35-46.92c.1.56.16,1.12.22,1.68.09-.08,0,.51-.09,1.6s-.33,2.69-.75,4.58l-.63,3.08-.87,3.41-.47,1.8-.57,1.82c-.4,1.22-.75,2.48-1.19,3.7a122.1,122.1,0,0,1-5.47,13.06C420.07,212.19,418.94,214.29,419.24,214Z"/><path class="cls-3" d="M418.44,216.4a13.52,13.52,0,0,1-1.37,3.24,30.75,30.75,0,0,1-1.92,2.66l-1,1.34c-.37.44-.75.91-1.12,1.4a30.36,30.36,0,0,0-2.24,3.47c1-1.8,1.73-3.42,2.58-4.9a27.1,27.1,0,0,1,2.87-4.51C417,218.21,417.69,217.3,418.44,216.4Z"/><path class="cls-4" d="M410.67,232c-.5.5-1,1.06-1.42,1.63s-.93,1.12-1.36,1.66a19.65,19.65,0,0,1-2.23,2.57c0-.7.8-1.73,1.87-2.78.53-.53,1.12-1.07,1.69-1.58S410.26,232.4,410.67,232Z"/><path class="cls-2" d="M408.56,240.28c-.3.34-.62.65-.94,1,.33-.42.62-.81.83-1.11Z"/><path class="cls-2" d="M408.45,240.13l-.28-.37C408.92,239.19,408.86,239.48,408.45,240.13Z"/><path class="cls-2" d="M407.62,241.24c-.73,1-1.63,2.07-2,2.73l.93-.84c-1.08,1.33-3.07,3.63-3.85,4,2.54-2.22,2.36-2.48,2-3l-4.06,3.6C400.33,245.83,404.19,244.69,407.62,241.24Z"/><path class="cls-4" d="M395,252.94c1.34-1.32,2.54-2.8,3.8-4.19.86-.17.34.56-.62,1.5A28.28,28.28,0,0,1,395,252.94Z"/><path class="cls-2" d="M387.77,256.88c.47-.47,1.83-1.43,2.71-2.1s1.25-1.05-.19-.28a21.34,21.34,0,0,1,2.36-1.9C389.84,254.92,393.26,253.83,387.77,256.88Z"/><path class="cls-2" d="M392.65,252.61c.33-.28.7-.58,1.22-1C393.47,252,393.06,252.31,392.65,252.61Z"/><path class="cls-4" d="M425.06,206.62c-.39.53-.48.47-.45.17Z"/><path class="cls-2" d="M377.77,261.68l-1.82,1c.52-.28,1-.55,1.45-.82Z"/><path class="cls-2" d="M421.48,118l1.72,4.71,1.64,4.95c.56,1.72,1.06,3.55,1.71,5.5l.87,3.08c.3,1.07.67,2.17.93,3.35,1-.44,1,3.76,2.26,4.14a113.26,113.26,0,0,1,1.65,14.21c.11,1.23.09,2.46.12,3.68s.08,2.4,0,3.54c-.08,2.27-.06,4.34-.21,6-.21,3.26-.23,4.79.11,2.77l-.24-2.49L433,174c-.89,4.9-3.1,11.28-3.41,14.64a5.23,5.23,0,0,1,.28-1.51l.46-1.93.51-2.57a111.34,111.34,0,0,0,1.94-14.11,107.88,107.88,0,0,0,.08-14.11,40.46,40.46,0,0,0-.62-5.7c.12-.49.31,0,.56,1.33a50.13,50.13,0,0,1,.75,6,97.45,97.45,0,0,1-.56,20.15,112.88,112.88,0,0,1-4.74,20.7l-1.33,3.88-1.17,3c-.63,1.73-1.08,2.78-1.1,3l-.93.33c-.65,1.81-1.21,3.49-1.83,5s-1.1,3-1.73,4.42-1.17,2.79-1.84,4.15-1.41,2.72-2.22,4.16l-1.56.71c3-3.76,3.22-5.18,5.37-9.54a64,64,0,0,1-4.85,7.48c-.65.91-1.35,1.7-2,2.64s-1.46,2-2.46,3.24c.49.25,1.49-.73,1.74-1s-.13.35-2.48,3.69c-.92.76-.75-.1-.91-.43s-.59-.09-2.92,2.64c-6.16,6.12-3.82,6-9.5,11.21,1.44-1,2.75-2.09,4.14-3.14-2,2-5.92,5.63-8.48,6.78a39.3,39.3,0,0,0,5.09-4.6c1.6-1.83,2.75-3.47,2.29-3.79-2.14,2.43-7.87,6.64-10.14,8.26l.9-1.63a13.07,13.07,0,0,0-3.33,2.24,17,17,0,0,1-3.89,2.46c-1.41,1.14-.81,1.08,0,.92s1.7-.52.94.18a41,41,0,0,0-4,2l-1.43.81c-.49.25-1,.51-1.4.76a16.1,16.1,0,0,0-2.14,1.39c1.12.29,3-.75,5-2.12,1-.69,2.12-1.42,3.26-2.05a14.64,14.64,0,0,1,3.43-1.54l-2.9,1.76-3,1.62c-1.42,1.79.9.38,3.44-1.19s5.09-3.57,4.54-2.43a15.55,15.55,0,0,1-6.56,4.35c-2.41,1.11-4.81,2-6.44,4.09a63.46,63.46,0,0,0,7-3.38c2.48-1.28,4.39-2.45,4-1.83a20.48,20.48,0,0,0-4.28,2.75c-.69.54-1.38,1.16-2.2,1.74s-1.75,1.2-2.83,1.84c-1.88.77-3.85,1.35-5.77,2-2.1,1.55-.24.68,1.72.12-4.21,1.56-9.74,3.8-15.9,5.72a72.72,72.72,0,0,1-19.26,3.53c-7.36,1-.85.81-4.18,1.7a40.34,40.34,0,0,0-7.39-.05c-1.35.08-2.7.1-4,.16a30.09,30.09,0,0,1-3.51,0c-1.22-.14-3.52.68-2.36,1.14,3.53.05,7-.1,10.54-.38-.5.52,1.07,1.34,4.87,1-.69-.41-.09-.63,1.19-.75.64-.06,1.45-.1,2.37-.14s1.93-.05,3-.15c4.16-.23,8.72-1,8.88-2.05l0,1c2.2-.53,4.36-1.24,6.53-1.86s4.28-1.45,6.38-2.26h-.42a43,43,0,0,0,6.16-2.39c1.71-.81,3.68-1.61,5.57-2.55,1-.46,1.9-.91,2.83-1.34l1.38-.61,1.3-.62a71,71,0,0,1-6.37,3.32c-2.24,1-3.38,1.67.24.75-4.89,2.74-14.53,5.52-24.42,7.77l2.09.27a72.57,72.57,0,0,1-17.8,2.63,154.47,154.47,0,0,1-18.83-.76c1.2-.18,2.39-.31,3.58-.56-2.06-.29-4.38-.87-6.68-1.24a33.22,33.22,0,0,0-6.53-.82c5,.84,2.34.86,1.36,1.12-1.7-.19-3.58-.54-5.6-.93s-4.12-1-6.3-1.64-4.42-1.33-6.63-2.18l-3.35-1.18-3.3-1.27s.5,0,.18-.28c-.77-.28-1.54-.54-2.31-.83l-2.27-.92c-1.52-.61-3-1.22-4.52-1.94-4.06-2.27-5.1-3.66-7.24-5.58-1.49-.82-5-3.17-3.94-1.85a20.18,20.18,0,0,0,2,1.38c-4.68-1.93-2.73-2.13-8.07-5.33,4.33,2.2-.49-1.81.52-2.16-5.77-4.23-1.46.73-2.38.47l-2.18-2c-.62-.64-1.17-1.23-1.68-1.77-1-1.1-1.85-2-2.64-3-1.58-1.93-3.22-3.78-6.07-7.1-.36,0,.62,1.19,1.71,2.52s2.37,2.69,2.41,3.17a44.8,44.8,0,0,0-4.16-4.2c1.11,1.43,2.23,2.86,3.44,4.21a200.86,200.86,0,0,1-17-22.43l.19.82-1.62-2.72c-.54-.91-1-1.86-1.5-2.78l1.91,1.53a38.66,38.66,0,0,1-2.25-4.46,10.18,10.18,0,0,0-1.9-3.32l.47,1.16c-.69-1.24-1.4-2.47-2.07-3.72.88,1.21,1.81,2.38,2.7,3.55a33.17,33.17,0,0,0-1.92-4c-.72-1.42-1.55-2.92-2.44-4.52s-1.66-3.38-2.49-5.24a52.86,52.86,0,0,1-2-6c.18-.54.56.1,1.07,1.36.25.63.54,1.42.84,2.29s.63,1.84,1,2.8l1.17,2.9.58,1.37L217,203c.82,1.53,1.54,2.6,2,2.69-.41-1.38-1.05-3.21-1.64-4.91a19.55,19.55,0,0,0-1.64-4c-.31.47.37,2.43,1.05,4.4a46.33,46.33,0,0,1-2.34-5.83l-.94-3.24-.45-1.63-.37-1.63-1.4-6a27.4,27.4,0,0,0-1.45-4.53c.07,1.94.33,3.86.49,5.8a39.06,39.06,0,0,1-.7-4.57c-.07-1.4-.07-2.66-.07-3.77,0-2.22.07-3.87-.52-4.95l1.06,2.55c.36.84.78,1.67,1.16,2.5-.21-.82-.44-1.67-.6-2.56s-.3-1.79-.43-2.72-.28-1.86-.37-2.81l-.22-2.85c-.06-1-.16-1.9-.19-2.84l-.09-2.77-.11-2.66c0-.86,0-1.69-.05-2.49-.24-.05-.39.49-.48,1.34,0,.42-.09.92-.1,1.45s0,1.1,0,1.67c.08,2.27.26,4.5.19,4.28-.26-1-.46-2-.69-3l.22-3,.26-1.82c.14-.92.24-1.33.35-1.81s.2-1,.38-2.19l1-5.91-.62-.2a17.71,17.71,0,0,0,.91-3.85l.69-4.39c.38-2.67.85-4.28,1.16-2.13-.38,1-.71,2.06-1.07,3.1l.81-.12A118.3,118.3,0,0,1,215.3,124c.09,1.45,2.19-4.87,2.31-2.93.33-1.68.8-3.31,1.23-5,1-.84.33,1.42-.36,4s-1.41,5.51-1,5.91c.5,0,1.22-2.25,1.55-3.35-1.23,5.88-3.85,8.17-5.22,14.05l.08,3.06-.91-.34a16.61,16.61,0,0,0,.28,5.62,18.63,18.63,0,0,0-1,4.45,32.3,32.3,0,0,0-.26,4.91c0,.86,0,1.75,0,2.66l.12,2.82c0,1,0,2,.09,3s.09,2.11.09,3.22c-.42-3.68-.6-2.51-.72-.54s0,4.71-.23,4.09c.09,1,.3,2.41.6,4l1.14,5c.43,1.68.87,3.34,1.14,4.81a15.23,15.23,0,0,1,.41,3.65c.12,2.44-1.86-4.73-.72.88.25.9.49,1.72.75,2.4a13,13,0,0,0,.74,1.58c.42.71.66.68.54-.53a134.49,134.49,0,0,0,10.4,24.77l-1.57-1.59a31.79,31.79,0,0,0,4.09,6.94,40.87,40.87,0,0,0,4.18,4.44c.25.77.67,1-.16.54a22.89,22.89,0,0,0,2.58,3.87,34.83,34.83,0,0,0,3,2.88c1.06,1,2.31,2,3.75,3.29s3.14,2.88,5.17,5c.08-.56-.79-1.77-2-3.12a56.68,56.68,0,0,0-4.19-4.16l1.41,0a154.91,154.91,0,0,1-17.12-23.68l2.42,2.93a16.62,16.62,0,0,0-1.44-3.55,9,9,0,0,0-1.21-1.75,7.8,7.8,0,0,1-1.15-1.7,10.06,10.06,0,0,1-.54-1.39A20.8,20.8,0,0,1,223,203c-2.18-4.34.84,3.45-.95.23-.52-1.65,0-1.61.34-1.83.18-.11.33-.28.3-.76a13.22,13.22,0,0,0-.69-2.6,116.84,116.84,0,0,0,16.47,29,115.23,115.23,0,0,0,11.61,12.69,109.43,109.43,0,0,0,13.28,10.49c.47.07-.49-.61-1.39-1.34a46.53,46.53,0,0,1,4.46,2.62c2.08,1.22,4.63,2.85,7.66,4.47a112,112,0,0,0,21.74,9.2,96,96,0,0,0,22.29,4c1.55.09,3,.14,4.26.08s2.4-.08,3.35-.15c1.89-.21,3.06-.51,3.29-.85,1.13.35-2.45.93,2.26.69.42-.23,1.59-.59.47-.88,6,.36,12.93-.72,19.92-2.63A176.65,176.65,0,0,0,372.35,258c-.25-.14.33-.57.93-1.08s1.24-1,1.19-1.16a19.73,19.73,0,0,0,3.91-1.63c1.35-.76,2.76-1.62,4.14-2.51s2.67-1.9,3.91-2.74a39.14,39.14,0,0,1,3.36-2.25l-1.5.47a106.53,106.53,0,0,0,11-9.29c.08-.22-.22,0-.66.4l-1.48,1.24a12,12,0,0,1,2.37-2.05,1.65,1.65,0,0,1,1.18-.25l1.85-2.67,1.71-2.76a60.65,60.65,0,0,0,5-5.22,74.27,74.27,0,0,0,4.53-6.1c1.48-2.12,2.75-4.43,4.08-6.75s2.45-4.78,3.48-7.3c4.37-10,7-20.87,9.1-31.41A36.37,36.37,0,0,1,430,170c0-.88-.07-1.84-.06-2.9s.06-2.24,0-3.59c-.08.88-.26,1.75-.39,2.62-.19-2.73-.17-2.81,0-2.78s.37.16.21-2.16c-.54-3.13-1.33-1-.89,3.28-.48,2.63-.64,1-.81-.9a129.47,129.47,0,0,0-1.56-24.09A157.08,157.08,0,0,0,421.48,118Z"/><path class="cls-2" d="M409.53,103.31c-.33-.86.74.56,1.69,1.7s1.66,2.05.92-.08c-3-6.42-8.71-13.88-15.64-20.55a127,127,0,0,0-11.09-9.24c-3.83-2.79-7.63-5.4-11.22-7.64-.92-.67-1.66-1.24-2.34-1.69S370.55,65,370,64.63c-1.19-.71-2.34-1.39-4.17-2.32a.38.38,0,0,0-.09.5c-1.07-.44-2.28-1-3.63-1.47l-4.2-1.48c-1.45-.44-2.89-.9-4.24-1.36s-2.64-.8-3.73-1.2c-1.32-.15-2.41.29.05.76-1.72-.32-3.32-.62-4.79-1-.74-.19-1.44-.41-2.13-.61l-2-.55a21.67,21.67,0,0,0-6.79-1.27c3.34.83-3.43.3.58,1.1-7.27-.52-6.52-2.87-12.46-3.2-.35.21-.71.41.49.44a35.06,35.06,0,0,0-5.84-.13c-2.16.2-4.46.36-6.55.74l-5.46.8c-1.45.17-2.45.13-2.71-.26-.82.38-1.61.85-2.4,1.28-2.89.15-2.33-.52-7,.63-2.91,1.15.31.58-.71,1.16-.74-.19-3,.53-5.66,1.31-1.32.36-2.65.91-3.95,1.28s-2.5.7-3.46.91c-.16-.23.18-.44.83-.67s1.65-.4,2.74-.64,2.28-.55,3.43-.87a10.45,10.45,0,0,0,3-1.26c0-.25-.49-.12-1.23.11a77.19,77.19,0,0,1,13.7-3.26,99.07,99.07,0,0,1,12.77-.87c8.23,0,15.87.68,23.84,1.28a13.22,13.22,0,0,0,4.53.93,12.08,12.08,0,0,0,3.28-.3c-.69-.22-1.71-.58-2.87-.87s-2.45-.56-3.67-.77c-2.44-.4-4.59-.36-4.75.37-1.62-.55-3.28-.92-4.94-1.36-1.92,0-1.82-1.58-2.66-1.84,3.58.3,7.84-.89,2.93-1.76,4.85.19,4,1,3,1.69-.48.37-1,.72-.86,1s.91.43,3,.58l1.34-1c-.83.22.57.61,2.48,1a42.75,42.75,0,0,0,5.73,1c-.35-.15-.71-.3-1.06-.44A130.75,130.75,0,0,1,361,57.58a117.7,117.7,0,0,1,17.8,8.1,111,111,0,0,1,30.3,24.88,10.84,10.84,0,0,0,1,2.43,22.4,22.4,0,0,0,1.53,2.53c.58.86,1.27,1.68,1.91,2.57s1.33,1.78,2,2.66,1.36,1.78,2,2.69,1.2,1.8,1.72,2.67a14.12,14.12,0,0,1,1.84,5c1.6,2.24-.93-3.88,1.78.61,1.27,2.31.72,2.82.48,2.8l1.22,2.07c-.83,1.42-2.26,1.26-4.55-.88a24.51,24.51,0,0,1-1.86-2c-.7-.78-1.5-1.68-2.34-2.72l-1.32-1.66L413,107.52l-1.63-2Z"/><path class="cls-3" d="M249.23,229.41c-2.55-1.77-6.86-7-6-7.45-.42.24-.64.36-1.15,0a20,20,0,0,1-2.93-2.86c.59-.29-1.89-3.57-3.22-5.82.72,2.08,2.14,4.72,5.59,9.6a15.08,15.08,0,0,1,1.67,1.61c.59.6,1.2,1.27,1.81,2s1.22,1.51,1.88,2.28l2,2.35,1,1.18,1,1.11c.7.73,1.39,1.42,2.06,2.06a17.08,17.08,0,0,0,3.92,2.79C254.41,235.57,252.49,232.47,249.23,229.41Z"/><path class="cls-3" d="M238.95,207.86l-.69-.49c.4.63.78,1.27,1.2,1.89l1.28,1.84,1.27,1.83c.44.6.91,1.18,1.36,1.77-.32-.33-.78-.88-1.3-1.53s-1-1.44-1.51-2.19-.94-1.46-1.24-2S238.88,208,238.95,207.86Z"/><path class="cls-2" d="M227.9,181.25c.84.64.39-3.9,1-3.92-1.47.42-1.37-7-1.75-10.82L226,165a17.77,17.77,0,0,0-.16,3.87c0,.79.08,1.64.13,2.54s.21,1.84.33,2.81a106.17,106.17,0,0,0,2.46,12.27C228.49,184.75,228.19,183,227.9,181.25Z"/><path class="cls-3" d="M227.45,173.87c-.34-.82-.71-1.64-1-2.47C226.87,173.53,227.68,178.43,227.45,173.87Z"/><path class="cls-3" d="M224.59,180c1.18,6.49-.32-4,1.21,2.47C225.14,180.36,224.65,177.83,224.59,180Z"/><path class="cls-2" d="M225.22,152.68a106.46,106.46,0,0,0,.36,13.71l.13-2.83.06-1.41.13-1.41c-.14-1.33-.33-2.67-.43-4Z"/><path class="cls-2" d="M227.61,152.14c-.17,1.74-.69,4.49-.93,1.95.26-1.2.47-2.27.61-3.29s.18-2,.24-2.95.19-1.9.34-2.87a13.33,13.33,0,0,1,.8-3c-.2,1.42-.27,2.85-.37,4.28.52-.22.55-2.46.88-4.56a19.9,19.9,0,0,1,.53-2.81c.26-.72.56-1.14.93-1,.17-2.92-.43-2-.95-1.18s-.94,1.39-.38-2.4c-1.59,7-2.8,12.16-3.62,18.17.52-1.71.52-2.43,1.08-4.83a102.22,102.22,0,0,0-.23,15,13.35,13.35,0,0,0,.54-4.69A27.74,27.74,0,0,1,227.61,152.14Z"/><path class="cls-2" d="M232.06,131.28c1.43-4.32,4.15-10.75,3.67-12.34a11.23,11.23,0,0,0-2.15,4.45,28.89,28.89,0,0,0-.29,3c-.33.62-.9,2-1.39,3s-.82,1.59-.86.6C231.49,129.45,231,133.1,232.06,131.28Z"/><path class="cls-2" d="M239.2,115c.2-1.14.39-2.31.67-3.43-.32.64-.63,1.29-.9,2l-.8-.15a8.46,8.46,0,0,1,0,1.92,11.64,11.64,0,0,1-.48,1.94,16.8,16.8,0,0,1-1.08,2.68,7.62,7.62,0,0,0,1.36-2.42A11.08,11.08,0,0,1,239.2,115Z"/><path class="cls-2" d="M235,111.43a27.36,27.36,0,0,0,2.36-3.54c.62-1.19,1.26-2.45,2.18-4.08-1.43,2.17-3,4.88-4.29,7.24a25.69,25.69,0,0,0-2.27,5.22v-.45s-.4,1.16-.89,2.74a47.85,47.85,0,0,0-1.25,5.33,36.47,36.47,0,0,1,1.45-4.21l1.92-4.16C235.49,113,236.25,111.22,235,111.43Z"/><path class="cls-2" d="M231.95,117.3c.37-1.22.67-2.49,1.1-3.69C232.61,114.82,232.31,116.08,231.95,117.3Z"/><path class="cls-2" d="M246.49,103c-1.51,1.77-2.86,3.66-4.25,5.54l1.22-1.24,1.46-2.18Z"/><path class="cls-2" d="M239.06,108.15c1.57-2.42,1-1.84.35-1.28-.32.29-.64.6-.7.53s.1-.5.88-1.63a14.74,14.74,0,0,0-1.82,3c-1.12,2-2.11,4.24-2,4.55.44-.57.9-1.9,1.53-3S238.52,108.17,239.06,108.15Z"/><path class="cls-2" d="M249.35,99.44c1-1.68,2.05-3.27,3.14-4.88C251.4,96.18,250.31,97.77,249.35,99.44Z"/><path class="cls-2" d="M259.52,89.46l.44-1.19c2.23-1.65,4.69-3.78,7.18-5.57a31.17,31.17,0,0,1,3.66-2.37c.59-.33,1.16-.63,1.71-.88a11.8,11.8,0,0,1,1.61-.53c-1.18-.1,1.2-2.49-3.08-.06-.42.75-1.88,1.71-1.39,1.93-1.81,1-1.75.39-3,1.06-2.58,2.57-7.11,5.84-8.82,8.25A12.77,12.77,0,0,1,260,88.27a16.31,16.31,0,0,1-2.6,2.68,17,17,0,0,1-2,1.49c-1.16.77-2,1.3-2.25,2.87A10.78,10.78,0,0,1,256,92.42L257.85,91A13.69,13.69,0,0,0,259.52,89.46Z"/><path class="cls-2" d="M256.49,86.9c-.64.55-1.31,1.08-1.93,1.64l-1.86,1.72a9.46,9.46,0,0,1,2.43-2.95c1.08-1,2.09-1.9,2.17-2.45-.52-.14-4.45,3.16-3.28,1.67.76,1.7-4.87,5-1.59,4.55-2.19,2.43-2.67,2.68-3.28,2.88s-1.26.42-3.41,3.17l-.48,2.11c1.12-1.56,2.05-2.77,2.89-3.8s1.68-1.79,2.46-2.6,1.61-1.58,2.54-2.52Z"/><path class="cls-2" d="M272.22,75.4l2.4-.75-1.56,0q.9-.56,1.77-1t1.77-.85c1.16-.52,2.27-1,3.37-1.37a47.09,47.09,0,0,1,6.19-1.61c1.93-.37,3.71-.7,5.42-1a34.08,34.08,0,0,0,4.84-1.32c1-.43,1.9-.83,2.87-1.16s2-.57,2.94-.81a47.52,47.52,0,0,1,6-1c4-.37,8-.48,12.22-.7,4.08-.89-4-.3-4.42-.6.53-.75,1.56-.69,2.67-.52a4.54,4.54,0,0,0,3.26-.24c.26-.51-1.94-.76-4.68-.8l-4.27.06c-1.39.08-2.68.14-3.62.11-3.18.64-3.06,1-3.91,1.76a7.18,7.18,0,0,0-2.53-.17,8.33,8.33,0,0,1-2.55-.07c-1.6.57-3,1-4.34,1.43s-2.59.64-3.82,1-2.48.68-3.76,1.15a32.29,32.29,0,0,0-4.06,2c-2.23.07,4.56-2,2.47-1.3-1.11.47-2.25.91-3.34,1.42l.4,0a32.67,32.67,0,0,1-3.77,2.14c-1.42.71-2.91,1.53-4.4,2.22-2.93,1.48-5.73,2.82-7.18,3.52a7.25,7.25,0,0,1,2.56-1c.45,0,.28.32-.87,1.23l-2.5.58c-1.54,1.51-2.92,3.2-4.34,4.78a18.85,18.85,0,0,1,2.77-2.39c1-.72,2-1.26,2.91-1.81C270.85,77.15,272.24,76.36,272.22,75.4Z"/><path class="cls-2" d="M265.41,77.89c-3.21,2.09-2.83,2.23-2.51,2.43.16.1.3.21,0,.59a7.62,7.62,0,0,1-.9.8c-.44.38-1,.86-1.88,1.48,1.11-.95,2.23-1.89,3.41-2.76s2.3-1.81,3.52-2.61Z"/><path class="cls-3" d="M299,64.63l3.73-.26c-1.11-.39-3,.17-4.12.6S297.13,65.69,299,64.63Z"/><path class="cls-3" d="M312.39,62l-1.78,1.43c1.11-.36,2.22-.79,3.35-1.1C313.44,62.25,312.91,62.14,312.39,62Z"/><path class="cls-2" d="M324.82,62.76c1.37-.28,1.25-.56.37-.75a14.53,14.53,0,0,0-4.11-.15,18,18,0,0,1,1.89,0,8.68,8.68,0,0,1,1.3.24C324.93,62.34,325.14,62.57,324.82,62.76Z"/><path class="cls-3" d="M344.42,67.16c-3-.61-1.66-.27-.19.25s3.09,1.25.88,1.27c.44-.18,1.42-.21,1.73-.39.15-.09.13-.21-.21-.4A9.11,9.11,0,0,0,344.42,67.16Z"/><path class="cls-2" d="M361.88,75.71c-2.05-.61-2.76-1.13-2.92-1.51A14.28,14.28,0,0,1,361.88,75.71Z"/><path class="cls-2" d="M289.23,70.79c-.65.27-1.34.56-2,.78Z"/><path class="cls-2" d="M290.54,70.3c-.44.14-.88.32-1.31.49A12.2,12.2,0,0,1,290.54,70.3Z"/><path class="cls-2" d="M334.78,67.29h0c-.15-.06-.3-.1-.45-.16Z"/><path class="cls-2" d="M232.27,191.29c.45,1.1.78,2,1,2.66l-1-2.63A.13.13,0,0,1,232.27,191.29Z"/><path class="cls-2" d="M231.84,195a10.6,10.6,0,0,1-1.31-5.55,21.06,21.06,0,0,0-.29-3.16,29.55,29.55,0,0,0-1.1-4.75c.48,1.58.91,3.22,1.43,4.86s1.06,3.3,1.7,5C232.73,196.13,230.46,188.06,231.84,195Z"/><path class="cls-2" d="M230.26,126.74l.07-.29C230.46,126,230.41,126.22,230.26,126.74Z"/><path class="cls-3" d="M409.59,207.89l-.26-.2c.81-1.27,1.69-2.51,2.45-3.81C411.1,205.25,410.31,206.55,409.59,207.89Z"/><path class="cls-3" d="M408.78,208.16c-1.47,2.09-2.91,4.18-4.52,6.14a96.67,96.67,0,0,0,15.41-41.72c.1.5.18,1,.25,1.5.08-.07.05.46-.06,1.43s-.29,2.39-.66,4.08l-.56,2.74-.78,3-.42,1.6-.51,1.62c-.35,1.09-.67,2.2-1.06,3.29A109.45,109.45,0,0,1,411,203.49C409.5,206.5,408.5,208.38,408.78,208.16Z"/><path class="cls-3" d="M408.12,210.29a10.91,10.91,0,0,1-1.17,2.91,24.41,24.41,0,0,1-1.72,2.36L403.28,218a23.51,23.51,0,0,0-2,3.1c.87-1.62,1.49-3.08,2.23-4.42a21.25,21.25,0,0,1,2.54-4C406.77,211.88,407.43,211.08,408.12,210.29Z"/><path class="cls-4" d="M401.41,224.32a17.84,17.84,0,0,0-1.28,1.45c-.43.49-.83,1-1.21,1.49a15.87,15.87,0,0,1-2,2.3c-.07-.66.66-1.59,1.63-2.52.48-.47,1-.94,1.52-1.4S401,224.71,401.41,224.32Z"/><path class="cls-2" d="M399.83,232c-.27.3-.55.58-.84.86.29-.38.55-.73.73-1Z"/><path class="cls-2" d="M399.72,231.89l-.29-.37C400.13,231,400.08,231.29,399.72,231.89Z"/><path class="cls-2" d="M399,232.9a29.37,29.37,0,0,0-1.77,2.48l.84-.75c-1,1.21-2.72,3.29-3.43,3.59,2.28-2,2.1-2.25,1.71-2.78l-3.64,3.22C392.34,236.88,395.91,236,399,232.9Z"/><path class="cls-4" d="M387.75,243.41c1.19-1.21,2.24-2.56,3.35-3.82.8-.12.34.55-.5,1.4A23.91,23.91,0,0,1,387.75,243.41Z"/><path class="cls-2" d="M381.16,246.86c.41-.43,1.63-1.3,2.42-1.9s1.11-1-.19-.28a16.6,16.6,0,0,1,2.11-1.71C383,245.07,386.11,244.18,381.16,246.86Z"/><path class="cls-2" d="M385.49,243c.3-.25.63-.53,1.09-.87C386.23,242.42,385.86,242.71,385.49,243Z"/><path class="cls-4" d="M414.14,201.64c-.36.47-.45.41-.44.13Z"/><path class="cls-2" d="M372.16,251.08l-1.63.86c.47-.25.89-.5,1.29-.74Z"/><path class="cls-2" d="M410.5,122.8,412,127l1.45,4.39c.49,1.53.94,3.15,1.52,4.88l.78,2.73c.27.95.6,1.92.85,3,1-.41,1,3.33,2.17,3.64a98.8,98.8,0,0,1,1.51,12.63c.1,1.09.09,2.19.12,3.27s.08,2.14,0,3.14c-.07,2,0,3.86-.16,5.31-.17,2.9-.17,4.27.15,2.47l-.27-2.22.9,2.38c-.83,4.36-2.89,10-3.09,13-.07.09,0-.41.24-1.35l.41-1.72.45-2.29a99.57,99.57,0,0,0,1.72-12.56,95.56,95.56,0,0,0,.07-12.55,32.51,32.51,0,0,0-.57-5.06c.13-.44.31,0,.54,1.17a42.36,42.36,0,0,1,.7,5.32,85.79,85.79,0,0,1-.45,17.94,100.63,100.63,0,0,1-4.19,18.45l-1.18,3.46-1,2.7c-.56,1.54-1,2.48-1,2.67l-.9.26c-.56,1.62-1,3.12-1.57,4.5s-.94,2.73-1.49,4-1,2.51-1.59,3.73-1.23,2.45-1.94,3.74l-1.47.58c2.67-3.34,2.85-4.64,4.73-8.54a54,54,0,0,1-4.33,6.66c-.58.8-1.21,1.51-1.84,2.35s-1.3,1.78-2.19,2.89c.49.26,1.39-.6,1.61-.81s-.11.32-2.18,3.32c-.84.66-.72-.14-.89-.45s-.57-.12-2.64,2.32c-5.51,5.43-3.3,5.46-8.36,10.1,1.3-.85,2.48-1.85,3.72-2.77-1.79,1.78-5.27,5-7.59,6a32.38,32.38,0,0,0,4.52-4.14c1.41-1.65,2.4-3.15,2-3.48-1.89,2.18-7,5.9-9,7.35l.75-1.52a10.27,10.27,0,0,0-3,2,13.51,13.51,0,0,1-3.47,2.18c-1.24,1-.69,1,0,.89s1.54-.42.87.22a31.54,31.54,0,0,0-3.63,1.77l-1.28.72c-.43.23-.85.46-1.25.68a12.82,12.82,0,0,0-1.89,1.26c1,.33,2.7-.6,4.52-1.84.91-.62,1.88-1.28,2.9-1.84a11.63,11.63,0,0,1,3.09-1.32l-2.59,1.56-2.66,1.43c-1.23,1.67.85.42,3.11-1s4.53-3.2,4.08-2.12a12.62,12.62,0,0,1-5.85,3.89c-2.17,1-4.33,1.75-5.73,3.69a53.92,53.92,0,0,0,6.23-3c2.22-1.13,3.94-2.16,3.61-1.59a16,16,0,0,0-3.83,2.47c-.61.49-1.22,1.06-1.95,1.59s-1.55,1.1-2.52,1.67c-1.7.67-3.47,1.16-5.19,1.72-1.86,1.43-.19.66,1.58.19-3.78,1.35-8.74,3.36-14.24,5.08a62.6,62.6,0,0,1-17.24,3.1c-6.58.91-.75.8-3.72,1.66a31.24,31.24,0,0,0-6.61-.09c-1.2.08-2.42.1-3.56.16a25.76,25.76,0,0,1-3.14,0c-1.09-.13-3.16.7-2.12,1.16,3.16,0,6.32-.13,9.45-.4-.45.52,1,1.34,4.37,1.05-1.23-.86,2.11-.78,5.84-1s7.83-.8,7.95-1.9l.06,1c2-.48,3.9-1.14,5.85-1.7s3.83-1.32,5.71-2.06h-.38a35.2,35.2,0,0,0,5.51-2.16c1.53-.73,3.29-1.46,5-2.3s3.44-1.57,4.94-2.29a60.06,60.06,0,0,1-5.7,3c-2,.92-3,1.52.25.75-4.36,2.51-13,4.92-21.9,7l1.89.3a62.12,62.12,0,0,1-16,2.39,144.25,144.25,0,0,1-16.9-.72c1.08-.19,2.15-.34,3.22-.59-1.84-.28-3.92-.83-6-1.17a26.17,26.17,0,0,0-5.86-.71c4.44.75,2.09.82,1.2,1.09-1.53-.15-3.22-.47-5-.81s-3.7-.91-5.65-1.47-4-1.2-5.95-2l-3-1.06-3-1.13s.45,0,.17-.28l-2.08-.73-2-.82c-1.37-.54-2.74-1.08-4.06-1.72a25.27,25.27,0,0,1-6.43-5.12c-1.34-.72-4.47-2.84-3.57-1.61a16.24,16.24,0,0,0,1.78,1.24c-4.25-1.65-2.43-1.93-7.26-4.75,3.94,1.9-.37-1.72.59-2.1-5.19-3.76-1.4.77-2.25.57l-1.94-1.83c-.55-.58-1-1.11-1.49-1.6-.89-1-1.64-1.81-2.34-2.69-1.39-1.75-2.85-3.42-5.39-6.4-.34,0,.53,1.09,1.5,2.29s2.11,2.42,2.13,2.88a34.23,34.23,0,0,0-3.74-3.76c1,1.29,2,2.58,3.05,3.8a198.16,198.16,0,0,1-15.24-20.14l.15.75-1.45-2.44c-.48-.81-.9-1.67-1.35-2.5l1.8,1.33a31.06,31.06,0,0,1-2-4,8.15,8.15,0,0,0-1.73-3l.41,1c-.63-1.11-1.28-2.2-1.88-3.33.82,1.07,1.68,2.11,2.51,3.14a26.24,26.24,0,0,0-1.72-3.54c-.65-1.26-1.42-2.6-2.23-4s-1.53-3-2.29-4.68a43.43,43.43,0,0,1-1.85-5.4c.41-1,1.4,2.27,2.73,5.76s3.11,7.15,4.06,7.28c-.35-1.24-.92-2.89-1.44-4.41a15.69,15.69,0,0,0-1.49-3.58c-.33.44.28,2.19.9,4a38.07,38.07,0,0,1-2.12-5.21l-.84-2.9-.4-1.46-.33-1.46L223,180.46a21.47,21.47,0,0,0-1.37-4.05c0,1.74.26,3.46.39,5.21a31.44,31.44,0,0,1-.61-4.1c0-1.26,0-2.39,0-3.38,0-2,.12-3.47-.46-4.44l1,2.28c.35.75.75,1.49,1.13,2.23-.2-.73-.41-1.49-.57-2.28s-.28-1.6-.41-2.43-.26-1.67-.35-2.51l-.21-2.55c-.06-.85-.15-1.7-.18-2.54l-.09-2.49-.11-2.38c0-.77,0-1.52-.07-2.24-.45-.1-.66,2-.53,4s.26,4,.19,3.83c-.26-.9-.46-1.81-.69-2.73l.21-2.7.24-1.63c.14-.82.23-1.19.33-1.62s.19-.92.37-2l.94-5.29-.62-.19a14.27,14.27,0,0,0,.84-3.44l.6-3.94c.32-2.4.75-3.84,1.11-1.89-.36.91-.66,1.84-1,2.77l.81-.09a105.9,105.9,0,0,1,2.71-12.07c.14,1.31,2-4.35,2.18-2.58.27-1.51.67-3,1-4.47.91-.73.38,1.31-.21,3.63s-1.21,4.95-.84,5.32c.5,0,1.13-2,1.42-3-1,5.27-3.55,7.26-4.78,12.52l.14,2.75-.92-.32a13.66,13.66,0,0,0,.38,5,15.28,15.28,0,0,0-1,4,27.15,27.15,0,0,0-.22,4.39l0,2.38L224,160c0,.87,0,1.76.09,2.68s.08,1.88.08,2.88c-.4-3.29-.59-2.24-.72-.47s-.08,4.21-.25,3.66a34.07,34.07,0,0,0,.56,3.54l1.07,4.42c.4,1.5.8,3,1,4.29a12,12,0,0,1,.32,3.27c.06,2.19-1.73-4.22-.74.81.23.8.45,1.54.69,2.15a10.48,10.48,0,0,0,.68,1.4c.39.63.63.59.55-.49a122.29,122.29,0,0,0,9.3,22.12l-1.46-1.38a26.12,26.12,0,0,0,3.66,6.2,33.27,33.27,0,0,0,3.82,3.91c.2.7.59.91-.18.51a18.31,18.31,0,0,0,2.29,3.48,28.37,28.37,0,0,0,2.7,2.54c1,.87,2.1,1.74,3.4,2.9s2.82,2.55,4.63,4.43c.1-.54-.66-1.63-1.76-2.85a43,43,0,0,0-3.75-3.69l1.34-.05a144.75,144.75,0,0,1-15.33-21.06l2.23,2.57a13.23,13.23,0,0,0-1.24-3.18,7.22,7.22,0,0,0-1.11-1.54,6.26,6.26,0,0,1-1.05-1.5,8,8,0,0,1-.47-1.25,16.74,16.74,0,0,1-.33-1.88c-2-3.86.7,3.1-.94.25-.45-1.48,0-1.46.4-1.67a.67.67,0,0,0,.32-.7,10.12,10.12,0,0,0-.59-2.32A104.77,104.77,0,0,0,248,219.75,102.62,102.62,0,0,0,258.3,231a97.06,97.06,0,0,0,11.81,9.32c.43,0-.42-.57-1.21-1.22a36,36,0,0,1,4,2.3c1.85,1.08,4.12,2.53,6.8,4a100,100,0,0,0,19.3,8.24,84,84,0,0,0,19.82,3.57,47.49,47.49,0,0,0,6.77-.09c1.68-.21,2.72-.5,2.92-.84,1,.35-2.17.91,2,.7.37-.22,1.41-.57.41-.87,5.31.4,11.5-.56,17.72-2.27a170.15,170.15,0,0,0,18.4-6.61c-.44-.25,1.94-1.77,1.83-2.09a16,16,0,0,0,3.5-1.4c1.2-.67,2.46-1.43,3.68-2.23s2.36-1.7,3.47-2.44a30.18,30.18,0,0,1,3-2l-1.37.37a94.63,94.63,0,0,0,9.75-8.26c.06-.2-.2,0-.6.34L389,230.63a9.17,9.17,0,0,1,2.11-1.81,1.47,1.47,0,0,1,1.1-.17l1.6-2.42,1.48-2.49a50.75,50.75,0,0,0,4.49-4.6,62.93,62.93,0,0,0,4-5.41c1.32-1.89,2.44-3.94,3.61-6s2.16-4.25,3.07-6.49c3.85-8.89,6.16-18.55,8.06-27.9a28.86,28.86,0,0,1-.5-4.4c-.09-1.57-.09-3.38-.06-5.75-.08.78-.25,1.55-.37,2.32-.21-2.43-.18-2.49,0-2.46s.37.14.21-1.92c-.54-2.77-1.33-.84-.89,2.9-.46,2.33-.64.86-.81-.8a118,118,0,0,0-1.32-21.32A148.36,148.36,0,0,0,410.5,122.8Z"/><path class="cls-2" d="M399.58,110c-.27-.78.68.48,1.54,1.47s1.51,1.79.89-.12c-2.55-5.74-7.62-12.36-13.76-18.26a114.44,114.44,0,0,0-9.82-8.2c-3.39-2.48-6.74-4.8-9.91-6.83-.8-.61-1.46-1.13-2.06-1.54s-1.14-.74-1.66-1.06c-1-.65-2.06-1.26-3.68-2.1a.41.41,0,0,0-.11.5c-.95-.39-2-.9-3.22-1.3l-3.72-1.31c-1.28-.39-2.56-.8-3.76-1.21S348,69.33,347,69c-1.18-.11-2.16.36,0,.75-1.53-.27-2.95-.53-4.25-.89l-3.64-1.08a17.53,17.53,0,0,0-6-1.17c3,.78-3,.34.5,1.09-6.45-.45-5.77-2.81-11.05-3.14-.31.21-.63.41.43.44a28.14,28.14,0,0,0-5.19-.16c-1.92.18-4,.32-5.82.66-3.73.51-6.78,1.22-7.28.39-.72.36-1.42.81-2.11,1.22-2.58.07-2.1-.57-6.24.44-2.58,1,.29.59-.6,1.13-.67-.21-2.72.43-5.05,1.11-1.18.32-2.37.79-3.52,1.12a30.23,30.23,0,0,1-3.1.75c-.16-.23.15-.42.73-.62s1.48-.33,2.46-.53,2-.45,3.07-.72A8.3,8.3,0,0,0,293,68.59c0-.24-.45-.14-1.11.07a66.19,66.19,0,0,1,12.21-2.84,86.86,86.86,0,0,1,11.38-.66c7.33,0,14.1.74,21.17,1.23a10.45,10.45,0,0,0,4,.85,9.73,9.73,0,0,0,2.93-.36c-.62-.21-1.51-.53-2.54-.81s-2.18-.51-3.26-.7c-2.17-.36-4.08-.3-4.24.43-1.44-.52-2.91-.89-4.39-1.32-1.7,0-1.61-1.57-2.36-1.83,3.19.28,7-.94,2.62-1.77,4.33.16,3.55,1,2.68,1.67-.44.37-.89.73-.78,1s.81.43,2.66.55l1.2-1c-.74.23.5.61,2.2,1a32.81,32.81,0,0,0,5.1.85l-.94-.41a110.84,110.84,0,0,1,31.24,11.56,99.06,99.06,0,0,1,27,22.12,8.89,8.89,0,0,0,.85,2.21,17.69,17.69,0,0,0,1.34,2.27c.51.76,1.13,1.5,1.7,2.29s1.2,1.57,1.82,2.36,1.22,1.58,1.77,2.39,1.07,1.59,1.54,2.37a11.36,11.36,0,0,1,1.57,4.48c1.46,2-.74-3.5,1.71.48,1.15,2,.58,2.54.36,2.53l1.1,1.83c-.87,1.33-2.28,1.23-4.42-.61a20.09,20.09,0,0,1-1.74-1.73c-.65-.68-1.38-1.46-2.15-2.37l-1.2-1.45-1.38-1.58-1.47-1.77Z"/><path class="cls-2" d="M186.9,314l-1.71-2a24.37,24.37,0,0,0,6.1-8.34l2.58.59a36.89,36.89,0,0,1-2.44,4.45v10.67h-2.58V312C188.21,312.71,187.57,313.36,186.9,314Zm4,7.11a26.61,26.61,0,0,1-2.83,7.2l-2.27-1.46a21.06,21.06,0,0,0,2.52-6.27Zm4.42,8c-1.9,0-2.86-1-2.86-3.08V320.3h2.69v5.15q0,1.09,1,1.09h5.77a1.34,1.34,0,0,0,1.09-.48,6.64,6.64,0,0,0,.56-3.05l2.52.84c-.22,2.52-.62,4-1.2,4.54a3.86,3.86,0,0,1-2.46.67Zm4.79-24.89c-.31.64-.62,1.26-.9,1.82h11v1.65a31,31,0,0,1-1.37,4.12l-2.35-.64a16.13,16.13,0,0,0,1.09-2.72h-9.8a23.4,23.4,0,0,1-3.47,4l-1.62-2a20.36,20.36,0,0,0,4.9-6.86ZM199,313a23.11,23.11,0,0,1-3.61,5.54l-2-1.4a20.61,20.61,0,0,0,3.5-5.15ZM202,323.63l-2.07,1.46a30.81,30.81,0,0,0-3-4.23l2-1.29A28.83,28.83,0,0,1,202,323.63Zm-3.58-4.26-.59-2.46a11.45,11.45,0,0,0,1.9.17c.45,0,.7-.36.7-1.06v-6.52h2.63v7.17c0,1.79-.84,2.72-2.46,2.72Zm11.82-1.93L208,318.62a32.94,32.94,0,0,0-3.5-5.71l2.21-1A32.58,32.58,0,0,1,210.25,317.44Zm1.26,8.6-2.21,1.54a56.51,56.51,0,0,0-4-6.66l2.16-1.34A50.83,50.83,0,0,1,211.51,326Z"/><path class="cls-2" d="M223.91,327.75h-2.55v-1.46h-4.42v2.27h-2.55v-20.3h2.66a26,26,0,0,0,1.12-4.68l2.66.36a22.69,22.69,0,0,1-1.23,4.31h4.31Zm-2.55-11.82v-5.15h-4.42v5.15Zm0,7.9v-5.52h-4.42v5.52Zm16.58,2.32c-.28,2-1.62,3-4,3-.56,0-1.57-.06-3-.14l-.64-2.44c1.23.06,2.3.11,3.19.11a1.79,1.79,0,0,0,1.93-1.76c.17-1.4.25-6.1.31-14.08h-7a25.16,25.16,0,0,1-2.74,4.62l-1.6-2.1a24.57,24.57,0,0,0,3.81-9.83l2.63.34a32.51,32.51,0,0,1-1.12,4.4h8.65Q238.36,322.78,237.94,326.15ZM233.21,321l-2.1,1.48a52.73,52.73,0,0,0-4.31-6.16L229,315A46.67,46.67,0,0,1,233.21,321Z"/><path class="cls-2" d="M248.41,308.79V318a18.75,18.75,0,0,1-1.4,7.5,8.77,8.77,0,0,1-4.12,4.06l-1.4-2.21a7.67,7.67,0,0,0,3.67-3.47,17.4,17.4,0,0,0,1.06-5.88v-9.18Zm3.89,3.16a21.31,21.31,0,0,0,3.39-8.4l2.58.34a27.41,27.41,0,0,1-.9,3.56h9q0,14.87-.42,18.31c-.28,2.3-1.54,3.47-3.84,3.47-.78,0-2.13-.06-4.06-.11l-.62-2.38c1.62.08,3.05.14,4.28.14,1,0,1.57-.7,1.74-2.1s.25-6.36.31-14.76h-7.42a23.4,23.4,0,0,1-2.77,4.51l-1.29-1.65v9.55H250V307h-5.21v15.4h-2.38V304.59h9.94Zm1.2,15.48-1.93,1.88a26.25,26.25,0,0,0-3.64-4.54l1.68-1.65A35.85,35.85,0,0,1,253.51,327.44Zm9.6-4.23L261,324.3c-.17-.67-.36-1.32-.53-1.93a65.41,65.41,0,0,1-6.92,1.06l-.42-2.3c.9-.45,2.16-3.47,3.75-9l2.41.81a67.55,67.55,0,0,1-3.22,8,29.85,29.85,0,0,0,3.75-.64c-.36-1.18-.73-2.27-1.12-3.28l2-1C261.52,318.2,262.33,320.61,263.11,323.21Z"/><path class="cls-2" d="M271.6,315.74l-2.32-.64a39,39,0,0,0,1.43-9.32l2.35.17c-.06,1.12-.14,2.24-.25,3.33h1.46v-5.6h2.58v5.6h2v2.58h-2v5.91q1-.46,1.93-.92v2.52c-.64.31-1.29.62-1.93.9v9.24h-2.58v-8.2c-1.32.5-2.66,1-4,1.37l-.62-2.58a38.05,38.05,0,0,0,4.65-1.29v-6.94h-1.79C272.24,313.19,271.93,314.48,271.6,315.74Zm13-11.51q-.42,2-.92,3.7h10.67q0,14.45-.42,17.81c-.34,2.41-1.9,3.61-4.73,3.61-.39,0-1.09-.06-2.1-.11l-.62-2.38c.9.08,1.65.14,2.32.14a2.47,2.47,0,0,0,2.66-2.44c.17-1.4.28-6.08.34-14.06h-1.26a47.29,47.29,0,0,1-2.49,10.81,23.83,23.83,0,0,1-5.74,8l-1.65-2.1a21.18,21.18,0,0,0,5.18-7,38.21,38.21,0,0,0,2.3-9.69h-1.62q-1.72,9-6.33,13.1l-1.71-2c2.74-2.35,4.65-6,5.68-11.12h-1.4a17.7,17.7,0,0,1-2.46,4.23l-2-1.65c1.76-2.21,3-5.38,3.75-9.49Z"/><path class="cls-2" d="M305.14,307c.5-1.15,1-2.35,1.48-3.58l2.66.59c-.42,1.06-.84,2-1.26,3h14v2.58H306.77a37.46,37.46,0,0,1-3.67,5.68h6.24v-3.75h2.72v3.75h8.43v2.44h-8.43v3.56h10.36v2.58H312.06v5.8h-2.72v-5.8h-11v-2.58h11v-3.56h-9l-.62-2.44a25.64,25.64,0,0,0,4.12-5.68h-5.15V307Z"/><path class="cls-2" d="M328.27,318V304.51h20.1V318h-8.68v2.72h9.88v2.52h-9.88v2.83h11.06v2.58H325.92V326.1H337v-2.83h-9.88v-2.52H337V318Zm2.6-11.06v3.11H337V307Zm0,8.62H337v-3.05h-6.13Zm14.9-8.62h-6.08v3.11h6.08Zm0,8.62v-3.05h-6.08v3.05Z"/><path class="cls-2" d="M367.75,306.19h10.7v6h-2.72v-3.5H357v3.47h-2.72v-5.94H365a19.83,19.83,0,0,0-1.12-2.32l2.91-.45C367.11,304.26,367.41,305.18,367.75,306.19ZM376,317.7v2.52h-8.37V326h10.72v2.55H354.34V326H365v-5.82h-8.29V317.7Zm-11.42-5.6a27.62,27.62,0,0,1-8.15,4.87l-1.15-2.41a23.41,23.41,0,0,0,7.64-4.37Zm12.46,2.69-1.51,2.27a34.59,34.59,0,0,0-7.84-5l1.4-2.07A37.65,37.65,0,0,1,377.07,314.78Z"/><path class="cls-2" d="M395.75,306.19h10.7v6h-2.72v-3.5H385v3.47h-2.72v-5.94H393a19.83,19.83,0,0,0-1.12-2.32l2.91-.45C395.11,304.26,395.41,305.18,395.75,306.19ZM404,317.7v2.52h-8.37V326h10.72v2.55H382.34V326H393v-5.82h-8.29V317.7Zm-11.42-5.6a27.62,27.62,0,0,1-8.15,4.87l-1.15-2.41a23.41,23.41,0,0,0,7.64-4.37Zm12.46,2.69-1.51,2.27a34.59,34.59,0,0,0-7.84-5l1.4-2.07A37.65,37.65,0,0,1,405.07,314.78Z"/><path class="cls-2" d="M416.89,303.72c-.28,1.68-.59,3.28-.87,4.73h5.74V310a26.84,26.84,0,0,1-3.05,11.76,46.21,46.21,0,0,1,3.86,3.11L420.73,327a39.91,39.91,0,0,0-3.44-3,22.77,22.77,0,0,1-5.6,5.38l-1.76-2.21a20,20,0,0,0,5.32-4.79c-1.4-1.12-3-2.27-4.7-3.5.84-2.41,1.57-5,2.24-7.81h-3v-2.6h3.56c.31-1.62.59-3.28.87-5Zm2.38,7.34h-3.78a52.61,52.61,0,0,1-2,7c1.12.76,2.18,1.48,3.14,2.16A22.69,22.69,0,0,0,419.27,311.06Zm14.42,17.19h-2.58v-1.71h-4.9v1.71h-2.6V305.94h10.08ZM431.11,324V308.51h-4.9V324Z"/><path class="cls-2" d="M452.2,303.53v6.33l8.4-1.88c0,6.13-.17,9.86-.45,11.17-.28,1.57-1.57,2.35-3.84,2.35h-1.23l-.73-2.46c.92,0,1.74.06,2.44.06s1-.5,1.09-1.48q.13-.84.17-6.3l-5.85,1.26v10.14h-2.6v-9.58l-5.38,1.15v9.91a1.64,1.64,0,0,0,1.88,1.85h12a3.21,3.21,0,0,0,2.07-.56c.39-.39.67-1.71.81-4l2.44.81c-.22,3-.64,4.76-1.29,5.4a5.47,5.47,0,0,1-3.58.9H445.45c-2.58,0-3.84-1.34-3.84-4v-9.72l-4.23.9v-2.58l4.23-.92v-6.5h2.6v5.91l5.38-1.2v-6.92Z"/><path class="cls-2" d="M213.29,344.46v1.4h-2.64v13.6a1.74,1.74,0,0,1-1.92,2h-3.34l-.32-1.4c1.1,0,2.16.08,3.16.08.64,0,1-.36,1-1V345.86H195.45v-1.4Zm-7.74,11.8h-6.38V358h-1.4v-9.1h7.78Zm-1.38-1.32v-4.72h-5v4.72Z"/><path class="cls-2" d="M216.45,358a1.32,1.32,0,0,0,.54-1.1v-13h1.48V357.2a34.74,34.74,0,0,0,4.64-2.34l.4,1.4a42.2,42.2,0,0,1-6.58,3.06Zm9.62-7-1.22.84a43.94,43.94,0,0,0-4.16-5.6l1.2-.74A44,44,0,0,1,226.07,350.94Zm-3.66,10.46-1-1.18c3.4-2,5.66-4.4,6.76-7.36a31,31,0,0,0,1.28-9.54H231a32,32,0,0,1-1.26,9.64c-.1.3-.2.6-.32.9a43.24,43.24,0,0,1,4.14,6.24l-1.1,1.1a43.13,43.13,0,0,0-3.68-6A16.15,16.15,0,0,1,222.41,361.4Z"/><path class="cls-2" d="M252.51,360.88l-1.22.86c-.32-.58-.66-1.18-1-1.78q-7,.72-13.2,1.08l-.26-1.18c1.72-.94,3.48-3.2,5.28-6.8h-6.64v-1.4h8.16v-3.78h-6.9v-1.4h6.9V343.3h1.48v3.18H252v1.4h-6.86v3.78h8.14v1.4h-9.54a23,23,0,0,1-4.32,6.62c4.84-.38,8.24-.68,10.16-.92-.84-1.28-1.8-2.62-2.86-4l1.16-.74A55.58,55.58,0,0,1,252.51,360.88Z"/><path class="cls-2" d="M263.13,346.94c.22-.48.42-1,.62-1.46q-2.94.18-6.36.18l-.42-1.2a72.67,72.67,0,0,0,14.12-1.14l.66,1.14a48.93,48.93,0,0,1-6.62.92c-.18.54-.38,1.06-.58,1.56H272v1.24h-8c-.24.48-.5.92-.76,1.36h9.94v1.28H262.33c-.36.48-.72.94-1.1,1.38h9.92v9.42h-1.38v-.86h-9v.86h-1.38v-7.5a31.05,31.05,0,0,1-3.38,2.66l-.78-1.24a26.4,26.4,0,0,0,5.4-4.72h-4.88v-1.28h5.88c.32-.46.62-.92.88-1.36h-5.68v-1.24Zm6.64,6.44h-9v1.34h9Zm-9,3.72h9v-1.26h-9Zm0,2.48h9v-1.36h-9Z"/><path class="cls-2" d="M283.13,346.94c.22-.48.42-1,.62-1.46q-2.94.18-6.36.18l-.42-1.2a72.67,72.67,0,0,0,14.12-1.14l.66,1.14a48.93,48.93,0,0,1-6.62.92c-.18.54-.38,1.06-.58,1.56H292v1.24h-8c-.24.48-.5.92-.76,1.36h9.94v1.28H282.33c-.36.48-.72.94-1.1,1.38h9.92v9.42h-1.38v-.86h-9v.86h-1.38v-7.5a31.05,31.05,0,0,1-3.38,2.66l-.78-1.24a26.4,26.4,0,0,0,5.4-4.72h-4.88v-1.28h5.88c.32-.46.62-.92.88-1.36h-5.68v-1.24Zm6.64,6.44h-9v1.34h9Zm-9,3.72h9v-1.26h-9Zm0,2.48h9v-1.36h-9Z"/><path class="cls-2" d="M301.35,357.28v4.28H300V351.1a25.19,25.19,0,0,1-3.86,3.86l-.94-1.22a22,22,0,0,0,5.84-6.86h-5.3v-1.4h6a22.41,22.41,0,0,0,.88-2.34l1.46.18c-.24.74-.48,1.46-.76,2.16h9.94v1.4H302.67a23.79,23.79,0,0,1-1.3,2.32h9.28V360c0,1-.56,1.48-1.68,1.52h-2.24l-.36-1.32c.76,0,1.48.08,2.14.08s.78-.24.78-.72v-2.28Zm0-4.64h7.94v-2.18h-7.94Zm0,1.26V356h7.94V353.9Z"/><path class="cls-2" d="M320.21,358.2h-3V360h-1.28v-15h4.28ZM319,357V346.22h-1.74V357Zm3.56-8.28v-3.22h-1.3v-1.28h5.5q0,11.7-.24,14.4t-2,2.76c-.24,0-.64,0-1.22-.08l-.3-1.24c.48,0,.92.06,1.3.06.58,0,.92-.62,1-1.82,0-.64.1-1.88.14-3.74h-1.94A14.71,14.71,0,0,1,321,361.4l-1-.86a13.23,13.23,0,0,0,2.2-6h-1.1v-1.28h1.24c.08-1,.14-2,.16-3V350h-1.36v-1.28Zm2.92,1.28h-1.7v.24c0,1.08-.06,2.1-.14,3h1.82C325.41,352.26,325.41,351.16,325.43,350Zm0-4.5h-1.72v3.22h1.7C325.43,347.68,325.43,346.6,325.45,345.46Zm7.64-1.34v1.06c-.32,1.78-.72,3.66-1.2,5.62a14,14,0,0,1,1.44,5.1,3.73,3.73,0,0,1-.46,2.14,3.09,3.09,0,0,1-2.4.86l-.44-1.34c.44,0,.82.06,1.14.06a1.12,1.12,0,0,0,.68-.4,3.5,3.5,0,0,0,.2-1.32,10.76,10.76,0,0,0-1.44-4.92c.52-2.06.92-3.94,1.2-5.62h-2.4v16.2h-1.28V344.12Z"/><path class="cls-2" d="M341.73,343.34v3.36h3v1.36h-3v3.74c1-.2,2.08-.4,3.1-.62v1.36c-2.88.6-6,1.12-9.34,1.54l-.34-1.38c.6-.06,1.18-.12,1.74-.2v-7.2h1.4v7c.68-.08,1.36-.18,2-.28v-8.7Zm11.36,16.16v1.42H335.63V359.5Zm-2.22-4v1.38H337.81v-1.38Zm2.06-9.36a28.62,28.62,0,0,1-5.76,2.2v3.06c0,.6.22.92.7.92h2.5a1.31,1.31,0,0,0,1-.34,4.61,4.61,0,0,0,.52-2.38l1.32.44c-.16,1.72-.44,2.76-.84,3.14a2.58,2.58,0,0,1-1.74.48h-3.2c-1.12,0-1.68-.66-1.68-2v-8.34h1.42V347a23.68,23.68,0,0,0,4.92-2Z"/><path class="cls-2" d="M360.27,354.28h-1.44v-5.36a20.83,20.83,0,0,1-3.2,4.44l-.54-1.36a15.58,15.58,0,0,0,3.7-5h-3.26v-1.32h3.3V343.5h1.44v2.22h2.66V347h-2.66V348c1,.74,2.1,1.58,3.18,2.5l-.8,1.2a32.4,32.4,0,0,0-2.38-2.46Zm-1.54,1.44a17.34,17.34,0,0,1-2.16,5l-1.24-.78a13.72,13.72,0,0,0,2-4.52Zm3.3,5.46c-1.28,0-1.92-.68-1.92-2v-4h1.46v3.72a.8.8,0,0,0,.9.9h4.3a1.32,1.32,0,0,0,1-.32,4.5,4.5,0,0,0,.5-2.26l1.36.46c-.14,1.66-.42,2.68-.86,3.06a2.61,2.61,0,0,1-1.7.46Zm4.44-3.72-1.14.8a23.25,23.25,0,0,0-2.22-2.78l1.12-.7A23.58,23.58,0,0,1,366.47,357.46Zm5.46-13.4V354h-7.68v-9.92Zm-1.4,3v-1.68h-4.88V347Zm0,2.82v-1.62h-4.88v1.62Zm0,1.18h-4.88v1.68h4.88Zm3,8.32-1.22.86a39.52,39.52,0,0,0-3-4.58l1.16-.74A35.72,35.72,0,0,1,373.55,359.34Z"/><path class="cls-2" d="M379.93,346.86v6.56a13.18,13.18,0,0,1-1,5.3,6.36,6.36,0,0,1-2.94,2.9l-.76-1.2a5.78,5.78,0,0,0,2.7-2.6,12,12,0,0,0,.78-4.4v-6.56Zm2.76,9.76h-1.28V345.4h-4.14v11.22H376V344.06h6.72Zm.88,3.84-1,1a20.22,20.22,0,0,0-2.7-3.36l.92-.9A22.62,22.62,0,0,1,383.57,360.46Zm3.36-17.08a26,26,0,0,1-.72,2.74h6.62c0,7-.12,11.22-.32,12.82a2.48,2.48,0,0,1-2.72,2.46c-.54,0-1.48,0-2.8-.06l-.34-1.3c1.12,0,2.08.08,2.92.08s1.4-.52,1.56-1.56.26-4.86.3-11h-5.78a14.67,14.67,0,0,1-2,3.28l-.88-1.14a14.84,14.84,0,0,0,2.76-6.46Zm3.58,13.9-1.18.6c-.16-.52-.3-1-.44-1.44a43.69,43.69,0,0,1-5.12.82l-.24-1.24c.76-.6,1.72-2.84,2.86-6.72l1.3.42a39.62,39.62,0,0,1-2.52,6.18,31.14,31.14,0,0,0,3.34-.62c-.32-1-.66-1.86-1-2.68l1.1-.54C389.29,353.66,389.91,355.4,390.51,357.28Z"/><path class="cls-2" d="M406.21,346.82V351a15.36,15.36,0,0,1-.4,3h7.44v1.4h-7.92a9.64,9.64,0,0,1-.44.92,63.79,63.79,0,0,1,7.92,4.2l-1,1.08a64.83,64.83,0,0,0-7.66-4.2c-.12.14-.22.28-.32.4-1.46,1.58-3.84,2.82-7.14,3.7l-.82-1.28c3.32-.86,5.62-2,6.94-3.42a6.93,6.93,0,0,0,.9-1.4h-7.94V354h8.52a11.93,11.93,0,0,0,.48-3v-4.2Zm5.58-2.38v.9a26.55,26.55,0,0,1-1.18,3.56l-1.36-.38a14.75,14.75,0,0,0,1-2.74H396.55v-1.34Zm-10.18,7.4-.74,1.16a18,18,0,0,0-4.14-2.36l.7-1A22.45,22.45,0,0,1,401.61,351.84Zm1.78-2.78-.74,1.14a17.55,17.55,0,0,0-4.06-2.36l.68-1A20.32,20.32,0,0,1,403.39,349.06Z"/><path class="cls-2" d="M422.43,360.36H421v-1.14h-3.64v1.72H416V346.72h1.86a18.55,18.55,0,0,0,.86-3.48l1.44.2a19.09,19.09,0,0,1-.94,3.28h3.22ZM421,352.2v-4.12h-3.64v4.12Zm0,5.68V353.5h-3.64v4.38Zm11.44,1.18a2.47,2.47,0,0,1-2.8,2.3c-.4,0-1.08,0-2-.08l-.34-1.32c.84,0,1.56.06,2.18.06a1.56,1.56,0,0,0,1.64-1.54c.12-1.12.2-4.58.24-10.34h-5.5a16.9,16.9,0,0,1-2,3.42l-.86-1.14a17.69,17.69,0,0,0,2.86-7.2l1.42.18a26.38,26.38,0,0,1-.88,3.34h6.38C432.77,353.38,432.67,357.5,432.47,359.06Zm-3.28-3.34-1.14.8a39.3,39.3,0,0,0-3.3-4.44l1.16-.72A33.75,33.75,0,0,1,429.19,355.72Z"/><path class="cls-2" d="M443.29,351c.6.34,1.24.7,1.9,1.1a6.08,6.08,0,0,0,2.82,1c.92,0,1.92-.78,3-2.32l1.06.88c-1.28,1.88-2.64,2.84-4.06,2.84a6.61,6.61,0,0,1-3.12-1c-.66-.4-1.3-.78-1.9-1.12a4.71,4.71,0,0,0-2.14-.62c-1,0-2.08.74-3.14,2.22l-1.08-.86c1.3-1.86,2.7-2.78,4.22-2.78A5.49,5.49,0,0,1,443.29,351Z"/></g></g></svg>