<svg xmlns="http://www.w3.org/2000/svg" viewBox="0 0 27.27 40.76"><defs><style>.cls-1{fill:#a0a0a0;}</style></defs><title>delete</title><g id="图层_2" data-name="图层 2"><g id="图层_1-2" data-name="图层 1"><path class="cls-1" d="M20.06,40.3H7.1A6.49,6.49,0,0,1,.61,33.82V14.6A6.49,6.49,0,0,1,7.1,8.11h13a6.49,6.49,0,0,1,6.49,6.49V33.82A6.49,6.49,0,0,1,20.06,40.3ZM7.1,9.05A5.56,5.56,0,0,0,1.55,14.6V33.82A5.56,5.56,0,0,0,7.1,39.37h13a5.56,5.56,0,0,0,5.55-5.55V14.6a5.56,5.56,0,0,0-5.55-5.55Z"/><path class="cls-1" d="M20.06,40.6H7.1A6.79,6.79,0,0,1,.31,33.82V14.6A6.79,6.79,0,0,1,7.1,7.82h13a6.79,6.79,0,0,1,6.78,6.78V33.82A6.79,6.79,0,0,1,20.06,40.6ZM7.1,8.41A6.2,6.2,0,0,0,.91,14.6V33.82A6.2,6.2,0,0,0,7.1,40h13a6.2,6.2,0,0,0,6.19-6.19V14.6a6.2,6.2,0,0,0-6.19-6.19Zm13,31.25H7.1a5.85,5.85,0,0,1-5.85-5.85V14.6A5.85,5.85,0,0,1,7.1,8.75h13a5.85,5.85,0,0,1,5.85,5.85V33.82A5.85,5.85,0,0,1,20.06,39.66ZM7.1,9.35A5.26,5.26,0,0,0,1.84,14.6V33.82A5.26,5.26,0,0,0,7.1,39.07h13a5.26,5.26,0,0,0,5.25-5.25V14.6a5.26,5.26,0,0,0-5.25-5.25Z"/><path class="cls-1" d="M20.06,40.46H7.1A6.65,6.65,0,0,1,.45,33.82V14.6A6.65,6.65,0,0,1,7.1,8h13a6.65,6.65,0,0,1,6.64,6.64V33.82A6.65,6.65,0,0,1,20.06,40.46ZM7.1,8.27A6.34,6.34,0,0,0,.77,14.6V33.82A6.34,6.34,0,0,0,7.1,40.15h13a6.34,6.34,0,0,0,6.33-6.33V14.6a6.34,6.34,0,0,0-6.33-6.33Zm13,31.25H7.1a5.71,5.71,0,0,1-5.71-5.71V14.6A5.71,5.71,0,0,1,7.1,8.89h13a5.71,5.71,0,0,1,5.71,5.71V33.82A5.71,5.71,0,0,1,20.06,39.52ZM7.1,9.21A5.4,5.4,0,0,0,1.7,14.6V33.82A5.4,5.4,0,0,0,7.1,39.21h13a5.4,5.4,0,0,0,5.39-5.39V14.6a5.4,5.4,0,0,0-5.39-5.39Z"/><path class="cls-1" d="M20.06,40.76H7.1A7,7,0,0,1,.16,33.82V14.6A7,7,0,0,1,7.1,7.66h13A7,7,0,0,1,27,14.6V33.82A7,7,0,0,1,20.06,40.76ZM7.1,8.57a6,6,0,0,0-6,6V33.82a6,6,0,0,0,6,6h13a6,6,0,0,0,6-6V14.6a6,6,0,0,0-6-6Zm13,31.25H7.1a6,6,0,0,1-6-6V14.6a6,6,0,0,1,6-6h13a6,6,0,0,1,6,6V33.82A6,6,0,0,1,20.06,39.82ZM7.1,9.5A5.1,5.1,0,0,0,2,14.6V33.82a5.1,5.1,0,0,0,5.1,5.1h13a5.1,5.1,0,0,0,5.1-5.1V14.6a5.1,5.1,0,0,0-5.1-5.1Z"/><rect class="cls-1" x="7.49" y="13.81" width="0.94" height="20.63"/><path class="cls-1" d="M8.72,34.74H7.19V13.52H8.72Zm-.94-.59h.34v-20H7.78Z"/><path class="cls-1" d="M8.58,34.6H7.33V13.66H8.58Zm-.94-.31h.63V14H7.64Z"/><path class="cls-1" d="M8.88,34.89H7V13.36H8.88ZM7.94,34H8V14.27h0Z"/><rect class="cls-1" x="13.42" y="13.81" width="0.94" height="20.63"/><path class="cls-1" d="M14.66,34.74H13.13V13.52h1.53Zm-.94-.59h.34v-20h-.34Z"/><path class="cls-1" d="M14.52,34.6H13.27V13.66h1.25Zm-.94-.31h.63V14h-.63Z"/><path class="cls-1" d="M14.81,34.89H13V13.36h1.84ZM13.88,34h0V14.27h0Z"/><rect class="cls-1" x="19.36" y="13.81" width="0.94" height="20.63"/><path class="cls-1" d="M20.6,34.74H19.06V13.52H20.6Zm-.94-.59H20v-20h-.34Z"/><path class="cls-1" d="M20.46,34.6H19.21V13.66h1.25Zm-.94-.31h.63V14h-.63Z"/><path class="cls-1" d="M20.75,34.89H18.91V13.36h1.84ZM19.82,34h0V14.27h0Z"/><rect class="cls-1" x="0.45" y="4.59" width="26.37" height="0.94"/><path class="cls-1" d="M27.12,5.83H.16V4.3h27ZM.75,5.23H26.52V4.89H.75Z"/><path class="cls-1" d="M27,5.69H.3V4.44H27ZM.61,5.38H26.66V4.75H.61Z"/><path class="cls-1" d="M27.27,6H0V4.14H27.27ZM.91,5.08H26.37V5H.91Z"/><path class="cls-1" d="M9.94,4.91a4,4,0,0,1,7.91,0h.94a4.92,4.92,0,0,0-9.8,0Z"/><path class="cls-1" d="M19.12,5.2H17.58l0-.26a3.69,3.69,0,0,0-7.32,0l0,.26H8.67l0-.33a5.22,5.22,0,0,1,10.39,0Zm-1-.59h.35a4.62,4.62,0,0,0-9.12,0h.35a4.28,4.28,0,0,1,8.42,0Z"/><path class="cls-1" d="M19,5.06H17.71l0-.14a3.83,3.83,0,0,0-7.6,0l0,.14H8.82l0-.17a5.08,5.08,0,0,1,10.11,0Zm-1-.31h.63a4.76,4.76,0,0,0-9.45,0H9.8a4.14,4.14,0,0,1,8.18,0Z"/><path class="cls-1" d="M19.29,5.36H17.44l0-.4a3.53,3.53,0,0,0-7,0l0,.4H8.5l0-.5a5.37,5.37,0,0,1,10.7,0Zm-1.06-.91h0a4.47,4.47,0,0,0-8.74,0h0a4.44,4.44,0,0,1,8.68,0Z"/></g></g></svg>