<svg xmlns="http://www.w3.org/2000/svg" viewBox="0 0 31 31"><defs><style>.cls-1{fill:none;stroke:#a0a0a0;stroke-miterlimit:10;}.cls-2{fill:#a0a0a0;}</style></defs><title>question</title><g id="图层_2" data-name="图层 2"><g id="图层_1-2" data-name="图层 1"><circle class="cls-1" cx="15.5" cy="15.5" r="15"/><path class="cls-2" d="M21,5a6.1,6.1,0,0,1,1.73,4.59,6.16,6.16,0,0,1-1.29,3.74,23.79,23.79,0,0,1-2.55,2.58A10,10,0,0,0,17,18a4.82,4.82,0,0,0-.78,2.75V22H14.9V20.77a5.24,5.24,0,0,1,.58-2.48,10.82,10.82,0,0,1,2.79-3.43,25.74,25.74,0,0,0,2.07-2.14,5,5,0,0,0,1.09-3,5.37,5.37,0,0,0-1.36-3.81A5.53,5.53,0,0,0,16,4.42a5.24,5.24,0,0,0-4.49,2A7.6,7.6,0,0,0,10.07,11H8.78a8.19,8.19,0,0,1,1.73-5.41A6.57,6.57,0,0,1,16,3.19,6.84,6.84,0,0,1,21,5Zm-4.45,20.6a1.18,1.18,0,0,1,.41,1,1.28,1.28,0,0,1-.41,1,1.34,1.34,0,0,1-1,.41,1.31,1.31,0,0,1-1-.41,1.28,1.28,0,0,1-.41-1,1.18,1.18,0,0,1,.41-1,1.31,1.31,0,0,1,1-.41A1.34,1.34,0,0,1,16.57,25.63Z"/></g></g></svg>