<svg xmlns="http://www.w3.org/2000/svg" viewBox="0 0 182.95 52.23"><defs><style>.cls-1{font-size:23.69px;fill:#3c3735;}.cls-1,.cls-2{font-family:PingFangSC-Medium-GBpc-EUC-H, PingFang SC;}.cls-2{font-size:18.95px;fill:#6d6d6d;}.cls-3{fill:#00c800;}</style></defs><title>wechat</title><g id="图层_2" data-name="图层 2"><g id="图层_1-2" data-name="图层 1"><text class="cls-1" transform="translate(68.17 20.37)">微信支付</text><text class="cls-2" transform="translate(69.26 47.83)">微信安全支付</text><path class="cls-3" d="M20,32.45a1.82,1.82,0,0,1-2.42-.74l-.12-.26-5-11a1,1,0,0,1-.09-.39.91.91,0,0,1,1.46-.73l5.89,4.2a2.72,2.72,0,0,0,2.44.28L49.84,11.51c-5-5.86-13.15-9.68-22.41-9.68C12.28,1.83,0,12.06,0,24.69,0,31.58,3.7,37.78,9.48,42a1.83,1.83,0,0,1,.77,1.49,2.17,2.17,0,0,1-.1.58L8.91,48.65a2.69,2.69,0,0,0-.15.67.91.91,0,0,0,.91.91,1,1,0,0,0,.53-.17l6-3.47a2.88,2.88,0,0,1,1.46-.42,2.75,2.75,0,0,1,.81.12,32.45,32.45,0,0,0,9,1.25c15.15,0,27.43-10.24,27.43-22.86A19.79,19.79,0,0,0,51.74,14.1L20.16,32.33Z"/></g></g></svg>