<svg xmlns="http://www.w3.org/2000/svg" viewBox="0 0 83.86 78.32"><defs><style>.cls-1{fill:#fff;}</style></defs><title>资源 5</title><g id="图层_2" data-name="图层 2"><g id="图层_1-2" data-name="图层 1"><path class="cls-1" d="M4.91,65.65H0A12.51,12.51,0,0,0,12.51,78.17V73.25A7.61,7.61,0,0,1,4.91,65.65Zm0-26.94H0V48.77H4.91ZM0,21.82H4.92a7.61,7.61,0,0,1,7.6-7.6V9.3A12.51,12.51,0,0,0,0,21.82ZM4.91,52.12H0V62.18H4.91Zm0-26.54H0V35.64H4.92ZM69.16,30Q67,32.79,64.8,35.64h4.36ZM52.74,13.5V9.3H42.68v4.91H51.9ZM16.15,78.32H26.2V73.41H16.15Zm48.1-16.15h4.91V52.12H64.25ZM56.51,73.25v4.92A12.51,12.51,0,0,0,69,65.65H64.11A7.61,7.61,0,0,1,56.51,73.25Zm7.74-34.53V48.77h4.91V38.72Zm-48.1-24.5H26.2V9.3H16.15Zm13.41,0H39.61V9.3H29.55Zm0,64.11H39.61V73.41H29.55Zm13.13,0H52.74V73.41H42.68Z"/><path class="cls-1" d="M81.91,0A203.13,203.13,0,0,0,34.63,40.9L16.23,26.49,8.1,33,39.9,65.37c5.47-14,22.8-41.41,44-60.88Z"/></g></g></svg>