<svg xmlns="http://www.w3.org/2000/svg" viewBox="0 0 31.75 34.02"><defs><style>.cls-1{fill:#727071;fill-rule:evenodd;}</style></defs><title>资源 6</title><g id="图层_2" data-name="图层 2"><g id="图层_1-2" data-name="图层 1"><path class="cls-1" d="M15.83,29l-.76-1.26a38,38,0,0,0-4.44-5.5c-3.06-3.35-6.22-6.82-6.22-10.89a11.39,11.39,0,1,1,22.78,0c0,4-3.17,7.47-6.24,10.84a32.27,32.27,0,0,0-4.4,5.52L15.83,29Zm0-27.33a9.69,9.69,0,0,0-9.68,9.68c0,3.4,2.8,6.48,5.77,9.73a50,50,0,0,1,3.89,4.63,44.49,44.49,0,0,1,3.9-4.68c2.85-3.12,5.8-6.35,5.8-9.68A9.69,9.69,0,0,0,15.8,1.71Z"/><path class="cls-1" d="M15.8,16.8a5.41,5.41,0,1,1,5.41-5.41A5.42,5.42,0,0,1,15.8,16.8Zm0-9.11a3.7,3.7,0,1,0,3.7,3.7,3.7,3.7,0,0,0-3.7-3.7Z"/><path class="cls-1" d="M30.89,34H.85a.85.85,0,0,1-.63-1.43l7.67-8.4a.85.85,0,1,1,1.26,1.15l-6.36,7H28.87l-6.75-7a.85.85,0,0,1,1.23-1.19l8.16,8.4A.85.85,0,0,1,30.89,34Z"/></g></g></svg>