<svg xmlns="http://www.w3.org/2000/svg" viewBox="0 0 32.14 33.9"><defs><style>.cls-1{fill:#ea2134;}</style></defs><title>资源 1</title><g id="图层_2" data-name="图层 2"><g id="图层_1-2" data-name="图层 1"><path class="cls-1" d="M14.62.6.27,14.94a.93.93,0,0,0,.65,1.58h0a.93.93,0,0,1,.93.93V33a.93.93,0,0,0,.93.93h7.63a.93.93,0,0,0,.93-.93V20.61a.93.93,0,0,1,.93-.93h7.63a.93.93,0,0,1,.93.93V33a.93.93,0,0,0,.93.93h7.63a.93.93,0,0,0,.93-.93V17.45a.93.93,0,0,1,.93-.93h0a.93.93,0,0,0,.65-1.58L17.52.6A2.06,2.06,0,0,0,14.62.6Z"/></g></g></svg>