<svg xmlns="http://www.w3.org/2000/svg" viewBox="0 0 39.72 35.25"><defs><style>.cls-1{fill:#666;fill-rule:evenodd;}</style></defs><title>资源 2</title><g id="图层_2" data-name="图层 2"><g id="图层_1-2" data-name="图层 1"><path class="cls-1" d="M14.16,29.86a2.7,2.7,0,1,0,2.75,2.7A2.72,2.72,0,0,0,14.16,29.86Zm0,3.81a1.11,1.11,0,1,1,1.13-1.11A1.13,1.13,0,0,1,14.16,33.67Z"/><path class="cls-1" d="M33.17,29.86a2.7,2.7,0,1,0,2.75,2.7A2.72,2.72,0,0,0,33.17,29.86Zm0,3.81a1.11,1.11,0,1,1,1.13-1.11A1.13,1.13,0,0,1,33.17,33.67Z"/><path class="cls-1" d="M36.93,27.71a.79.79,0,1,0,0-1.58H12.87L7.17,9H38l-2.19,9.68-18.3,1.81a.8.8,0,0,0-.54.29.78.78,0,0,0-.18.58.8.8,0,0,0,.88.71l18.86-1.86.11.28,0-.29.21.24-.1-.27.1,0,.09-.05.19-.18.28.11-.24-.17,0-.07a.83.83,0,0,0,.07-.18L39.7,9a.77.77,0,0,0,0-.36l0-.07,0-.07a.78.78,0,0,0,0-.19.8.8,0,0,0-.81-.79H6.64L4.32.54A.82.82,0,0,0,3.53,0H.81A.8.8,0,0,0,0,.79a.8.8,0,0,0,.81.79H3L11.54,27.2a.8.8,0,0,0,1,.52Z"/></g></g></svg>