<svg xmlns="http://www.w3.org/2000/svg" viewBox="0 0 709.23 556.85"><defs><style>.cls-1,.cls-2{fill:#db2a34;}.cls-1{fill-rule:evenodd;}</style></defs><title>addToCart</title><g id="图层_2" data-name="图层 2"><g id="图层_1-2" data-name="图层 1"><path class="cls-1" d="M223.77,471.69c-23.93,0-43.38,19.1-43.38,42.58s19.46,42.58,43.38,42.58,43.37-19.1,43.37-42.58S247.68,471.69,223.77,471.69Z"/><path class="cls-1" d="M524.06,471.69c-23.91,0-43.37,19.1-43.37,42.58s19.46,42.58,43.37,42.58,43.37-19.1,43.37-42.58S548,471.69,524.06,471.69Z"/><path class="cls-1" d="M604.22,321.24a174.85,174.85,0,0,1-173.44-196.4H114.07a21.46,21.46,0,0,0-6.88,1.14l-2.33-8.06L68.3,8.6A12.92,12.92,0,0,0,55.78,0H12.72A12.63,12.63,0,0,0,0,12.5,12.63,12.63,0,0,0,12.72,25H47L182.26,429.64a12.63,12.63,0,0,0,15.21,8.21l-.28-1a21.4,21.4,0,0,0,9.29,2.13h382A21.53,21.53,0,0,0,610,417.5l6.59-96.7C612.52,321.09,608.39,321.24,604.22,321.24Z"/><path class="cls-2" d="M586,41.88A123.27,123.27,0,1,0,709.23,165.15,123.27,123.27,0,0,0,586,41.88Zm-64.59,140V148.53h45.69v-45.7h33.38v45.7h45.63V181.9H600.43v45.63H567.06V181.9Zm0,0"/></g></g></svg>