<svg xmlns="http://www.w3.org/2000/svg" viewBox="0 0 143.5 57"><defs><style>.cls-1{fill:#ea2134;stroke:#ea2134;stroke-miterlimit:10;}.cls-2{fill:#fff;}</style></defs><title>buy</title><g id="图层_2" data-name="图层 2"><g id="图层_1-2" data-name="图层 1"><rect class="cls-1" x="0.5" y="0.5" width="142.5" height="56"/><rect class="cls-2" x="13.8" y="31.33" width="15.14" height="2.23"/><path class="cls-2" d="M15.67,19.57V17.33H31l-1.18,9.12h4.68c-.26,5.62-.74,9-1.42,10.13s-2.11,1.7-4.27,1.7c-.77,0-1.68,0-2.74-.1L25.46,36a28.24,28.24,0,0,0,3.34.22,2.58,2.58,0,0,0,2.35-1c.38-.65.7-2.83.89-6.53H16.92l1.61-7.92,2.33.19-1,5.5h7.51l1-6.89Z"/><polygon class="cls-2" points="48.16 16.54 48.16 23.77 57.05 23.77 57.05 25.98 48.16 25.98 48.16 35.63 58.9 35.63 58.9 37.83 37.39 37.83 37.39 35.63 45.81 35.63 45.81 16.54 48.16 16.54"/><path class="cls-2" d="M67,21v7.87a16.08,16.08,0,0,1-1.2,6.43,7.52,7.52,0,0,1-3.53,3.48l-1.2-1.9a6.57,6.57,0,0,0,3.14-3,14.9,14.9,0,0,0,.91-5V21Z"/><path class="cls-2" d="M70.37,23.67a18.28,18.28,0,0,0,2.9-7.2l2.21.29a23.58,23.58,0,0,1-.77,3h7.73q0,12.74-.36,15.7a3,3,0,0,1-3.29,3c-.67,0-1.82,0-3.48-.1l-.53-2c1.39.07,2.62.12,3.67.12.84,0,1.34-.6,1.49-1.8s.22-5.45.26-12.65H73.85a20.07,20.07,0,0,1-2.38,3.86l-1.1-1.42v8.18h-2V19.45H63.88v13.2h-2V17.36h8.52Z"/><path class="cls-2" d="M71.4,36.94l-1.66,1.61a22.54,22.54,0,0,0-3.12-3.89l1.44-1.42A30.6,30.6,0,0,1,71.4,36.94Z"/><path class="cls-2" d="M79.63,33.32l-1.85.94c-.14-.58-.31-1.13-.46-1.66a56.41,56.41,0,0,1-5.93.91l-.36-2c.77-.38,1.85-3,3.22-7.75l2.06.7a57.89,57.89,0,0,1-2.76,6.87,25.6,25.6,0,0,0,3.22-.55c-.31-1-.62-1.94-1-2.81l1.73-.84C78.26,29,79,31.09,79.63,33.32Z"/><path class="cls-2" d="M98.61,21V26.1a18,18,0,0,1-.41,3.19h8.67V31.5H97.46c-.14.31-.31.6-.46.89a75.87,75.87,0,0,1,9.38,4.7l-1.56,1.75a77,77,0,0,0-9-4.8,1.31,1.31,0,0,1-.14.19c-1.75,1.9-4.61,3.36-8.54,4.39l-1.3-2c4-1,6.72-2.33,8.16-3.91a9.78,9.78,0,0,0,.84-1.2h-9.1V29.29H95.83a14.53,14.53,0,0,0,.55-3.19V21Z"/><path class="cls-2" d="M105.17,17.79v1.42a34.58,34.58,0,0,1-1.37,4.22l-2.14-.6a17.35,17.35,0,0,0,1.18-2.93H86.61V17.79Z"/><path class="cls-2" d="M92.92,26.65l-1.18,1.8a21,21,0,0,0-4.87-2.81L88,24A25.63,25.63,0,0,1,92.92,26.65Z"/><path class="cls-2" d="M95.21,23.29,94,25.09a22.66,22.66,0,0,0-5-2.74l1.08-1.58A26.48,26.48,0,0,1,95.21,23.29Z"/><path class="cls-2" d="M119.93,42.43a1,1,0,0,1-.71-1.71L131.45,28.5,119.23,16.27a1,1,0,0,1,1.41-1.41L134.28,28.5,120.64,42.14A1,1,0,0,1,119.93,42.43Z"/></g></g></svg>