<svg xmlns="http://www.w3.org/2000/svg" viewBox="0 0 34.01 30.13"><defs><style>.cls-1,.cls-2{fill:#666;}.cls-2{fill-rule:evenodd;}</style></defs><title>cart_unselected</title><g id="图层_2" data-name="图层 2"><g id="图层_1-2" data-name="图层 1"><ellipse class="cls-1" cx="12.11" cy="27.83" rx="2.35" ry="2.3"/><ellipse class="cls-1" cx="28.36" cy="27.83" rx="2.35" ry="2.3"/><path class="cls-2" d="M32.84,6.76H6.17a1.14,1.14,0,0,0-.37.07l-.13-.45L3.7.47A.7.7,0,0,0,3,0H.69A.68.68,0,0,0,0,.68a.68.68,0,0,0,.69.68H2.54l7.32,21.9a.68.68,0,0,0,.82.44l0-.06a1.14,1.14,0,0,0,.51.13H31.84A1.16,1.16,0,0,0,33,22.59L34,7.92A1.16,1.16,0,0,0,32.84,6.76Z"/></g></g></svg>