<svg xmlns="http://www.w3.org/2000/svg" viewBox="0 0 98.5 45.5"><defs><style>.cls-1{fill:#ea2134;}.cls-2{fill:none;stroke:#ea2134;stroke-miterlimit:10;stroke-width:1.5px;}</style></defs><title>coupon_icon</title><g id="图层_2" data-name="图层 2"><g id="图层_1-2" data-name="图层 1"><path class="cls-1" d="M8.73,22.93l-.55-1.87A28.86,28.86,0,0,0,14.3,10.37l1.69.78a31.88,31.88,0,0,1-2.37,5.36V34.14H11.75V19.37A32.67,32.67,0,0,1,8.73,22.93Zm12.12-6.29c0-.52.05-1,.05-1.56V10.37h1.79v4.71c0,.52,0,1-.05,1.56h8.74v1.82H26V31.23c0,.52.23.78.75.78H29a.9.9,0,0,0,.73-.44,13.58,13.58,0,0,0,.47-4.16l1.69.55c-.18,2.76-.47,4.45-.83,5a2,2,0,0,1-1.59.75H26.23c-1.38,0-2.05-.73-2.05-2.16V18.46H22.54C22,25.4,19.78,30.6,16,34.06l-1.38-1.2c3.48-3.17,5.51-8,6.08-14.4H15.49V16.64Zm9.33-2.39-1.27,1.27a23.74,23.74,0,0,0-4-3.51l1.22-1.17A26.65,26.65,0,0,1,30.18,14.25Z"/><path class="cls-1" d="M40.84,27.53a18.59,18.59,0,0,1-2.65,5.69l-1.56-1a15.58,15.58,0,0,0,2.52-5ZM47.39,12V10.24h1.87V12H59.85V13.6H49.27v1.48h8.24v7.54H56.29A32,32,0,0,1,59.8,26l-1.38,1A20.26,20.26,0,0,0,57,25.32c-4.42.31-10.87.6-19.29.81l-.23-1.66c3.64-.05,6.94-.1,10-.18V22.62H39.15V15.08h8.24V13.6H36.81V12Zm0,6.21V16.51H40.95V18.2Zm0,1.27H40.95v1.74h6.45ZM45,33.72c-1.53,0-2.29-.73-2.29-2.18V27h1.82v4.16q0,.86,1,.86h6a1.32,1.32,0,0,0,1-.36,5.21,5.21,0,0,0,.55-2.5l1.72.55c-.18,1.92-.52,3.07-1,3.48a2.94,2.94,0,0,1-2,.55Zm6.34-4.08-1.4,1a26.07,26.07,0,0,0-3.07-3.3l1.4-.86A27.88,27.88,0,0,1,51.37,29.64ZM49.27,18.2h6.45V16.51H49.27Zm6.45,1.27H49.27v1.74h6.45ZM54.57,23l.65-.39h-6v1.61L55.64,24C55.27,23.66,54.93,23.32,54.57,23Zm5.56,8.74-1.48,1a41.49,41.49,0,0,0-3.9-5.17l1.4-.91A42.25,42.25,0,0,1,60.13,31.75Z"/><path class="cls-1" d="M69.73,25.92v-1.4a24.7,24.7,0,0,1-4.26,2.63l-1-1.59a19.14,19.14,0,0,0,6.84-4.84h-6V19h7.36a20.4,20.4,0,0,0,1.56-2.86H66.66V14.48h8.16A29.13,29.13,0,0,0,75.89,10l1.85.23a31.2,31.2,0,0,1-1,4.21H82l-1.33-.75a13.92,13.92,0,0,0,2.05-3.61l1.56.57a15,15,0,0,1-2.21,3.8h4.08v1.66H76.1A22.65,22.65,0,0,1,74.67,19H87.59v1.72H81.9a16.83,16.83,0,0,0,6.5,4.78L87.2,27a28.66,28.66,0,0,1-3.87-2.63c-.08,2.29-.21,4.16-.39,5.59a6.09,6.09,0,0,1-1.07,3,3.24,3.24,0,0,1-2.34.91H75.66l-.49-1.74c1.22.05,2.37.08,3.46.08a2.17,2.17,0,0,0,2.18-1.17,17.22,17.22,0,0,0,.7-5.2H75.14A13.06,13.06,0,0,1,73,30.6a15.08,15.08,0,0,1-5,3.56l-1.17-1.48a14.49,14.49,0,0,0,4.6-2.94,9.88,9.88,0,0,0,2-3.82Zm2.55-12.17-1.51.7a24.21,24.21,0,0,0-2-3.67l1.61-.52A20.36,20.36,0,0,1,72.28,13.75ZM70.14,24.21H83.09A14.49,14.49,0,0,1,80,20.72H73.5A20.31,20.31,0,0,1,70.14,24.21Z"/><path class="cls-2" d="M79.72.75a5.5,5.5,0,0,1-10.95,0H.75v44h68c0-.16,0-.33,0-.5a5.5,5.5,0,0,1,11,0c0,.17,0,.34,0,.5h18V.75Z"/></g></g></svg>