<svg xmlns="http://www.w3.org/2000/svg" viewBox="0 0 27.47 28.98"><defs><style>.cls-1{fill:#666;}</style></defs><title>home_unselected</title><g id="图层_2" data-name="图层 2"><g id="图层_1-2" data-name="图层 1"><path class="cls-1" d="M12.49.51.23,12.77a.79.79,0,0,0,.56,1.35h0a.79.79,0,0,1,.79.79V28.19a.79.79,0,0,0,.79.79H8.89a.79.79,0,0,0,.79-.79V17.62a.79.79,0,0,1,.79-.79H17a.79.79,0,0,1,.79.79V28.19a.79.79,0,0,0,.79.79H25.1a.79.79,0,0,0,.79-.79V14.92a.79.79,0,0,1,.79-.79h0a.79.79,0,0,0,.56-1.35L15,.51A1.76,1.76,0,0,0,12.49.51Z"/></g></g></svg>