<svg xmlns="http://www.w3.org/2000/svg" viewBox="0 0 640 600"><defs><style>.cls-1{fill:#efefef;}.cls-2{fill:#fff;}.cls-3{fill:#666;}.cls-4{fill:none;stroke:#666;stroke-linecap:round;stroke-linejoin:round;stroke-width:0;}</style></defs><title>project_end_1</title><g id="图层_2" data-name="图层 2"><g id="图层_1-2" data-name="图层 1"><rect class="cls-1" width="640" height="600"/><path class="cls-2" d="M246.64,459.9c-2.39-1.73-6.48-6.68-5.71-7.09a.75.75,0,0,1-1,0,20.25,20.25,0,0,1-2.73-2.76c.51-.24-1.84-3.38-3.1-5.53.72,2,2.08,4.47,5.38,9.11a15.89,15.89,0,0,1,1.56,1.55c.56.58,1.13,1.22,1.72,1.91s1.16,1.44,1.79,2.17l1.91,2.23,1,1.12,1,1.05c.66.69,1.32,1.35,2,2a17.91,17.91,0,0,0,3.7,2.7C251.62,465.73,249.72,462.84,246.64,459.9Z"/><path class="cls-2" d="M236.46,439.54l-.63-.48c.38.61.74,1.22,1.13,1.82l1.21,1.77,1.21,1.76c.42.58.86,1.14,1.29,1.7-.3-.32-.74-.85-1.23-1.48s-1-1.39-1.43-2.1-.89-1.4-1.18-1.94S236.4,439.65,236.46,439.54Z"/><path class="cls-3" d="M226,414c.73.63.26-3.71.82-3.72-1.27.38-1.28-6.68-1.63-10.38l-1-1.46c-.07.46-.11,1-.15,1.63s0,1.32,0,2.07.08,1.57.14,2.43.21,1.76.32,2.69A101,101,0,0,0,226.88,419C226.56,417.36,226.26,415.69,226,414Z"/><path class="cls-2" d="M225.46,407c-.3-.79-.64-1.58-.91-2.38C225,406.63,225.72,411.33,225.46,407Z"/><path class="cls-2" d="M223.11,412.78c1.13,6.19-.35-3.79,1.09,2.37C223.59,413.11,223.13,410.7,223.11,412.78Z"/><path class="cls-3" d="M223.49,386.68a101.85,101.85,0,0,0,.29,13.11l.1-2.71,0-1.35.12-1.35c-.12-1.27-.29-2.55-.36-3.84Z"/><path class="cls-3" d="M225.54,386.14c-.16,1.67-.62,4.31-.81,1.87.23-1.15.42-2.18.55-3.16s.17-1.91.24-2.82.19-1.82.34-2.75a13.77,13.77,0,0,1,.74-2.92c-.2,1.36-.28,2.73-.39,4.09.45-.21.5-2.36.84-4.37a21.41,21.41,0,0,1,.51-2.7c.24-.69.51-1.1.83-1,.22-2.79-.32-1.86-.79-1.1s-.84,1.34-.26-2.28c-.35,1.68-.77,3.23-1.09,4.73l-.92,4.32-.79,4.14-.64,4.2c.47-1.64.47-2.33,1-4.63a98.35,98.35,0,0,0-.28,14.36,14.39,14.39,0,0,0,.46-4.5A29.13,29.13,0,0,1,225.54,386.14Z"/><path class="cls-3" d="M229.79,366.13c1.36-4.15,4-10.31,3.63-11.78a11.82,11.82,0,0,0-2,4.27,28.42,28.42,0,0,0-.36,2.88c-.31.6-.85,1.92-1.3,2.86s-.76,1.53-.76.59C229.35,364.41,228.83,367.9,229.79,366.13Z"/><path class="cls-3" d="M236.61,350.48c.23-1.08.44-2.18.74-3.24-.31.61-.61,1.23-.88,1.87l-.69-.11a8.48,8.48,0,0,1-.12,1.8,12.46,12.46,0,0,1-.51,1.84,18.08,18.08,0,0,1-1.05,2.56,8.19,8.19,0,0,0,1.29-2.33A11.79,11.79,0,0,1,236.61,350.48Z"/><path class="cls-3" d="M233.11,347.36a30.42,30.42,0,0,0,2.23-3.39l.94-1.78,1.16-2.09c-1.37,2.06-2.88,4.65-4.1,6.9a26.52,26.52,0,0,0-2.2,5l0-.42-.88,2.6a48.8,48.8,0,0,0-1.28,5.05,38.88,38.88,0,0,1,1.41-4l1.84-4C233.45,348.83,234.19,347.11,233.11,347.36Z"/><path class="cls-3" d="M230.18,353c.37-1.16.67-2.35,1.11-3.49C230.85,350.61,230.55,351.81,230.18,353Z"/><path class="cls-3" d="M243.63,339c-1.44,1.71-2.72,3.52-4,5.33l1.14-1.21,1.4-2.09Z"/><path class="cls-3" d="M236.79,344.13c1.5-2.31,1-1.75.37-1.2-.3.28-.59.58-.65.53s.11-.47.85-1.55a15.22,15.22,0,0,0-1.74,2.87,16.28,16.28,0,0,0-1.95,4.32c.41-.55.86-1.81,1.47-2.88S236.32,344.18,236.79,344.13Z"/><path class="cls-3" d="M246.36,335.6c.95-1.59,2-3.1,3.08-4.62C248.37,332.51,247.31,334,246.36,335.6Z"/><path class="cls-3" d="M256.08,326l.47-1.09c2.12-1.61,4.48-3.64,6.87-5.35a31.73,31.73,0,0,1,3.51-2.29c.56-.32,1.11-.61,1.63-.86a12.48,12.48,0,0,1,1.53-.54c-1.09,0,1.23-2.26-2.85.09-.43.68-1.83,1.61-1.38,1.78-1.73,1-1.64.43-2.81,1.09-2.51,2.41-6.82,5.59-8.5,7.85a13.75,13.75,0,0,1,2-1.75,17.56,17.56,0,0,1-2.51,2.55,18.22,18.22,0,0,1-1.88,1.46c-1.09.76-1.87,1.28-2.19,2.73a11.36,11.36,0,0,1,2.77-2.78l1.75-1.43A14.75,14.75,0,0,0,256.08,326Z"/><path class="cls-3" d="M253.45,323.83c-.61.53-1.24,1-1.84,1.58l-1.77,1.66a9.92,9.92,0,0,1,2.35-2.79c1-.94,2-1.82,2.09-2.31-.47-.1-4.2,3.07-3.06,1.67.6,1.49-4.66,4.79-1.66,4.19-1.08,1.13-1.67,1.82-2.12,2.18a3.15,3.15,0,0,1-1,.6c-.53.23-1.16.44-3.21,3.07l-.54,2c1.08-1.49,2-2.64,2.78-3.62s1.6-1.72,2.35-2.49,1.53-1.52,2.42-2.41S252.15,325.13,253.45,323.83Z"/><path class="cls-3" d="M268.47,312.83l2.26-.77-1.45,0q.86-.53,1.69-1t1.69-.82c1.11-.5,2.16-1,3.21-1.35a47.65,47.65,0,0,1,5.87-1.64c1.83-.39,3.52-.75,5.15-1.06.81-.17,1.59-.36,2.35-.59s1.53-.42,2.27-.71c.92-.39,1.83-.77,2.76-1.08s1.88-.53,2.82-.76l1.41-.33c.47-.09,1-.16,1.43-.24l2.86-.4c3.84-.38,7.69-.53,11.71-.73,3.91-.78-3.79-.25-4.23-.48.52-.65,1.5-.61,2.56-.46a4.84,4.84,0,0,0,3.12-.22c.25-.43-1.85-.65-4.47-.66l-4.08.09c-1.33.09-2.56.15-3.46.14a9.46,9.46,0,0,0-2.71.77,5.62,5.62,0,0,0-1.05.8,7.41,7.41,0,0,0-2.41-.09,8.71,8.71,0,0,1-2.42,0c-1.54.52-2.88,1-4.15,1.35s-2.47.62-3.64,1-2.36.66-3.59,1.12a34.51,34.51,0,0,0-3.89,1.85c-2.1.14,4.36-1.93,2.37-1.22-1.06.45-2.15.87-3.2,1.35l.38-.06a34.89,34.89,0,0,1-3.61,2c-1.36.68-2.78,1.46-4.2,2.13L265,314.25a7.5,7.5,0,0,1,2.42-1c.42,0,.25.26-.86,1.13l-2.34.63c-1.5,1.4-2.85,3-4.23,4.46a20.17,20.17,0,0,1,2.66-2.27c.92-.69,1.92-1.21,2.78-1.74C267.11,314.43,268.45,313.67,268.47,312.83Z"/><path class="cls-3" d="M262.06,315.34c-3.05,2-2.7,2.12-2.42,2.28s.27.17-.06.53a8.26,8.26,0,0,1-.87.76c-.42.36-1,.82-1.8,1.42l1.6-1.35c.53-.45,1.1-.85,1.65-1.28,1.12-.83,2.2-1.73,3.37-2.49Z"/><path class="cls-2" d="M294,302.47l3.56-.31c-1.05-.3-2.86.22-3.93.61S292.25,303.43,294,302.47Z"/><path class="cls-2" d="M306.85,300l-1.72,1.25c1.07-.32,2.13-.71,3.21-1C307.85,300.16,307.35,300.07,306.85,300Z"/><path class="cls-3" d="M318.74,300.53c1.31-.24,1.19-.47.35-.64a15.11,15.11,0,0,0-3.93-.12c.69,0,1.3,0,1.81,0a9.22,9.22,0,0,1,1.25.21C318.85,300.17,319,300.37,318.74,300.53Z"/><path class="cls-2" d="M337.57,304.51c-2.84-.59-1.59-.26-.17.21s3,1.15.87,1.11c.42-.15,1.36-.14,1.64-.3s.12-.18-.22-.35a6.51,6.51,0,0,0-.76-.31C338.59,304.77,338.14,304.65,337.57,304.51Z"/><path class="cls-3" d="M354.46,312.46c-2-.61-2.66-1.09-2.83-1.43A15.48,15.48,0,0,1,354.46,312.46Z"/><path class="cls-3" d="M284.6,308.09c-.62.26-1.29.53-1.91.75Z"/><path class="cls-3" d="M285.86,307.62c-.42.13-.84.31-1.26.47A12.21,12.21,0,0,1,285.86,307.62Z"/><path class="cls-3" d="M328.33,304.46h0l-.43-.14Z"/><path class="cls-3" d="M230,423.68c.43,1.06.74,1.89,1,2.56l-1-2.53A.14.14,0,0,1,230,423.68Z"/><path class="cls-3" d="M229.75,427.14a11.17,11.17,0,0,1-1.31-5.29,22.33,22.33,0,0,0-.34-3,32.24,32.24,0,0,0-1.06-4.55c.45,1.52.86,3.09,1.35,4.66s1,3.17,1.61,4.75C230.56,428.28,228.33,420.57,229.75,427.14Z"/><path class="cls-3" d="M228.38,361.89l.07-.27C228.58,361.15,228.52,361.4,228.38,361.89Z"/><path class="cls-2" d="M400,439.58l-.22-.17c.77-1.22,1.59-2.42,2.31-3.67C401.44,437,400.68,438.29,400,439.58Z"/><path class="cls-2" d="M399.27,439.86c-1.39,2-2.75,4-4.28,5.93a92.79,92.79,0,0,0,14.81-40c.08.48.14,1,.19,1.44.07-.07,0,.44-.08,1.37s-.28,2.29-.64,3.91l-.54,2.63L408,418l-.4,1.54-.49,1.55c-.34,1-.64,2.11-1,3.16a104.2,104.2,0,0,1-4.66,11.14C400,438.28,399,440.08,399.27,439.86Z"/><path class="cls-2" d="M398.58,441.88a11.53,11.53,0,0,1-1.17,2.77,26.25,26.25,0,0,1-1.64,2.27l-.89,1.14c-.32.38-.64.77-1,1.2a25.9,25.9,0,0,0-1.91,3c.86-1.53,1.48-2.91,2.21-4.18a23.12,23.12,0,0,1,2.45-3.85C397.33,443.42,397.94,442.65,398.58,441.88Z"/><path class="cls-4" d="M391.95,455.15c-.42.42-.82.91-1.21,1.39s-.8,1-1.16,1.42a16.77,16.77,0,0,1-1.9,2.19c0-.6.68-1.48,1.59-2.38.46-.45,1-.91,1.44-1.35S391.6,455.53,391.95,455.15Z"/><path class="cls-3" d="M390.15,462.26c-.26.29-.52.55-.8.82.28-.36.53-.69.7-.95Z"/><path class="cls-3" d="M390.06,462.13l-.24-.32C390.46,461.32,390.41,461.57,390.06,462.13Z"/><path class="cls-3" d="M389.35,463.08c-.63.81-1.39,1.76-1.72,2.33l.79-.71a18.7,18.7,0,0,1-3.28,3.4c2.17-1.89,2-2.12,1.69-2.58l-3.46,3.08C383.13,467,386.42,466,389.35,463.08Z"/><path class="cls-4" d="M378.62,473.06c1.15-1.13,2.17-2.39,3.24-3.57.74-.14.29.48-.53,1.28A24.13,24.13,0,0,1,378.62,473.06Z"/><path class="cls-3" d="M372.41,476.42c.4-.4,1.56-1.22,2.31-1.79s1.07-.9-.17-.24a18.21,18.21,0,0,1,2-1.62C374.18,474.75,377.1,473.82,372.41,476.42Z"/><path class="cls-3" d="M376.57,472.78c.28-.24.6-.5,1-.83C377.28,472.25,376.92,472.52,376.57,472.78Z"/><path class="cls-4" d="M404.23,433.53c-.33.46-.41.4-.39.14Z"/><path class="cls-3" d="M363.88,480.52l-1.56.82c.45-.24.85-.47,1.24-.7Z"/><path class="cls-3" d="M401.18,357.88l1.47,4,1.4,4.22c.48,1.47.91,3,1.46,4.7l.74,2.63c.25.91.57,1.85.8,2.86.88-.37.89,3.21,1.93,3.53A96.62,96.62,0,0,1,410.39,392c.09,1,.08,2.1.1,3.14s.07,2,0,3c-.07,1.94-.05,3.71-.18,5.09-.18,2.78-.19,4.09.1,2.37l-.21-2.12.74,2.27c-.76,4.18-2.65,9.62-2.91,12.49a4.46,4.46,0,0,1,.24-1.29l.39-1.64.43-2.19a95,95,0,0,0,1.66-12,92.06,92.06,0,0,0,.07-12,34.53,34.53,0,0,0-.53-4.86c.11-.42.27,0,.47,1.13a42.8,42.8,0,0,1,.64,5.1,83.16,83.16,0,0,1-.48,17.2,96.33,96.33,0,0,1-4,17.67l-1.14,3.31-1,2.58c-.54,1.48-.92,2.37-.94,2.55l-.79.28c-.55,1.55-1,3-1.56,4.28s-.94,2.59-1.48,3.77-1,2.38-1.57,3.54-1.2,2.32-1.89,3.55l-1.33.6c2.53-3.21,2.75-4.42,4.59-8.14a54.62,54.62,0,0,1-4.14,6.38c-.56.77-1.15,1.45-1.75,2.26s-1.24,1.7-2.1,2.77c.42.21,1.27-.62,1.48-.82s-.11.3-2.11,3.15c-.78.65-.64-.09-.78-.37s-.5-.08-2.49,2.26c-5.26,5.22-3.26,5.14-8.1,9.56,1.23-.82,2.35-1.79,3.53-2.68-1.72,1.7-5.05,4.8-7.24,5.78a33.53,33.53,0,0,0,4.34-3.93c1.37-1.56,2.35-3,2-3.23-1.83,2.07-6.72,5.67-8.65,7.05l.77-1.39a11.15,11.15,0,0,0-2.84,1.91,14.55,14.55,0,0,1-3.32,2.1c-1.2,1-.69.92,0,.78s1.45-.45.8.15a35,35,0,0,0-3.46,1.73l-1.22.69-1.2.65a13.74,13.74,0,0,0-1.82,1.19c1,.25,2.55-.64,4.3-1.81.88-.59,1.81-1.22,2.78-1.75a12.5,12.5,0,0,1,2.93-1.32L369,474.2l-2.54,1.38c-1.22,1.52.77.33,2.93-1s4.34-3,3.87-2.07a13.27,13.27,0,0,1-5.6,3.71c-2.06.95-4.11,1.73-5.5,3.49a54.15,54.15,0,0,0,5.93-2.88c2.12-1.09,3.75-2.09,3.42-1.56a17.48,17.48,0,0,0-3.65,2.35c-.58.46-1.17,1-1.88,1.49s-1.49,1-2.42,1.57c-1.61.66-3.28,1.16-4.92,1.7-1.79,1.32-.21.58,1.47.1-3.59,1.33-8.32,3.24-13.56,4.88a62.05,62.05,0,0,1-16.43,3c-6.28.85-.72.69-3.56,1.45a34.43,34.43,0,0,0-6.3,0c-1.15.07-2.3.08-3.39.13a25.67,25.67,0,0,1-3,0c-1-.12-3,.58-2,1,3,0,6-.09,9-.33-.43.45.92,1.14,4.15.88-.58-.35-.08-.54,1-.64.55-.05,1.24-.09,2-.12s1.65,0,2.53-.13c3.55-.19,7.44-.81,7.57-1.75l0,.83c1.88-.45,3.72-1.06,5.57-1.59s3.65-1.24,5.44-1.93h-.36a36.69,36.69,0,0,0,5.26-2c1.46-.69,3.14-1.37,4.76-2.17.81-.39,1.62-.78,2.42-1.14l1.18-.52,1.11-.53a60.62,60.62,0,0,1-5.44,2.83c-1.91.87-2.88,1.42.21.64-4.17,2.34-12.4,4.71-20.84,6.63l1.78.23a61.92,61.92,0,0,1-15.19,2.25,131.82,131.82,0,0,1-16.07-.65c1-.15,2-.26,3.06-.48-1.76-.25-3.74-.75-5.7-1.06a28.34,28.34,0,0,0-5.57-.7c4.23.72,2,.74,1.16,1-1.45-.16-3.06-.46-4.78-.79s-3.52-.86-5.38-1.4-3.77-1.13-5.66-1.86l-2.86-1-2.82-1.08s.42,0,.15-.24c-.66-.24-1.32-.46-2-.71l-1.94-.79c-1.3-.52-2.6-1-3.85-1.66a26,26,0,0,1-6.18-4.77c-1.27-.7-4.25-2.71-3.36-1.58a17.22,17.22,0,0,0,1.7,1.18c-4-1.65-2.33-1.82-6.88-4.55,3.7,1.88-.42-1.54.44-1.84-4.93-3.61-1.24.62-2,.4l-1.86-1.73c-.53-.55-1-1-1.43-1.51-.85-.94-1.58-1.7-2.25-2.53-1.34-1.65-2.75-3.22-5.18-6.06-.31,0,.53,1,1.46,2.15s2,2.29,2.06,2.71a38.24,38.24,0,0,0-3.55-3.58c.95,1.22,1.9,2.44,2.93,3.59a171.41,171.41,0,0,1-14.52-19.14l.16.7L232,443.95c-.46-.77-.85-1.58-1.28-2.37l1.63,1.31a33,33,0,0,1-1.92-3.81,8.69,8.69,0,0,0-1.62-2.84l.4,1c-.59-1.06-1.2-2.11-1.77-3.18.75,1,1.54,2,2.3,3a28.32,28.32,0,0,0-1.63-3.38c-.61-1.21-1.32-2.49-2.08-3.86s-1.42-2.88-2.12-4.47a45.1,45.1,0,0,1-1.74-5.14c.15-.46.48.08.92,1.16.22.54.46,1.21.72,2s.53,1.57.88,2.39l1,2.47.5,1.17.53,1c.7,1.3,1.31,2.22,1.73,2.29-.35-1.18-.9-2.74-1.4-4.19a16.68,16.68,0,0,0-1.4-3.43c-.27.4.31,2.08.9,3.75a39.53,39.53,0,0,1-2-5l-.81-2.76-.39-1.39-.32-1.39-1.2-5.16a23.39,23.39,0,0,0-1.24-3.87c.06,1.65.28,3.29.42,4.95a33.33,33.33,0,0,1-.6-3.9c-.06-1.19-.06-2.27-.06-3.21,0-1.89.06-3.3-.44-4.22l.9,2.18c.31.72.66,1.43,1,2.13-.18-.7-.37-1.43-.51-2.18s-.25-1.53-.37-2.32-.24-1.59-.32-2.4l-.19-2.43c-.05-.81-.14-1.62-.16-2.42l-.07-2.37-.09-2.27c0-.73,0-1.45,0-2.13-.2,0-.33.42-.41,1.14,0,.36-.07.79-.08,1.24s0,.94,0,1.43c.07,1.94.22,3.84.16,3.65-.22-.86-.39-1.73-.59-2.6l.19-2.57.22-1.56c.12-.78.21-1.14.3-1.55s.17-.88.33-1.87l.86-5-.53-.17a15.11,15.11,0,0,0,.77-3.28l.59-3.75c.32-2.28.73-3.65,1-1.82-.33.87-.61,1.76-.91,2.64l.69-.1A101,101,0,0,1,225.24,363c.08,1.23,1.87-4.15,2-2.5.28-1.43.68-2.82,1-4.23.82-.72.29,1.21-.31,3.42s-1.2,4.71-.89,5c.43,0,1-1.92,1.33-2.85-1,5-3.28,7-4.46,12l.07,2.61-.78-.29a14.17,14.17,0,0,0,.24,4.8,15.9,15.9,0,0,0-.89,3.8,27.57,27.57,0,0,0-.22,4.19c0,.74,0,1.49,0,2.27l.11,2.41c0,.83,0,1.68.07,2.56s.07,1.8.08,2.75c-.36-3.14-.51-2.14-.61-.46s0,4-.2,3.49c.08.87.26,2.06.51,3.38l1,4.23c.37,1.44.74,2.85,1,4.1a13,13,0,0,1,.35,3.11c.1,2.08-1.58-4-.61.75.22.77.42,1.47.64,2.05a11.07,11.07,0,0,0,.63,1.35c.36.61.56.58.46-.45a114.77,114.77,0,0,0,8.88,21.13l-1.34-1.35a27.12,27.12,0,0,0,3.49,5.92,34.87,34.87,0,0,0,3.57,3.79c.21.66.57.86-.14.46a19.53,19.53,0,0,0,2.2,3.3,29.72,29.72,0,0,0,2.54,2.45c.9.84,2,1.69,3.2,2.81s2.68,2.46,4.41,4.25c.07-.48-.68-1.51-1.74-2.66a48.38,48.38,0,0,0-3.58-3.55l1.21,0a132.19,132.19,0,0,1-14.61-20.21l2.07,2.5a14.18,14.18,0,0,0-1.23-3,7.67,7.67,0,0,0-1-1.49,6.66,6.66,0,0,1-1-1.45,8.59,8.59,0,0,1-.46-1.19,17.77,17.77,0,0,1-.36-1.78c-1.86-3.71.72,2.95-.81.2-.44-1.41,0-1.37.29-1.56.15-.09.28-.24.25-.65a11.29,11.29,0,0,0-.59-2.21A99.71,99.71,0,0,0,245,451a98.34,98.34,0,0,0,9.91,10.83,93.39,93.39,0,0,0,11.33,8.95c.4.06-.42-.52-1.18-1.15a39.72,39.72,0,0,1,3.8,2.24c1.77,1,4,2.44,6.54,3.81A95.53,95.53,0,0,0,294,483.53a81.9,81.9,0,0,0,19,3.39c1.32.08,2.54.12,3.63.07s2.05-.07,2.86-.13c1.61-.18,2.61-.44,2.81-.73,1,.3-2.09.79,1.93.59.36-.2,1.36-.5.4-.75a54.3,54.3,0,0,0,17-2.25,150.74,150.74,0,0,0,17.65-6.36c-.21-.12.29-.49.79-.92s1.06-.85,1-1a16.84,16.84,0,0,0,3.33-1.39c1.15-.64,2.36-1.38,3.53-2.14s2.27-1.62,3.34-2.34a33.4,33.4,0,0,1,2.87-1.92l-1.28.4a90.9,90.9,0,0,0,9.37-7.93c.07-.19-.18,0-.56.34l-1.27,1.06a10.21,10.21,0,0,1,2-1.75,1.4,1.4,0,0,1,1-.22l1.58-2.28,1.46-2.35a51.77,51.77,0,0,0,4.28-4.45,63.38,63.38,0,0,0,3.87-5.2c1.26-1.81,2.35-3.78,3.48-5.76s2.09-4.08,3-6.23c3.73-8.52,6-17.81,7.77-26.81a31,31,0,0,1-.37-4.22c0-.75-.06-1.57-.05-2.48s.05-1.91,0-3.06c-.07.75-.22,1.49-.33,2.24-.17-2.33-.14-2.39,0-2.37s.31.13.18-1.85c-.46-2.67-1.14-.81-.76,2.8-.41,2.24-.55.83-.69-.77a110.47,110.47,0,0,0-1.33-20.56A134,134,0,0,0,401.18,357.88Z"/><path class="cls-3" d="M391,345.38c-.28-.74.63.48,1.44,1.45s1.42,1.75.78-.07c-2.54-5.48-7.43-11.85-13.35-17.53a108.4,108.4,0,0,0-9.46-7.89c-3.27-2.38-6.51-4.6-9.58-6.52-.78-.58-1.42-1.06-2-1.44s-1.1-.69-1.61-1c-1-.61-2-1.19-3.56-2a.32.32,0,0,0-.08.43c-.91-.38-1.95-.86-3.1-1.25l-3.58-1.26c-1.23-.38-2.47-.77-3.62-1.16s-2.25-.68-3.19-1c-1.13-.13-2.06.25,0,.65-1.47-.27-2.83-.53-4.09-.87-.63-.16-1.23-.35-1.81-.52l-1.7-.47a18.49,18.49,0,0,0-5.79-1.09c2.85.7-2.93.25.49.94-6.21-.45-5.57-2.45-10.64-2.73-.3.18-.6.35.41.37a29.92,29.92,0,0,0-5-.11c-1.85.17-3.81.31-5.59.63l-4.66.68c-1.24.14-2.09.11-2.31-.22-.7.32-1.37.73-2,1.1-2.46.13-2-.45-6,.54-2.48,1,.26.5-.6,1-.63-.16-2.6.45-4.83,1.12-1.12.31-2.26.77-3.37,1.1s-2.14.6-3,.77c-.14-.19.15-.37.71-.57s1.4-.34,2.33-.55,1.95-.47,2.92-.74a8.92,8.92,0,0,0,2.58-1.08c0-.21-.42-.11-1.05.09a65.87,65.87,0,0,1,11.69-2.78,84.54,84.54,0,0,1,10.9-.74c7,0,13.54.58,20.34,1.09a11.28,11.28,0,0,0,3.86.79,10.31,10.31,0,0,0,2.8-.25c-.59-.19-1.46-.49-2.45-.74s-2.09-.48-3.13-.65c-2.08-.34-3.91-.31-4.05.32-1.39-.47-2.8-.79-4.22-1.16-1.64,0-1.55-1.35-2.27-1.57,3.06.25,6.69-.76,2.5-1.5,4.14.16,3.4.85,2.58,1.45-.41.31-.85.62-.73.85s.78.37,2.56.49l1.14-.83c-.71.19.48.52,2.12.87a36.48,36.48,0,0,0,4.89.81l-.91-.37a111.57,111.57,0,0,1,14.75,4.14,100.44,100.44,0,0,1,15.19,6.91,94.68,94.68,0,0,1,25.86,21.23,9.25,9.25,0,0,0,.88,2.07,19.12,19.12,0,0,0,1.31,2.16c.49.73,1.08,1.44,1.63,2.2s1.14,1.52,1.72,2.27,1.16,1.52,1.67,2.3,1,1.53,1.46,2.28a12,12,0,0,1,1.57,4.26c1.37,1.91-.8-3.31,1.52.52,1.08,2,.61,2.41.41,2.39l1,1.77c-.71,1.21-1.93,1.08-3.88-.75a20.92,20.92,0,0,1-1.59-1.7c-.6-.67-1.28-1.43-2-2.32l-1.13-1.42L394,349l-1.39-1.73Z"/><path class="cls-2" d="M254.19,453c-2.18-1.51-5.85-5.93-5.09-6.35-.36.2-.54.31-1,0a17,17,0,0,1-2.5-2.44c.5-.25-1.61-3-2.75-5,.61,1.78,1.83,4,4.77,8.19a12.87,12.87,0,0,1,1.42,1.37c.5.51,1,1.09,1.55,1.7s1,1.29,1.6,1.95l1.7,2,.86,1,.89.94c.59.62,1.18,1.21,1.76,1.76a14.58,14.58,0,0,0,3.35,2.38C258.61,458.24,257,455.6,254.19,453Z"/><path class="cls-2" d="M245.42,434.59l-.59-.41c.34.54.66,1.09,1,1.61l1.09,1.57,1.09,1.56c.37.51.77,1,1.16,1.51-.27-.28-.67-.75-1.11-1.3s-.87-1.23-1.29-1.86-.8-1.24-1.06-1.72S245.36,434.69,245.42,434.59Z"/><path class="cls-3" d="M236,411.89c.72.54.33-3.33.89-3.34-1.26.36-1.17-5.94-1.49-9.23l-1-1.29a15.16,15.16,0,0,0-.14,3.3c0,.67.06,1.4.12,2.17s.18,1.57.28,2.4a90.59,90.59,0,0,0,2.1,10.47C236.49,414.87,236.24,413.38,236,411.89Z"/><path class="cls-2" d="M235.61,405.59c-.29-.7-.61-1.4-.88-2.11C235.11,405.3,235.8,409.48,235.61,405.59Z"/><path class="cls-2" d="M233.16,410.83c1,5.54-.28-3.39,1,2.1C233.64,411.12,233.22,409,233.16,410.83Z"/><path class="cls-3" d="M233.7,387.51a90.85,90.85,0,0,0,.31,11.7l.11-2.42.06-1.2.11-1.2c-.12-1.13-.29-2.28-.36-3.42Z"/><path class="cls-3" d="M235.74,387c-.14,1.48-.59,3.83-.79,1.66.23-1,.4-1.94.52-2.81s.15-1.7.21-2.51.16-1.62.29-2.45a11.38,11.38,0,0,1,.68-2.6c-.17,1.21-.23,2.43-.32,3.65.44-.18.47-2.1.75-3.89a17,17,0,0,1,.45-2.4c.22-.61.48-1,.8-.84.14-2.49-.37-1.68-.81-1s-.8,1.18-.32-2.05c-1.36,6-2.39,10.38-3.09,15.5.44-1.46.44-2.07.92-4.13a87.23,87.23,0,0,0-.19,12.8,11.39,11.39,0,0,0,.46-4A23.66,23.66,0,0,1,235.74,387Z"/><path class="cls-3" d="M239.54,369.24c1.22-3.69,3.54-9.17,3.14-10.53a9.58,9.58,0,0,0-1.84,3.8,24.66,24.66,0,0,0-.25,2.6c-.28.53-.77,1.7-1.19,2.54s-.7,1.36-.73.51C239.05,367.68,238.65,370.8,239.54,369.24Z"/><path class="cls-3" d="M245.63,355.33c.17-1,.33-2,.57-2.93-.27.55-.54,1.1-.77,1.67l-.68-.13a7.23,7.23,0,0,1,0,1.64,9.94,9.94,0,0,1-.41,1.66,14.34,14.34,0,0,1-.92,2.29,6.5,6.5,0,0,0,1.16-2.06A9.45,9.45,0,0,1,245.63,355.33Z"/><path class="cls-3" d="M242.08,352.3a23.35,23.35,0,0,0,2-3c.53-1,1.08-2.09,1.86-3.48-1.22,1.85-2.57,4.16-3.66,6.18a21.92,21.92,0,0,0-1.94,4.45V356s-.34,1-.76,2.34a40.83,40.83,0,0,0-1.07,4.55,31.11,31.11,0,0,1,1.23-3.59l1.64-3.55C242.47,353.67,243.12,352.12,242.08,352.3Z"/><path class="cls-3" d="M239.44,357.31c.31-1,.57-2.12.94-3.15C240,355.19,239.76,356.27,239.44,357.31Z"/><path class="cls-3" d="M251.85,345.09c-1.29,1.51-2.44,3.12-3.63,4.72l1-1.06,1.25-1.86Z"/><path class="cls-3" d="M245.51,349.51c1.34-2.06.87-1.57.3-1.09-.28.24-.54.51-.6.46s.09-.43.75-1.39A12.58,12.58,0,0,0,244.4,350a13.39,13.39,0,0,0-1.7,3.89c.37-.49.77-1.62,1.3-2.58S245.05,349.52,245.51,349.51Z"/><path class="cls-3" d="M254.29,342.08c.82-1.43,1.75-2.79,2.68-4.16C256,339.29,255.11,340.65,254.29,342.08Z"/><path class="cls-3" d="M263,333.55l.38-1c1.9-1.41,4-3.23,6.13-4.75a26.61,26.61,0,0,1,3.13-2c.5-.28,1-.54,1.46-.75a10.07,10.07,0,0,1,1.38-.45c-1-.08,1-2.13-2.62-.05-.36.64-1.61,1.46-1.19,1.65-1.55.89-1.49.33-2.55.91-2.2,2.19-6.07,5-7.53,7a10.89,10.89,0,0,1,1.8-1.56,13.92,13.92,0,0,1-2.22,2.29,14.51,14.51,0,0,1-1.7,1.27c-1,.66-1.7,1.11-1.92,2.45a9.2,9.2,0,0,1,2.47-2.47l1.57-1.25A11.68,11.68,0,0,0,263,333.55Z"/><path class="cls-3" d="M260.39,331.37c-.55.47-1.11.92-1.65,1.4l-1.59,1.47a8.07,8.07,0,0,1,2.07-2.52c.92-.84,1.78-1.63,1.85-2.09-.45-.12-3.8,2.7-2.8,1.42.65,1.45-4.16,4.29-1.35,3.88-1.87,2.07-2.28,2.28-2.79,2.45s-1.08.36-2.91,2.71l-.41,1.8c1-1.33,1.75-2.37,2.47-3.24s1.43-1.53,2.1-2.22,1.37-1.35,2.17-2.15Z"/><path class="cls-3" d="M273.81,321.56l2-.64-1.33,0q.77-.47,1.51-.89t1.51-.72c1-.44,1.94-.86,2.88-1.17a40.19,40.19,0,0,1,5.28-1.37c1.65-.32,3.16-.6,4.62-.85a29.08,29.08,0,0,0,4.13-1.13c.81-.36,1.63-.71,2.45-1s1.67-.48,2.51-.69a40.55,40.55,0,0,1,5.08-.84c3.42-.31,6.86-.41,10.43-.6,3.48-.76-3.38-.26-3.78-.51.45-.64,1.33-.59,2.28-.44a3.87,3.87,0,0,0,2.78-.21c.22-.44-1.65-.65-4-.68l-3.65.05c-1.19.07-2.29.12-3.09.09-2.71.54-2.61.87-3.34,1.5a6.12,6.12,0,0,0-2.16-.14,7.11,7.11,0,0,1-2.18-.06c-1.37.48-2.57.9-3.7,1.22s-2.21.55-3.26.86-2.11.58-3.21,1a27.55,27.55,0,0,0-3.47,1.68c-1.91.06,3.89-1.74,2.1-1.11-1,.41-1.92.78-2.85,1.21l.34,0a27.88,27.88,0,0,1-3.21,1.83c-1.21.61-2.48,1.3-3.76,1.9-2.5,1.27-4.89,2.4-6.13,3a6.19,6.19,0,0,1,2.19-.83c.39,0,.24.27-.74,1.05l-2.14.5c-1.32,1.29-2.5,2.73-3.71,4.08a16.08,16.08,0,0,1,2.36-2c.83-.62,1.72-1.07,2.49-1.54C272.64,323.05,273.83,322.38,273.81,321.56Z"/><path class="cls-3" d="M268,323.69c-2.74,1.79-2.41,1.9-2.14,2.07s.26.18,0,.5a6.5,6.5,0,0,1-.77.69c-.38.32-.9.73-1.61,1.26.95-.81,1.9-1.61,2.91-2.35s2-1.54,3-2.23Z"/><path class="cls-2" d="M296.65,312.37l3.19-.22a6.29,6.29,0,0,0-3.51.51C295.38,313.06,295.07,313.28,296.65,312.37Z"/><path class="cls-2" d="M308.09,310.17l-1.52,1.22c.95-.31,1.89-.67,2.86-.94C309,310.34,308.53,310.24,308.09,310.17Z"/><path class="cls-3" d="M318.69,310.77c1.17-.24,1.06-.48.31-.64a12.4,12.4,0,0,0-3.51-.13,15.32,15.32,0,0,1,1.62,0,7.4,7.4,0,0,1,1.11.21C318.79,310.41,319,310.61,318.69,310.77Z"/><path class="cls-2" d="M335.42,314.52c-2.53-.52-1.42-.23-.16.21s2.63,1.07.75,1.08c.37-.15,1.21-.18,1.48-.34s.11-.18-.18-.34A7.77,7.77,0,0,0,335.42,314.52Z"/><path class="cls-3" d="M350.32,321.82c-1.75-.52-2.36-1-2.49-1.29A12.19,12.19,0,0,1,350.32,321.82Z"/><path class="cls-3" d="M288.33,317.63c-.55.23-1.14.48-1.7.67Z"/><path class="cls-3" d="M289.45,317.21c-.38.12-.75.27-1.12.42A10.41,10.41,0,0,1,289.45,317.21Z"/><path class="cls-3" d="M327.19,314.63h0l-.38-.14Z"/><path class="cls-3" d="M239.72,420.45c.39.94.66,1.68.86,2.27l-.86-2.25A.11.11,0,0,1,239.72,420.45Z"/><path class="cls-3" d="M239.35,423.59a9,9,0,0,1-1.12-4.73,18,18,0,0,0-.25-2.7,25.21,25.21,0,0,0-.94-4.05c.41,1.35.78,2.75,1.22,4.15s.91,2.82,1.45,4.22C240.11,424.58,238.18,417.69,239.35,423.59Z"/><path class="cls-3" d="M238,365.37l.06-.24C238.18,364.7,238.13,364.93,238,365.37Z"/><path class="cls-2" d="M391,434.62l-.22-.17c.69-1.08,1.44-2.14,2.09-3.25C392.32,432.36,391.65,433.48,391,434.62Z"/><path class="cls-2" d="M390.34,434.84c-1.25,1.78-2.48,3.57-3.86,5.24a82.49,82.49,0,0,0,13.15-35.6c.09.43.15.85.21,1.28.07-.06,0,.39-.05,1.22s-.24,2-.56,3.48l-.48,2.34-.66,2.59-.36,1.37-.43,1.38c-.3.93-.57,1.88-.9,2.81a93.39,93.39,0,0,1-4.15,9.91C391,433.43,390.1,435,390.34,434.84Z"/><path class="cls-2" d="M389.77,436.66a9.31,9.31,0,0,1-1,2.49,20.82,20.82,0,0,1-1.47,2l-1.66,2.07a20,20,0,0,0-1.68,2.65c.74-1.38,1.27-2.63,1.9-3.77a18.14,18.14,0,0,1,2.17-3.43C388.63,438,389.19,437.34,389.77,436.66Z"/><path class="cls-4" d="M384.05,448.63a15.24,15.24,0,0,0-1.09,1.23c-.36.42-.71.85-1,1.27a13.54,13.54,0,0,1-1.69,2c-.06-.56.57-1.35,1.39-2.15.41-.4.86-.81,1.3-1.19S383.74,449,384.05,448.63Z"/><path class="cls-3" d="M382.71,455.22c-.23.26-.47.5-.71.73.25-.32.47-.62.62-.86Z"/><path class="cls-3" d="M382.61,455.1l-.25-.31C383,454.36,382.92,454.59,382.61,455.1Z"/><path class="cls-3" d="M382,456a25.07,25.07,0,0,0-1.51,2.12l.71-.64a15.47,15.47,0,0,1-2.93,3.06c1.95-1.69,1.79-1.92,1.46-2.37l-3.11,2.75C376.31,459.35,379.36,458.59,382,456Z"/><path class="cls-4" d="M372.39,464.93c1-1,1.91-2.18,2.86-3.26.68-.1.29.47-.43,1.2A20.4,20.4,0,0,1,372.39,464.93Z"/><path class="cls-3" d="M366.77,467.87c.35-.37,1.39-1.11,2.06-1.62s.95-.82-.17-.24a14.17,14.17,0,0,1,1.8-1.46C368.33,466.34,371,465.59,366.77,467.87Z"/><path class="cls-3" d="M370.47,464.56c.25-.21.54-.45.93-.74C371.1,464.08,370.78,464.33,370.47,464.56Z"/><path class="cls-4" d="M394.91,429.29c-.3.4-.38.35-.37.11Z"/><path class="cls-3" d="M359.09,471.47l-1.39.74c.4-.21.76-.42,1.1-.63Z"/><path class="cls-3" d="M391.81,362l1.29,3.57,1.23,3.75c.42,1.3.8,2.69,1.3,4.16l.67,2.33c.23.81.51,1.64.72,2.53.88-.35.82,2.84,1.85,3.11a84.35,84.35,0,0,1,1.29,10.78c.08.93.07,1.87.1,2.79s.07,1.82,0,2.68c-.06,1.72,0,3.3-.14,4.53-.14,2.47-.14,3.64.12,2.11l-.23-1.89.77,2c-.71,3.72-2.47,8.54-2.64,11.11-.06.07,0-.35.2-1.15l.35-1.46.38-2a85,85,0,0,0,1.47-10.72,81.56,81.56,0,0,0,.06-10.71,27.72,27.72,0,0,0-.48-4.32c.11-.37.27,0,.46,1a36.16,36.16,0,0,1,.6,4.54,73.21,73.21,0,0,1-.38,15.31,85.87,85.87,0,0,1-3.57,15.74l-1,3-.88,2.31c-.47,1.32-.81,2.12-.82,2.28l-.77.22c-.47,1.38-.88,2.66-1.34,3.84s-.81,2.33-1.27,3.39-.86,2.14-1.36,3.18-1,2.09-1.66,3.19l-1.25.49c2.28-2.85,2.43-4,4-7.29a46,46,0,0,1-3.69,5.68c-.5.69-1,1.29-1.57,2s-1.11,1.52-1.87,2.47c.42.22,1.18-.51,1.38-.69s-.09.27-1.86,2.83c-.71.57-.62-.12-.76-.38s-.49-.1-2.26,2c-4.7,4.63-2.82,4.66-7.13,8.62,1.11-.72,2.11-1.58,3.18-2.37-1.53,1.52-4.5,4.31-6.48,5.14a27.64,27.64,0,0,0,3.85-3.53c1.2-1.41,2.05-2.69,1.67-3-1.61,1.86-6,5-7.71,6.27l.64-1.3a8.76,8.76,0,0,0-2.53,1.69,11.53,11.53,0,0,1-3,1.86c-1.06.88-.59.86,0,.76s1.31-.36.74.19a26.91,26.91,0,0,0-3.1,1.51l-1.09.62-1.07.58a10.94,10.94,0,0,0-1.61,1.08c.89.29,2.3-.51,3.86-1.57.78-.53,1.61-1.09,2.48-1.57a9.92,9.92,0,0,1,2.64-1.13l-2.21,1.33-2.27,1.22c-1,1.42.72.35,2.65-.85s3.87-2.73,3.48-1.81a10.77,10.77,0,0,1-5,3.32c-1.85.82-3.69,1.49-4.89,3.15a46,46,0,0,0,5.32-2.54c1.9-1,3.36-1.85,3.08-1.35a13.61,13.61,0,0,0-3.27,2.11c-.52.42-1,.9-1.66,1.36s-1.32.94-2.15,1.43c-1.45.57-3,1-4.43,1.46-1.59,1.22-.17.56,1.35.16-3.23,1.15-7.45,2.86-12.15,4.33a53.42,53.42,0,0,1-14.71,2.64c-5.62.78-.64.68-3.18,1.41a26.66,26.66,0,0,0-5.64-.08c-1,.07-2.06.08-3,.13a22,22,0,0,1-2.68,0c-.93-.11-2.7.6-1.81,1,2.7,0,5.39-.11,8.06-.35-.38.45.82,1.15,3.73.9-1.05-.74,1.8-.67,5-.83s6.68-.69,6.78-1.62l.05.83c1.68-.41,3.33-1,5-1.45s3.27-1.13,4.87-1.76h-.32a30,30,0,0,0,4.7-1.84c1.31-.63,2.81-1.24,4.25-2s2.93-1.34,4.22-2a51.24,51.24,0,0,1-4.86,2.55c-1.71.79-2.58,1.3.21.64-3.72,2.15-11.12,4.2-18.69,6l1.61.26a53,53,0,0,1-13.63,2,123.1,123.1,0,0,1-14.42-.61c.92-.16,1.84-.29,2.75-.51-1.57-.24-3.35-.71-5.1-1a22.34,22.34,0,0,0-5-.6c3.79.64,1.78.7,1,.93-1.31-.13-2.75-.4-4.29-.69s-3.16-.77-4.82-1.25-3.38-1-5.08-1.67l-2.57-.9-2.53-1s.39,0,.15-.24l-1.77-.62-1.74-.7c-1.17-.46-2.34-.92-3.47-1.47a21.56,21.56,0,0,1-5.49-4.37c-1.15-.62-3.82-2.42-3-1.37a13.86,13.86,0,0,0,1.52,1.06c-3.63-1.41-2.07-1.65-6.19-4.06,3.36,1.63-.31-1.47.51-1.79-4.43-3.21-1.2.66-1.92.49l-1.66-1.56c-.47-.49-.89-.95-1.27-1.37-.76-.85-1.4-1.55-2-2.29-1.19-1.49-2.43-2.92-4.6-5.46-.29,0,.45.93,1.28,2s1.8,2.07,1.82,2.46a29.21,29.21,0,0,0-3.19-3.21c.84,1.1,1.69,2.21,2.61,3.25a169.08,169.08,0,0,1-13-17.19l.13.64-1.24-2.08c-.41-.69-.77-1.42-1.15-2.13l1.53,1.13a26.5,26.5,0,0,1-1.71-3.42A7,7,0,0,0,238,431.9l.35.89c-.53-.94-1.09-1.88-1.61-2.84.7.91,1.43,1.8,2.14,2.68a22.4,22.4,0,0,0-1.47-3c-.56-1.08-1.21-2.22-1.91-3.44s-1.31-2.57-2-4a37.05,37.05,0,0,1-1.58-4.61c.35-.85,1.2,1.94,2.33,4.91s2.65,6.1,3.47,6.21c-.3-1.06-.78-2.46-1.23-3.76a13.39,13.39,0,0,0-1.27-3.06c-.28.37.24,1.87.76,3.37a32.5,32.5,0,0,1-1.81-4.45l-.72-2.47-.34-1.24-.28-1.25-1.08-4.62a18.32,18.32,0,0,0-1.17-3.46c0,1.49.22,3,.33,4.44a26.81,26.81,0,0,1-.52-3.5c0-1.07,0-2,0-2.89,0-1.7.1-3-.39-3.79L231,404c.3.64.64,1.27,1,1.9-.17-.63-.35-1.28-.48-1.95s-.24-1.37-.35-2.07-.22-1.42-.3-2.14l-.18-2.18c-.05-.73-.13-1.45-.16-2.17l-.08-2.12-.1-2c0-.66,0-1.3-.06-1.91-.38-.09-.56,1.68-.45,3.42s.22,3.44.16,3.27c-.22-.77-.39-1.55-.59-2.33l.18-2.3.21-1.39c.12-.7.2-1,.29-1.38s.16-.78.32-1.68l.8-4.51-.53-.16a12.18,12.18,0,0,0,.72-2.94l.51-3.36c.28-2,.64-3.28.95-1.61-.31.78-.57,1.57-.85,2.36l.69-.07a90.38,90.38,0,0,1,2.31-10.3c.12,1.12,1.71-3.71,1.86-2.2.23-1.29.57-2.54.88-3.81.78-.63.33,1.12-.18,3.1s-1,4.22-.72,4.54c.43,0,1-1.7,1.22-2.54-.86,4.5-3,6.19-4.08,10.69l.12,2.35-.78-.28a11.66,11.66,0,0,0,.32,4.3,13,13,0,0,0-.85,3.39,23.16,23.16,0,0,0-.19,3.75l0,2,.11,2.15c0,.74,0,1.5.07,2.29s.07,1.6.07,2.45c-.34-2.81-.51-1.91-.61-.41s-.07,3.6-.22,3.12a29.07,29.07,0,0,0,.48,3l.91,3.77c.34,1.28.68,2.54.89,3.66a10.21,10.21,0,0,1,.27,2.79c0,1.87-1.48-3.6-.63.69.2.68.38,1.31.59,1.83a8.94,8.94,0,0,0,.58,1.2c.34.54.54.51.47-.42a104.36,104.36,0,0,0,7.94,18.88l-1.25-1.18a22.29,22.29,0,0,0,3.13,5.29,28.39,28.39,0,0,0,3.26,3.34c.17.6.5.78-.16.43a15.63,15.63,0,0,0,2,3,24.21,24.21,0,0,0,2.3,2.17c.82.74,1.79,1.48,2.9,2.47s2.41,2.18,4,3.78c.09-.46-.56-1.39-1.5-2.43a36.73,36.73,0,0,0-3.2-3.15l1.15,0a123.51,123.51,0,0,1-13.08-18l1.91,2.2a11.29,11.29,0,0,0-1.06-2.72,6.16,6.16,0,0,0-.95-1.31,5.34,5.34,0,0,1-.9-1.28,6.83,6.83,0,0,1-.4-1.06,14.28,14.28,0,0,1-.28-1.6c-1.69-3.29.6,2.64-.8.21-.38-1.26,0-1.25.34-1.43a.57.57,0,0,0,.27-.59,8.63,8.63,0,0,0-.5-2,89.41,89.41,0,0,0,12.54,22,87.57,87.57,0,0,0,8.82,9.63,82.83,82.83,0,0,0,10.08,8c.36,0-.36-.48-1-1a30.7,30.7,0,0,1,3.4,2c1.58.93,3.51,2.16,5.81,3.39a85.32,85.32,0,0,0,16.47,7,71.69,71.69,0,0,0,16.91,3,40.52,40.52,0,0,0,5.77-.07c1.44-.18,2.32-.42,2.5-.72.86.3-1.85.78,1.72.6.31-.19,1.21-.49.35-.75A46,46,0,0,0,339,473.83a145.2,145.2,0,0,0,15.7-5.64c-.37-.22,1.66-1.51,1.56-1.78a13.65,13.65,0,0,0,3-1.2c1-.57,2.1-1.22,3.14-1.9s2-1.45,3-2.09a25.74,25.74,0,0,1,2.56-1.69l-1.17.32a80.76,80.76,0,0,0,8.32-7c.05-.17-.17,0-.51.29l-1.13.93a7.83,7.83,0,0,1,1.8-1.55,1.26,1.26,0,0,1,.93-.15l1.37-2.06,1.26-2.13a43.32,43.32,0,0,0,3.83-3.92,53.7,53.7,0,0,0,3.45-4.62c1.12-1.61,2.08-3.36,3.08-5.12s1.84-3.63,2.62-5.54c3.29-7.59,5.26-15.83,6.88-23.81a24.63,24.63,0,0,1-.42-3.76c-.08-1.34-.08-2.88-.05-4.91-.07.66-.21,1.32-.32,2-.18-2.07-.15-2.12,0-2.1s.31.12.18-1.64c-.46-2.37-1.14-.72-.76,2.48-.39,2-.54.74-.69-.69a100.68,100.68,0,0,0-1.12-18.19A126.59,126.59,0,0,0,391.81,362Z"/><path class="cls-3" d="M382.49,351.1c-.23-.66.58.41,1.31,1.25s1.29,1.53.76-.11c-2.18-4.9-6.5-10.54-11.74-15.58a97.67,97.67,0,0,0-8.38-7c-2.89-2.12-5.75-4.1-8.45-5.83-.69-.52-1.24-1-1.76-1.31s-1-.63-1.42-.9c-.89-.55-1.76-1.07-3.14-1.79a.35.35,0,0,0-.09.43c-.81-.34-1.73-.76-2.75-1.11L343.66,318c-1.1-.34-2.19-.68-3.21-1s-2-.61-2.82-.93c-1-.1-1.84.31,0,.64-1.31-.23-2.51-.46-3.63-.76l-3.11-.92a15,15,0,0,0-5.13-1c2.53.67-2.6.29.43.93-5.5-.39-4.92-2.4-9.43-2.68-.26.18-.53.35.37.37a24,24,0,0,0-4.43-.14c-1.64.15-3.39.28-5,.57-3.19.44-5.78,1-6.21.33-.61.31-1.21.69-1.8,1-2.2.06-1.79-.48-5.33.37-2.2.9.25.5-.51,1-.57-.18-2.32.36-4.31.95-1,.27-2,.68-3,1a25.79,25.79,0,0,1-2.65.64c-.13-.2.12-.36.62-.53s1.26-.28,2.1-.45,1.75-.39,2.62-.62a7.08,7.08,0,0,0,2.29-1c0-.21-.38-.12-.95.06A56.48,56.48,0,0,1,301,313.38a74.12,74.12,0,0,1,9.71-.56c6.25,0,12,.63,18.07,1a8.91,8.91,0,0,0,3.43.73,8.3,8.3,0,0,0,2.5-.31c-.53-.18-1.29-.46-2.17-.69s-1.86-.44-2.78-.6c-1.85-.31-3.48-.26-3.61.37-1.23-.45-2.48-.76-3.74-1.13-1.45,0-1.38-1.34-2-1.56,2.72.24,6-.8,2.24-1.51,3.7.14,3,.83,2.29,1.43-.37.31-.76.62-.66.85s.69.36,2.27.47l1-.84c-.63.19.42.52,1.88.84a28,28,0,0,0,4.35.72l-.81-.35a94.59,94.59,0,0,1,26.66,9.86A84.53,84.53,0,0,1,382.74,341a7.58,7.58,0,0,0,.73,1.89,15.11,15.11,0,0,0,1.14,1.94c.44.65,1,1.28,1.45,2s1,1.34,1.55,2,1,1.35,1.51,2,.92,1.36,1.31,2a9.7,9.7,0,0,1,1.34,3.82c1.25,1.68-.63-3,1.46.41,1,1.75.5,2.17.3,2.16l.94,1.57c-.75,1.13-1.94,1.05-3.78-.52a17.12,17.12,0,0,1-1.48-1.47c-.56-.58-1.18-1.24-1.84-2l-1-1.24-1.18-1.35-1.26-1.51Z"/><path class="cls-3" d="M268.12,368.67l-1.76,4.43a47.53,47.53,0,0,0-10-2.59l1.81-4.3A59.14,59.14,0,0,1,268.12,368.67Zm4,11.51-1.76,4.54a50.84,50.84,0,0,0-10.42-3.14l1.83-4.51A57,57,0,0,1,272.08,380.18Zm10.49-10.46-2.4-5.47c-2.95,1.61-6.17,3.18-9.63,4.7l-3.21-3.5c9.45-4.16,16.95-8.71,22.56-13.63l4,2.85a59.88,59.88,0,0,1-9.29,7l2.63,6,12.07-5.31,1.93,4.37-12.07,5.31,2.29,5.2,9.53-4.2,8.18,18.59-4.5,2-.9-2.06-14.35,6.31.9,2.06-4.5,2-8.18-18.59,9.19-4-2.29-5.2-12,5.27L270.58,375ZM275.71,387a171.64,171.64,0,0,1,1,18.32h-5.48a142.63,142.63,0,0,0-.37-18.16Zm26.13.3-3.5-8L284,385.64l3.5,8Z"/><path class="cls-3" d="M316.92,343l1.9,4.33-16.44,7.24-1.91-4.33Zm6.75,11.07,2,4.46-9.8,4.31a125.53,125.53,0,0,1,1.77,14.36,72.55,72.55,0,0,0,7.08-6c-1.88-1.68-3.69-3.18-5.47-4.59l3-3.51c3.5,2.74,7.18,5.87,10.94,9.44.7-6.36-.78-13.75-4.35-22.1l-.15-.35-5.38,2.37-1.92-4.37,5.38-2.37-3.69-8.4,4.55-2,3.69,8.4,9.41-4.14q9.52,21.65,11.16,27,1.35,5.2-4.69,7.86c-.7.31-1.92.74-3.73,1.38l-2.8-3.52c1.57-.59,2.92-1.08,4.06-1.58,1.84-.81,2.46-2.23,2-4.31s-3.45-8.92-8.47-20.55l-5,2.19.15.35q8.09,18.92,3,31.56l-4.78-1.5a24.1,24.1,0,0,0,1.5-5.62l-2.92,3.58c-.77-.81-1.51-1.53-2.22-2.21a112.29,112.29,0,0,1-13.13,10.27l-2.94-3.82a3.36,3.36,0,0,0,.75-.8c.41-2.16,0-7.21-1.23-15.12L306,367.19l-2-4.46Z"/><path class="cls-3" d="M289,416.55a79.82,79.82,0,0,1-.75,15.37c1.5-.87,3-1.74,4.47-2.65.11-1.77.22-3.65.38-5.65l4.64-.26A122.62,122.62,0,0,1,295,442a89.78,89.78,0,0,0,7.45-6.1l1.79,4.07a80.8,80.8,0,0,1-12.47,9.51l-3-3.57a8.25,8.25,0,0,0,1.48-2.22,42.64,42.64,0,0,0,1.89-9.24c-2,1.19-4,2.45-6.18,3.76L283,434.51a5.2,5.2,0,0,0,1.15-2.49,85.43,85.43,0,0,0-.23-15.25Zm19.58,31.69a104.55,104.55,0,0,1-13.47,10.57l-2.53-4.21A97.11,97.11,0,0,0,306.67,444ZM304.49,414l-2.12-4.81,4.59-2,2.12,4.81,9.93-4.37,1.92,4.37L311,416.31l2.27,5.16,8.66-3.81,1.93,4.37-21.74,9.56-1.93-4.37,8.49-3.73-2.27-5.16-9.93,4.37-1.92-4.37Zm28,29.92-4.42,1.94-.71-1.62-11.11,4.89.71,1.62-4.46,2-8.1-18.41,20-8.8Zm-7-4-3.62-8.22-11.11,4.89,3.62,8.22Z"/><path class="cls-3" d="M340.11,397.13l-1.71-3.89,4.64-2,1.71,3.89,16.53-7.27,1.94,4.42-16.53,7.27,1.37,3.11,13.65-6,5.93,13.47-10.19,4.48c4.79,2.59,11.27,3.91,19.4,4l-1.44,5.39c-8.84-1.12-15.87-3.56-21.18-7.33l6.58,15-4.64,2-6.62-15q-1.1,10.67-9.26,20.83l-4.54-3.07q8.05-8.4,10.11-16.66l-10.06,4.43-5.93-13.47,13.56-6L342,401.55l-16.62,7.31-1.94-4.42Zm5.18,11.77-9,3.95,2.23,5.07,9-3.94Zm13.69-6-9.05,4,2.23,5.07,9.06-4Z"/><path class="cls-3" d="M182.33,545.35l-1.19,1.19A24.85,24.85,0,0,0,177,543l1.2-1.17A27.09,27.09,0,0,1,182.33,545.35Zm.26,3.42a90.13,90.13,0,0,1-3.44,8.63l-1.72-.74a71.12,71.12,0,0,0,3.61-8.48Zm.24-9.51-1.17,1.17a25.62,25.62,0,0,0-4.06-3.2l1.17-1.12A28.62,28.62,0,0,1,182.83,539.25Zm7.1,3.46V539c-1.82.17-3.75.26-5.81.26l-.53-1.55a40.94,40.94,0,0,0,13-1.77l.84,1.48a29.58,29.58,0,0,1-5.76,1.36v4h6.88v1.65h-6.88v3.7H197v9.58h-1.7v-1.27h-9v1.31h-1.7v-9.63h5.23v-3.7h-6.83v-1.65Zm5.42,12v-5.07h-9v5.07Z"/><path class="cls-3" d="M211.33,543.89v1.67h-5.52a53.54,53.54,0,0,1-2.51,7.79,37.62,37.62,0,0,0,5.64-1.62c-.62-1.29-1.22-2.46-1.84-3.56l1.46-.72a64.42,64.42,0,0,1,3.23,6.69l-1.48.76c-.24-.62-.48-1.19-.72-1.74a50.88,50.88,0,0,1-8.27,2.15l-.41-1.62a2.18,2.18,0,0,0,.38-.14c.72-1,1.67-3.63,2.87-8h-3.32v-1.67Zm-.91-6.45v1.65h-8.65v-1.65Zm6.21-1.6v4.83h5.21c0,7.48-.12,12.09-.34,13.86-.24,1.94-1.41,2.91-3.46,2.91-.41,0-1.1,0-2.1-.07l-.38-1.53c.86,0,1.63.1,2.27.1,1.17,0,1.86-.69,2.06-2.05s.24-5.11.29-11.54h-3.54v.29q-.11,10.32-5,15.1l-1.29-1.12q4.48-4.34,4.56-14v-.29h-3.23v-1.67h3.23v-4.83Z"/><path class="cls-3" d="M228.47,546.59v7a1.44,1.44,0,0,0,1.65,1.6h12a2.2,2.2,0,0,0,1.41-.43q.72-.65.93-4.59l1.67.53c-.24,3-.65,4.73-1.22,5.35a3.51,3.51,0,0,1-2.32.81H229.64c-1.94,0-2.89-1-2.89-3V541.4h1.72v3.54h13.26V538.7H225.79V537h17.68v9.56Z"/><path class="cls-3" d="M254.44,536.31a40,40,0,0,1-3.7,7.45c1.12-.14,2.25-.31,3.39-.5l1.41-2.65,1.51.55a53.43,53.43,0,0,1-5.45,8.63,42.45,42.45,0,0,0,5.38-1.43v1.53a38.25,38.25,0,0,1-7.45,1.79l-.45-1.55a3.21,3.21,0,0,0,.79-.5,27,27,0,0,0,3.37-4.75c-1.36.22-2.72.41-4.11.6l-.43-1.58a1.81,1.81,0,0,0,.72-.64,37.39,37.39,0,0,0,3.44-7.55Zm2.82,18.21a52,52,0,0,1-8.29,2.17l-.22-1.67a47,47,0,0,0,8.51-2.13Zm5.42-15.79v-2.89h1.74v2.89h5.69v1.67h-5.69v3.54h5v1.67H257.76v-1.67h4.92V540.4H257v-1.67Zm6,18.88h-1.67v-1.15h-6.83v1.15h-1.7V548h10.2Zm-1.67-2.77v-5.21h-6.83v5.21Z"/><path class="cls-3" d="M282.37,538.23v-2.39h1.77v2.39h9.29v1.65h-9.29v2.34h7.53V549H285.6c1.72,2.44,4.63,4.59,8.7,6.5L293.12,557q-6.34-3.55-8.91-8h-.07v8.67h-1.77V549h-.07q-2.72,4.87-9.06,8l-1-1.58q6-2.51,8.65-6.45h-6v-6.76h7.48v-2.34H273v-1.65Zm0,5.61h-5.76v3.56h5.76Zm7.57,0h-5.81v3.56h5.81Z"/><path class="cls-3" d="M301,553.11a2.77,2.77,0,0,1,.48,1.67,4.47,4.47,0,0,1-.93,2.8,4.61,4.61,0,0,1-2.46,1.55V558a3.25,3.25,0,0,0,1.51-1.05,2.67,2.67,0,0,0,.53-1.6,1.28,1.28,0,0,1-.53.1,1.39,1.39,0,0,1-1-.43,1.44,1.44,0,0,1-.43-1.05,1.39,1.39,0,0,1,.43-1.07,1.48,1.48,0,0,1,1.12-.41A1.57,1.57,0,0,1,301,553.11Z"/><path class="cls-3" d="M341.65,537v1.7H331.28v3.61a98.19,98.19,0,0,1,9,5.16l-1,1.53c-3.18-2.1-5.85-3.73-8-4.87v13.57h-1.74v-19h-9.13V537Z"/><path class="cls-3" d="M350,547.62a77.77,77.77,0,0,1-4.47,9.29l-1.6-.72a72.61,72.61,0,0,0,4.56-9.15Zm-.12-5.95-1.34,1a42.83,42.83,0,0,0-4.35-5l1.39-.86A42.51,42.51,0,0,1,349.87,541.67Zm8.79,1a33,33,0,0,1-.19,3.58A19.47,19.47,0,0,0,366,556.36l-1.12,1.31A21.71,21.71,0,0,1,358,549a15.2,15.2,0,0,1-.5,1.67q-1.54,4.3-7,7l-1.12-1.36c3.25-1.58,5.4-3.58,6.48-6a23.22,23.22,0,0,0,1.22-7.72Zm-7.07,3.8-1.43-1c2-2.34,3.23-5.62,3.8-9.77l1.72.26c-.19,1.24-.41,2.39-.67,3.44h10v1.12a43.11,43.11,0,0,1-2,6l-1.7-.48a25.16,25.16,0,0,0,1.82-5h-8.67A15.6,15.6,0,0,1,351.59,546.47Z"/><path class="cls-3" d="M372.95,543.08v10.49c.72-.67,1.46-1.41,2.27-2.25l.45,1.82a32.32,32.32,0,0,1-4.25,3.7l-.67-1.53a1.49,1.49,0,0,0,.55-1.1v-9.49h-3.42v-1.65Zm1.86-3.42-1.17,1.19a26.83,26.83,0,0,0-4.09-3.66l1.22-1.17A27.83,27.83,0,0,1,374.81,539.66Zm8.39-3.89v1.55h5.93v1.41H383.2v1.6h5.06v1.39H383.2v1.62h6.52v1.43H375.1v-1.43h6.45v-1.62h-4.83v-1.39h4.83v-1.6h-5.78v-1.41h5.78v-1.55Zm-4.63,21.91h-1.65v-11.4h11v9.32c0,1.29-.69,1.94-2,1.94h-2l-.41-1.53,1.91.07a.77.77,0,0,0,.88-.84v-1.36h-7.72Zm7.72-10h-7.72v1.77h7.72Zm-7.72,4.85h7.72v-1.74h-7.72Z"/><path class="cls-3" d="M396.27,539v-3.25h1.65V539h3.46v1.53h-3.46v3.54h3.85v1.58h-3.34V549h3.11v1.58h-3.11v4.21l.19.07q2,.72,9.32.72c2.53,0,4.4,0,5.64-.1l-.29,1.7h-5c-5.71,0-9.27-.33-10.7-1a8.36,8.36,0,0,1-3.32-3.06,28.08,28.08,0,0,1-1.31,4.54l-1.27-1.12a29.21,29.21,0,0,0,1.7-9.39l1.5.17c0,1.29-.14,2.51-.29,3.68a9.22,9.22,0,0,0,2.13,2.75v-8.12H392.4v-1.58h3.87v-3.54h-3.68V539Zm16.27-2.22v1.62h-3.87v5.45h4.52v1.63h-4.52v9H407v-9h-4.54v-1.62H407v-5.45h-3.87v-1.62Z"/><path class="cls-3" d="M434.38,536.74v10.61H427.5v2.87h9.7v1.67h-9.7v5.76h-1.74v-5.76h-9.68v-1.67h9.68v-2.87h-6.93V536.74Zm-1.74,4.54v-2.94H420.57v2.94Zm0,1.53H420.57v2.94h12.07Z"/><path class="cls-3" d="M446.25,554.88h-1.65v-1.29H442.1v1.79h-1.65V537.72h5.81Zm-1.65-3V539.4H442.1v12.52Zm3.08,5.59-.36-1.62A14.53,14.53,0,0,0,449,556c.74,0,1.12-.36,1.12-1.07V550q-1.43.39-2.87.72L446.9,549c1.1-.19,2.2-.43,3.27-.72V544h-3.08v-1.65h3.08v-2.75a17.12,17.12,0,0,1-2.37.79l-.69-1.48a10.31,10.31,0,0,0,5.5-2.89l1.24,1a9.36,9.36,0,0,1-2,1.7v3.61H455c-.07-2-.1-4.16-.1-6.52h1.53c0,2.41,0,4.59.1,6.52h4.18V544h-4.11a63.19,63.19,0,0,0,.5,6.33,23.29,23.29,0,0,0,2.15-4.85l1.34.69a23.82,23.82,0,0,1-3.08,6.4c.45,2,1,3,1.58,3,.43,0,.86-1.24,1.29-3.56l1.22,1c-.69,2.91-1.53,4.4-2.51,4.4-.76,0-1.46-.62-2.08-1.84a13.33,13.33,0,0,1-.64-1.65,11.76,11.76,0,0,1-2.84,2.32l-.93-1.41a11.15,11.15,0,0,0,3.3-2.82c-.14-.74-.29-1.51-.38-2.32-.19-1.62-.33-3.56-.43-5.76h-3.2v3.8c.72-.24,1.41-.48,2.1-.74v1.72l-2.1.72v5.85a1.93,1.93,0,0,1-2.2,2.15ZM461,539.92l-1.27,1a29,29,0,0,0-2.87-3.56l1.17-.88A32.28,32.28,0,0,1,461,539.92Z"/><path class="cls-3" d="M469.48,552.85a1.37,1.37,0,0,1,.41,1,1.39,1.39,0,0,1-.41,1,1.53,1.53,0,0,1-1.05.41,1.47,1.47,0,0,1-1-.41,1.37,1.37,0,0,1-.41-1,1.28,1.28,0,0,1,.41-1,1.37,1.37,0,0,1,1-.41A1.42,1.42,0,0,1,469.48,552.85Zm.07-14.62-.38,12.47h-1.48l-.36-12.47Z"/><rect class="cls-3" y="545.39" width="150.51" height="0.85"/><rect class="cls-3" x="489.28" y="545.39" width="150.72" height="0.85"/></g></g></svg>