<svg xmlns="http://www.w3.org/2000/svg" viewBox="0 0 105 60"><defs><style>.cls-1{fill:#ea2134;}</style></defs><title>coupon_used_1</title><g id="图层_2" data-name="图层 2"><g id="图层_1-2" data-name="图层 1"><path class="cls-1" d="M11.45,17.94v5.9a1.21,1.21,0,0,0,1.38,1.34h10a1.85,1.85,0,0,0,1.18-.36q.6-.54.78-3.84l1.4.44c-.2,2.48-.54,4-1,4.48a2.94,2.94,0,0,1-1.94.68H12.43A2.17,2.17,0,0,1,10,24.1V13.6h1.44v3h11.1V11.34H9.21V9.94H24v8Z"/><path class="cls-1" d="M30,18.68l-.48-1.52A22.48,22.48,0,0,0,34,8.76l1.36.62a26.43,26.43,0,0,1-1.86,4.42V27.26H32.09V16.1A25.5,25.5,0,0,1,30,18.68Zm11-7.76v-2h1.46v2H48V12.3h-5.5v1.9h4.68v5.66H42.38a11,11,0,0,1-1,4.18,16,16,0,0,0,6.94,1.86l-.36,1.38a16.5,16.5,0,0,1-7.38-2.12,8.76,8.76,0,0,1-5.1,2.16L34.81,26a7.55,7.55,0,0,0,4.46-1.66,15.14,15.14,0,0,1-3.16-3l1.1-.76a14.31,14.31,0,0,0,2.88,2.74,10,10,0,0,0,.82-3.42H36.43V14.2H41V12.3H35.75V10.92Zm0,7.16v-2.6h-3.2v3.08H41C41,18.4,41,18.24,41,18.08Zm4.78-2.6H42.46v2.6c0,.16,0,.32,0,.48h3.34Z"/><path class="cls-1" d="M52.45,27l-1.1-1a11.63,11.63,0,0,0,2-6.78V9.68h14.9v15a1.86,1.86,0,0,1-2.1,2.1h-2.3l-.38-1.42c.8,0,1.54.08,2.22.08s1.1-.42,1.1-1.26V20.68H61.34v5.86H59.85V20.68H54.69A11.94,11.94,0,0,1,52.45,27Zm2.32-16v3.44h5.08V11.08Zm0,8.28h5.08v-3.5H54.77Zm12-8.28H61.34v3.44h5.44Zm0,4.78H61.34v3.5h5.44Z"/><path class="cls-1" d="M8.45,42.6,8,41.16a22.18,22.18,0,0,0,4.7-8.22l1.3.6a24.59,24.59,0,0,1-1.82,4.12V51.22H10.77V39.86A25.17,25.17,0,0,1,8.45,42.6Zm9.32-4.84c0-.4,0-.8,0-1.2V32.94H19.2v3.62c0,.4,0,.8,0,1.2h6.72v1.4H21.72V49c0,.4.18.6.58.6H24a.69.69,0,0,0,.56-.34A10.47,10.47,0,0,0,25,46l1.3.42a11.25,11.25,0,0,1-.64,3.86,1.56,1.56,0,0,1-1.22.58H21.92c-1.06,0-1.58-.56-1.58-1.66V39.16H19.08c-.44,5.34-2.12,9.34-5,12L13,50.24c2.68-2.44,4.24-6.12,4.68-11.08h-4v-1.4ZM25,35.92l-1,1a18.23,18.23,0,0,0-3.1-2.7l.94-.9A20.53,20.53,0,0,1,25,35.92Z"/><path class="cls-1" d="M33.15,46.14a14.28,14.28,0,0,1-2,4.38l-1.2-.76a12,12,0,0,0,1.94-3.88Zm5-12V32.84h1.44v1.34h8.14v1.24H39.63v1.14H46v5.8H45A24.5,24.5,0,0,1,47.74,45l-1.06.74a15.69,15.69,0,0,0-1.12-1.28c-3.4.24-8.36.46-14.84.62l-.18-1.28c2.8,0,5.34-.08,7.66-.14V42.36H31.85v-5.8h6.34V35.42H30.05V34.18Zm0,4.78v-1.3h-5V39Zm0,1h-5v1.34h5Zm-1.82,11c-1.18,0-1.76-.56-1.76-1.68v-3.5H36v3.2q0,.66.78.66h4.6a1,1,0,0,0,.8-.28,4,4,0,0,0,.42-1.92l1.32.42a4.62,4.62,0,0,1-.76,2.68,2.26,2.26,0,0,1-1.52.42Zm4.88-3.14-1.08.76A20.07,20.07,0,0,0,37.81,46l1.08-.66A21.48,21.48,0,0,1,41.26,47.76ZM39.63,39h5v-1.3h-5Zm5,1h-5v1.34h5Zm-.88,2.72.5-.3H39.63V43.6l4.9-.18C44.26,43.16,44,42.9,43.71,42.66ZM48,49.38l-1.14.76a31.72,31.72,0,0,0-3-4l1.08-.7A32.49,32.49,0,0,1,48,49.38Z"/><path class="cls-1" d="M55.37,44.9V43.82a19,19,0,0,1-3.28,2l-.8-1.22a14.73,14.73,0,0,0,5.26-3.72H51.91V39.58h5.66a15.61,15.61,0,0,0,1.2-2.2H53V36.1H59.3a22.46,22.46,0,0,0,.82-3.42l1.42.18a24,24,0,0,1-.78,3.24h4.06l-1-.58a10.71,10.71,0,0,0,1.58-2.78l1.2.44a11.55,11.55,0,0,1-1.7,2.92H68v1.28H60.27a17.39,17.39,0,0,1-1.1,2.2h9.94V40.9H64.74a13,13,0,0,0,5,3.68l-.92,1.18a22,22,0,0,1-3-2c-.06,1.76-.16,3.2-.3,4.3a4.68,4.68,0,0,1-.82,2.34,2.49,2.49,0,0,1-1.8.7h-3l-.38-1.34c.94,0,1.82.06,2.66.06a1.67,1.67,0,0,0,1.68-.9,13.26,13.26,0,0,0,.54-4h-4.9a10,10,0,0,1-1.66,3.6A11.62,11.62,0,0,1,54,51.24l-.9-1.14a11.16,11.16,0,0,0,3.54-2.26,7.61,7.61,0,0,0,1.54-2.94Zm2-9.36-1.16.54a18.65,18.65,0,0,0-1.54-2.82l1.24-.4A15.78,15.78,0,0,1,57.33,35.54Zm-1.64,8h10a11.16,11.16,0,0,1-2.38-2.68h-5A15.58,15.58,0,0,1,55.69,43.58Z"/><path class="cls-1" d="M105,60H87.36l.08-.87c0-.2,0-.39,0-.59a6.52,6.52,0,0,0-13,0c0,.2,0,.4,0,.59l.08.87H0V0H74.4l.07.73a6.52,6.52,0,0,0,13,0L87.51,0H105ZM89.08,58.4h14.31V1.6H88.95a8.13,8.13,0,0,1-16,0H1.61V58.4H72.83a8.13,8.13,0,0,1,16.25,0Z"/></g></g></svg>