<?xml version="1.0" encoding="utf-8"?>
<!-- Generator: Adobe Illustrator 21.0.0, SVG Export Plug-In . SVG Version: 6.00 Build 0)  -->
<svg version="1.1" id="图层_1" xmlns="http://www.w3.org/2000/svg" xmlns:xlink="http://www.w3.org/1999/xlink" x="0px" y="0px"
	 viewBox="0 0 24.9 25" style="enable-background:new 0 0 24.9 25;" xml:space="preserve">
<style type="text/css">
	.st0{fill:#CEA7A6;}
</style>
<title>phone</title>
<g id="图层_2">
	<g id="图层_1-2">
		<path class="st0" d="M24.7,22.2l-1.2,1.2c-0.5,0.5-1.1,0.9-1.8,1.1c-0.8,0.3-1.7,0.5-2.5,0.5c-3.5,0-9.1-3.3-12.8-7
			c-4.7-4.7-7.5-11.1-6-14.8c0.2-0.5,0.5-1,0.9-1.5l0,0l0.1-0.1c0-0.1,0.1-0.1,0.1-0.1l1.2-1.2c0.3-0.3,0.8-0.3,1.1,0c0,0,0,0,0,0
			l0.6,0.6l4.8,4.8c0.3,0.3,0.3,0.8,0,1.1L7.9,8L7,8.9c0,0-0.5,2.9,2.8,6.2s6.2,2.8,6.2,2.8l2.2-2.2c0.3-0.3,0.8-0.3,1.1,0l5.4,5.4
			C25,21.4,25,21.9,24.7,22.2L24.7,22.2z"/>
	</g>
</g>
</svg>
