<?xml version="1.0" encoding="utf-8"?>
<!-- Generator: Adobe Illustrator 21.0.0, SVG Export Plug-In . SVG Version: 6.00 Build 0)  -->
<svg version="1.1" id="图层_1" xmlns="http://www.w3.org/2000/svg" xmlns:xlink="http://www.w3.org/1999/xlink" x="0px" y="0px"
	 viewBox="0 0 640 60" style="enable-background:new 0 0 640 60;" xml:space="preserve">
<style type="text/css">
	.st0{fill-rule:evenodd;clip-rule:evenodd;fill:#EA2134;stroke:#EA2134;stroke-width:0.5;stroke-miterlimit:10;}
	.st1{fill:none;stroke:#EA2134;stroke-miterlimit:10;}
</style>
<g>
	<g>
		<g>
			<path class="st0" d="M112.5,24.7c-1.2,0-2.3,1-2.9,2.1c-0.6-1.1-1.7-2.1-2.9-2.1c-2,0-3.6,1.8-3.6,4.1c0,1.1,0.7,2.6,1.6,3.4
				c1.3,1.7,4.6,4.4,4.9,4.4c0.4,0,3.6-2.7,4.9-4.4c0.9-0.8,1.6-2.3,1.6-3.4C116.1,26.5,114.5,24.7,112.5,24.7L112.5,24.7z
				 M114.1,31.6C114,31.7,114,31.7,114.1,31.6c-1.3,1.7-3.7,3.6-4.4,4.1c-0.7-0.5-3.2-2.4-4.4-4.1c0,0,0,0,0,0
				c-0.7-0.7-1.4-2-1.4-2.9c0-1.9,1.3-3.4,2.9-3.4c1.1,0,2.1,1.1,2.6,2.3c0.1,0.2,0.5,0.2,0.6,0c0.5-1.1,1.5-2.3,2.6-2.3
				c1.6,0,2.9,1.5,2.9,3.4C115.4,29.6,114.8,31,114.1,31.6L114.1,31.6z M109.6,18.2c-6.5,0-11.8,5.3-11.8,11.8
				c0,6.5,5.3,11.8,11.8,11.8c6.5,0,11.8-5.3,11.8-11.8C121.4,23.5,116.1,18.2,109.6,18.2L109.6,18.2z M109.6,41c-6,0-11-4.9-11-11
				c0-6,4.9-11,11-11c6,0,11,4.9,11,11C120.6,36,115.6,41,109.6,41L109.6,41z"/>
			<path class="st0" d="M112.5,24.7c-1.2,0-2.3,1-2.9,2.1c-0.6-1.1-1.7-2.1-2.9-2.1c-2,0-3.6,1.8-3.6,4.1c0,1.1,0.7,2.6,1.6,3.4
				c1.3,1.7,4.6,4.4,4.9,4.4c0.4,0,3.6-2.7,4.9-4.4c0.9-0.8,1.6-2.3,1.6-3.4C116.1,26.5,114.5,24.7,112.5,24.7L112.5,24.7z
				 M114.1,31.6C114,31.7,114,31.7,114.1,31.6c-1.3,1.7-3.7,3.6-4.4,4.1c-0.7-0.5-3.2-2.4-4.4-4.1c0,0,0,0,0,0
				c-0.7-0.7-1.4-2-1.4-2.9c0-1.9,1.3-3.4,2.9-3.4c1.1,0,2.1,1.1,2.6,2.3c0.1,0.2,0.5,0.2,0.6,0c0.5-1.1,1.5-2.3,2.6-2.3
				c1.6,0,2.9,1.5,2.9,3.4C115.4,29.6,114.8,31,114.1,31.6L114.1,31.6z M109.6,18.2c-6.5,0-11.8,5.3-11.8,11.8
				c0,6.5,5.3,11.8,11.8,11.8c6.5,0,11.8-5.3,11.8-11.8C121.4,23.5,116.1,18.2,109.6,18.2L109.6,18.2z M109.6,41c-6,0-11-4.9-11-11
				c0-6,4.9-11,11-11c6,0,11,4.9,11,11C120.6,36,115.6,41,109.6,41L109.6,41z"/>
		</g>
		<line class="st1" x1="31" y1="31.3" x2="98" y2="31.3"/>
	</g>
	<g>
		<g>
			<path class="st0" d="M527.5,24.7c-2,0-3.6,1.8-3.6,4.1c0,1.1,0.7,2.6,1.6,3.4c1.3,1.7,4.6,4.4,4.9,4.4c0.3,0,3.7-2.7,4.9-4.4
				c0.9-0.8,1.6-2.3,1.6-3.4c0-2.3-1.6-4.1-3.6-4.1c-1.2,0-2.3,1-2.9,2.1C529.8,25.7,528.7,24.7,527.5,24.7L527.5,24.7z M525.9,31.6
				c-0.7-0.7-1.4-2-1.4-2.9c0-1.9,1.3-3.4,2.9-3.4c1,0,2.1,1.1,2.6,2.3c0.1,0.2,0.5,0.2,0.6,0c0.5-1.1,1.5-2.3,2.6-2.3
				c1.6,0,2.9,1.5,2.9,3.4c0,0.9-0.6,2.2-1.4,2.9c0,0,0,0,0,0c-1.2,1.6-3.7,3.6-4.4,4.1C529.7,35.2,527.2,33.3,525.9,31.6
				C526,31.7,526,31.7,525.9,31.6L525.9,31.6z M530.4,18.2c-6.5,0-11.8,5.3-11.8,11.8c0,6.5,5.3,11.8,11.8,11.8
				c6.5,0,11.8-5.3,11.8-11.8C542.2,23.5,536.9,18.2,530.4,18.2L530.4,18.2z M530.4,41c-6,0-11-4.9-11-11c0-6,4.9-11,11-11
				c6,0,11,4.9,11,11C541.4,36,536.4,41,530.4,41L530.4,41z"/>
			<path class="st0" d="M527.5,24.7c-2,0-3.6,1.8-3.6,4.1c0,1.1,0.7,2.6,1.6,3.4c1.3,1.7,4.6,4.4,4.9,4.4c0.3,0,3.7-2.7,4.9-4.4
				c0.9-0.8,1.6-2.3,1.6-3.4c0-2.3-1.6-4.1-3.6-4.1c-1.2,0-2.3,1-2.9,2.1C529.8,25.7,528.7,24.7,527.5,24.7L527.5,24.7z M525.9,31.6
				c-0.7-0.7-1.4-2-1.4-2.9c0-1.9,1.3-3.4,2.9-3.4c1,0,2.1,1.1,2.6,2.3c0.1,0.2,0.5,0.2,0.6,0c0.5-1.1,1.5-2.3,2.6-2.3
				c1.6,0,2.9,1.5,2.9,3.4c0,0.9-0.6,2.2-1.4,2.9c0,0,0,0,0,0c-1.2,1.6-3.7,3.6-4.4,4.1C529.7,35.2,527.2,33.3,525.9,31.6
				C526,31.7,526,31.7,525.9,31.6L525.9,31.6z M530.4,18.2c-6.5,0-11.8,5.3-11.8,11.8c0,6.5,5.3,11.8,11.8,11.8
				c6.5,0,11.8-5.3,11.8-11.8C542.2,23.5,536.9,18.2,530.4,18.2L530.4,18.2z M530.4,41c-6,0-11-4.9-11-11c0-6,4.9-11,11-11
				c6,0,11,4.9,11,11C541.4,36,536.4,41,530.4,41L530.4,41z"/>
		</g>
		<line class="st1" x1="609" y1="31.3" x2="542" y2="31.3"/>
	</g>
</g>
</svg>
