<?xml version="1.0" encoding="utf-8"?>
<!-- Generator: Adobe Illustrator 21.0.0, SVG Export Plug-In . SVG Version: 6.00 Build 0)  -->
<svg version="1.1" id="图层_1" xmlns="http://www.w3.org/2000/svg" xmlns:xlink="http://www.w3.org/1999/xlink" x="0px" y="0px"
	 viewBox="0 0 30.7 25" style="enable-background:new 0 0 30.7 25;" xml:space="preserve">
<style type="text/css">
	.st0{fill:#CEA7A6;}
</style>
<title>wechat</title>
<g id="图层_2">
	<g id="图层_1-2">
		<path class="st0" d="M20.8,7.6c0.3,0,0.7,0,1,0.1C20.9,3.3,16.2,0,10.9,0C4.9,0,0,4.1,0,9.2c0,3,1.6,5.4,4.3,7.3l-1.1,3.3l3.8-1.9
			c1.2,0.3,2.5,0.5,3.8,0.5c0.3,0,0.7,0,1,0c-0.2-0.7-0.3-1.5-0.3-2.3C11.5,11.5,15.6,7.6,20.8,7.6L20.8,7.6z M14.9,4.6
			c0.7,0,1.3,0.5,1.4,1.2c0,0.1,0,0.1,0,0.2c0,0.7-0.5,1.3-1.2,1.4c-0.1,0-0.1,0-0.2,0c-0.8,0.1-1.5-0.5-1.6-1.4
			C13.4,5.2,14.1,4.6,14.9,4.6L14.9,4.6z M7.3,7.3C6.5,7.4,5.8,6.8,5.7,6c0.1-0.8,0.8-1.4,1.6-1.4c0.7,0,1.3,0.5,1.4,1.2
			c0,0.1,0,0.1,0,0.2c0,0.7-0.5,1.3-1.2,1.3C7.4,7.3,7.4,7.3,7.3,7.3z M30.7,16c0-4.3-4.3-7.9-9.2-7.9c-5.2,0-9.2,3.5-9.2,7.9
			s4.1,7.9,9.2,7.9c1.1-0.1,2.2-0.2,3.3-0.5l3,1.6l-0.8-2.7C29.1,20.6,30.7,18.5,30.7,16L30.7,16z M18.5,14.7c-0.6,0-1-0.5-1.1-1.1
			c0-0.6,0.5-1,1.1-1.1c0.7-0.1,1.3,0.4,1.4,1.1C19.7,14.3,19.1,14.7,18.5,14.7z M24.5,14.7c-0.6,0-1-0.5-1.1-1.1
			c0-0.6,0.5-1,1.1-1.1c0.7-0.1,1.3,0.4,1.4,1.1C25.7,14.3,25.1,14.7,24.5,14.7z"/>
	</g>
</g>
</svg>
