<svg xmlns="http://www.w3.org/2000/svg" viewBox="0 0 686.25 238.74"><defs><style>.cls-1{fill:#fff;}</style></defs><title>dudu_logo</title><g id="图层_2" data-name="图层 2"><g id="图层_1-2" data-name="图层 1"><path class="cls-1" d="M93,8.29l3.62,28.05,26.52-9.5-4.95,28,14.31-1c1.18-.08,2.36-.12,3.55-.19,3-.18,6-.38,9-.55.29,0,.82.09.85.22a2,2,0,0,1-.09,1.23c-3.64,7.39-7.3,14.76-10.95,22.14a15.89,15.89,0,0,0-.67,1.94L160.5,85l.19.66L142,105.27l23.28,13.31.62.68a17.83,17.83,0,0,0-1.67.76q-10.43,6-20.84,12.11c-1.72,1-1.76,1.6-.18,3.29,5.33,5.67,10.68,11.32,16,17a18,18,0,0,1,1.43,2.06l-27.31,6.35c4.11,8.72,8.62,16.68,12.47,25.41l-27.94-1.65,4.78,27.19c-1.65-.48-2.92-.78-4.14-1.22-4.16-1.48-8.3-3-12.44-4.53-2.47-.91-5-1.77-7.38-2.79-1.43-.6-2.11-.31-2.25,1.24-.31,3.45-.55,6.91-1,10.35-.55,4.73-1.22,9.44-1.88,14.53a14.33,14.33,0,0,1-2-1.05C85,223.51,78.51,218.72,72,213.84c-1.1-.83-1.29-.48-1.72.53-3.06,7.09-6.17,14.16-9.26,21.24-.4.92-.77,1.86-1.3,3.13-2.4-3.18-4.59-6.06-6.76-9-3.14-4.2-6.23-8.44-9.44-12.58a3,3,0,0,0-2.15-.8c-12.83,0-25.66,0-38.5,0-2.81,0-2.8,0-2.81-2.77C.06,200,0,186.36,0,172.74Q0,105.92,0,39.1c0-5,.14-10,0-15,0-1.81.63-2.2,2.28-2.19,12.83.05,25.66,0,38.5.06a3.85,3.85,0,0,0,3.62-1.89c3.6-5,7.48-9.84,11.25-14.74C56.87,3.82,58,2.27,59.18.76a4.94,4.94,0,0,1,1-.76,6.13,6.13,0,0,1,.7,1C64,8.44,67.21,15.84,70.25,23.3c.6,1.48,1.19,1.32,2.14.6l11.27-8.58ZM7.17,66.2h3.15c10.73,0,21.46-.08,32.18.13a107.34,107.34,0,0,1,12.22,1.38c5.66.77,10.66,3.33,15.64,5.94a3.72,3.72,0,0,0,2.74.28,8.53,8.53,0,0,1,7,.18c3.45,1.55,5.84,5.86,5.14,9.34a9,9,0,0,1-8.47,7.39c-4.3.34-9.68-3.9-8.94-9.24A2.3,2.3,0,0,0,66.47,79c-7.75-4.44-16.19-6.12-25-6.22-10.79-.12-21.59-.08-32.38-.11H7c0,5.72.05,11.18,0,16.63,0,1.7.46,2.23,2.23,2.21,9.28-.09,18.56,0,27.84,0A24.31,24.31,0,0,1,50.19,95.5a27.05,27.05,0,0,1,12.8,19c.58,3.58-.05,7.42-.5,11.1-.63,5.17-3.36,9.44-6.87,13.1A28,28,0,0,1,35,147.51c-8.49.1-17,0-25.47,0H7.15v16.56c4.79.24,9.43.6,14.07.69,6.91.14,13.82.07,20.73.13a50.59,50.59,0,0,0,15-2.19,44.09,44.09,0,0,0,21-13.49C85.17,141,89.2,131.43,89.3,120.38c0-3-.14-6.05-.18-9.08,0-2.19.71-3.1,2.54-3.27,2-.18,3.58.85,3.84,2.7a40.1,40.1,0,0,1,.67,7.23,68.66,68.66,0,0,1-1.94,14.49A48.32,48.32,0,0,1,86.57,149C76.11,163.22,62,171,44.18,171.29c-11.58.16-23.16,0-34.75-.09H7.17v22.9c.87,0,1.58,0,2.29,0,9.26-.19,18.53-.32,27.79-.59,6.94-.2,13.92-.23,20.81-1a62.94,62.94,0,0,0,14.12-3.34A75.24,75.24,0,0,0,93.4,177.35c2.48-1.94,4.05-3.73,3.72-7.26-.41-4.33,3.56-8.08,7.71-8.34a8.88,8.88,0,0,1,9.61,7.89c.67,6.1-5.52,11.08-11.42,9.43a2.52,2.52,0,0,0-1.8.25,21.23,21.23,0,0,0-2.38,2,80.62,80.62,0,0,1-36.68,17.47,88.49,88.49,0,0,1-15.6,1.55c-12.63.26-25.27.17-37.91.22H6.38v10.2h2.5c11.71,0,23.43,0,35.14,0a3.85,3.85,0,0,1,2.45.77A25.06,25.06,0,0,1,49,214.88l9.15,12.18a5.8,5.8,0,0,0,1-1.13c2.18-5.12,4.33-10.24,6.49-15.37A7.25,7.25,0,0,1,72,206.87a1.89,1.89,0,0,1,.79.44c3.11,2.25,6.22,4.5,9.31,6.77,2.28,1.68,4.54,3.4,6.84,5.12.37-2.18.78-4.09,1-6,.39-3.51.45-7.07,1.05-10.54.36-2.08,0-4.63,2.91-5.77,1.92-.75,3.34-.2,5,.41,4.14,1.54,8.3,3,12.46,4.52,1.22.44,2.48.79,3.93,1.25-.64-3.94-1.2-7.46-1.8-11a56.52,56.52,0,0,0-1.37-6.86c-.85-2.8.89-4.3,2.51-5.9a2.59,2.59,0,0,1,1.73-.66c3.34.12,6.67.34,10,.55,1.31.08,2.61.2,3.92.31l6,.51a10.42,10.42,0,0,0-.45-1.6c-2.19-4.37-4.28-8.8-6.64-13.08-1.42-2.59-2.67-5-.44-7.71.54-.67.87-1.82,1.53-2,2.26-.73,4.63-1.16,7-1.68,4-.9,8-1.78,12.37-2.73a9.78,9.78,0,0,0-.79-1.39c-1-1.24-2.08-2.48-3.18-3.67-3-3.23-6.05-6.4-9-9.68-1.54-1.72-.55-6.69,1.37-7.79q7.63-4.38,15.23-8.81a4.82,4.82,0,0,0,.95-1c-5.22-3-10.12-6-15.23-8.62-2.26-1.15-2.69-2.95-2.93-4.93a3.88,3.88,0,0,1,.89-2.74c4.25-4.66,8.62-9.21,13.2-14.07-3.36-.84-6.52-1.66-9.69-2.42-2.64-.63-5.3-1.22-8-1.78-2.17-.46-3.19-1.85-3.93-3.9a4.33,4.33,0,0,1,.08-4c2.65-5.11,5.12-10.31,7.63-15.49a4.87,4.87,0,0,0,.24-1.21,7.7,7.7,0,0,0-1.25-.11c-1.57.11-3.13.27-4.69.39-3.07.23-6.14.36-9.2.7s-6.1.33-7.86-3c0,0-.12-.05-.17-.09-1.31-1-1.25-2.28-.94-3.66.22-1,.42-2,.63-3,.44-2.16.93-4.31,1.3-6.48.47-2.73.83-5.47,1.33-8.75-5,1.82-9.37,3.51-13.84,5-2.89,1-5.85,3.11-8.85.21-.71-.69-1.77-1.42-1.89-2.25-.72-4.9-1.18-9.84-1.78-14.77-.19-1.57-.55-3.12-.88-4.89-5.15,3.93-10,7.65-14.87,11.34-.6.45-1.42,1.16-2,1-2.64-.63-5-1.2-6.11-4.58C63.65,21.4,61.09,16.31,58.83,11c-.49.56-.89,1-1.23,1.42C54,17,50.33,21.59,46.89,26.33a2.87,2.87,0,0,1-2.78,1.26H6.39v9.48c.89,0,1.61,0,2.32,0l23.64-.66c11.91-.32,23.84-.66,35.42,3a125.78,125.78,0,0,1,12.55,4.41,77.29,77.29,0,0,1,19.1,12.09,81.22,81.22,0,0,1,17.51,20.68A69.2,69.2,0,0,1,125,95.2c1.06,4.27,2.61,8.56,2.77,12.88a223.12,223.12,0,0,1-.6,23.37c-.24,3.57-1.42,7.09-2.33,10.59a3.13,3.13,0,0,1-4.38,2.38c-1.56-.57-2.26-2.83-1.83-4.62,1.08-4.46,2.55-8.94,2.78-13.47a119.27,119.27,0,0,0-.63-19.22,65.07,65.07,0,0,0-3.36-14.32,71,71,0,0,0-9.78-18.42A75.36,75.36,0,0,0,85,53.63a60.54,60.54,0,0,0-16.72-7.24c-4.66-1.1-9.35-2.76-14.06-2.86-15.06-.33-30.14,0-45.21,0-1.52,0-2.07.58-2.06,2.12C7,51.88,7,58.14,7,64.39,7,64.9,7.1,65.42,7.17,66.2Zm.05,74.27c.54.06.86.13,1.19.13,9.41,0,18.81.12,28.21-.07a20.48,20.48,0,0,0,7.49-1.67,21.16,21.16,0,0,0,11.72-26.2A21.39,21.39,0,0,0,34.75,97.82c-8.48.14-17,0-25.45,0h-2V115a3.45,3.45,0,0,0,.56.13c4.47,0,8.95-.08,13.42.07a5.06,5.06,0,0,0,4.63-2,7.62,7.62,0,0,1,8.64-2.51c4.28,1.39,6.07,3.95,6.46,8,.33,3.54-1.79,7.24-6.34,9a8.14,8.14,0,0,1-9.38-3.39c-1.49-2.55-3.29-2.89-5.82-2.76-3.28.16-6.58,0-9.86,0H7.22Z"/><path class="cls-1" d="M291.31,191.07v-7.74a8.35,8.35,0,0,0-1.47,1c-3.35,3.72-7.29,6.72-12.1,8a24.94,24.94,0,0,1-12.35.53A25.73,25.73,0,0,1,250.76,184a25.18,25.18,0,0,1-6-13.46c-.18-1.68-.74-3.37-.61-5,.9-11.17,5.78-19.89,16.16-24.86a25.07,25.07,0,0,1,28.8,6.43c.52.58,1.17,1.06,2,1.82.05-.94.11-1.5.11-2.07,0-6.91,0-13.82,0-20.72,0-1.71-.49-2.41-2.25-2.27a41.34,41.34,0,0,1-4.73,0,3.09,3.09,0,0,1-3.14-3c0-1.79.91-2.67,3.05-2.7,4.19-.06,8.37,0,12.76,0v67.36c2.29,0,4.38-.06,6.46,0,2.38.09,3.61,1.48,3.08,3.66-.17.71-1.07,1.74-1.66,1.76C300.4,191.14,295.95,191.07,291.31,191.07Zm-41.08-23.33c-.2,4,1.73,8.9,5.6,13a19.9,19.9,0,0,0,28,1.51,19.62,19.62,0,0,0,6.52-10.74c.57-2.69,1.49-5.53.35-8.46-.9-2.32-.92-5-2.1-7.17-3.09-5.54-7.5-9.42-14-10.89a17.85,17.85,0,0,0-12.41,1.52C254.3,150.54,250.25,157.07,250.23,167.74Z"/><path class="cls-1" d="M473.17,157.91v41h-4.79v-3.78H428.91v3.57c-.3.18-.4.29-.51.3-5,.39-5,.39-5-4.64,0-11.38,0-22.76,0-34.14,0-1.84.38-2.48,2.36-2.47,15.2.08,30.39,0,45.59,0C471.86,157.82,472.43,157.87,473.17,157.91ZM451,162.7c0,3.51-.06,6.84.07,10.17a2,2,0,0,0,1.4,1.33c4.79.1,9.57.09,14.36,0,.49,0,1.39-.6,1.4-.95.1-3.51.06-7,.06-10.57Zm8.44,27.36c2.37,0,4.73,0,7.1,0,1.22,0,1.82-.38,1.79-1.7q-.09-4,0-8.08c0-1.3-.53-1.74-1.77-1.73q-6.9.05-13.8,0c-1.22,0-1.81.37-1.78,1.7q.1,4,0,8.08c0,1.3.51,1.75,1.76,1.73C455,190,457.21,190.06,459.45,190.06ZM428.9,162.71c0,3.55,0,6.95.06,10.34,0,.42.89,1.15,1.38,1.16q6.79.13,13.59,0c.51,0,1.44-.7,1.46-1.11.12-3.44.07-6.89.07-10.39Zm8.3,27.35c2.17,0,4.34,0,6.51,0,1.24,0,1.8-.45,1.78-1.74,0-2.7,0-5.4,0-8.09,0-1.18-.49-1.67-1.65-1.67q-6.71,0-13.42,0c-1.06,0-1.55.43-1.54,1.54,0,2.76.06,5.53,0,8.29,0,1.36.62,1.7,1.81,1.67C432.86,190,435,190.06,437.2,190.06Z"/><path class="cls-1" d="M657.32,142.91c-1.44,0-3.09-.11-4.72,0s-3.19.53-4.86.83v46.11l14-6.6a32.59,32.59,0,0,1,.79,4.43,2.35,2.35,0,0,1-1.19,1.69c-4.9,2.49-9.86,4.87-14.79,7.3a7.26,7.26,0,0,0-1.25.87c-2.13,1.69-2.13,1.7-3.69-.49-.59-.83-1.14-1.68-1.79-2.65,2.12-2.24,2.41-5.06,2.39-8.08-.08-15,0-30-.07-45,0-1.82.41-2.45,2.34-2.59,4.75-.34,9.49-.92,14.21-1.55,5.21-.69,10.41-1.54,15.61-2.34a6.7,6.7,0,0,0,1.09-.43c3-1.05,5.8.56,6.16,3.71a1.94,1.94,0,0,1-1.23,1.45c-4.84.66-9.7,1.22-14.56,1.74-1.63.17-2.55.71-2.31,2.58.61,4.71,1.1,9.44,1.69,14.16.06.46.47.87.88,1.57,4.72-2.86,9.38-5.58,13.92-8.49,1.3-.84,2-.78,2.77.46.6,1,1.3,1.85,2.15,3.06-2,1.3-4,2.68-6,3.87A108.32,108.32,0,0,1,668.69,164c-1.75.77-1.61,1.85-1.15,2.91,3.31,7.65,7.86,14.42,14.51,19.63q1.88,1.48,3.67,3.08c.29.27.64,1,.52,1.13a22.16,22.16,0,0,1-3.2,3.52c-.35.28-1.61-.13-2.16-.58a57.56,57.56,0,0,1-17.22-22.16,78.8,78.8,0,0,1-4.17-14.14C658.45,152.7,658,147.89,657.32,142.91Z"/><path class="cls-1" d="M533.08,156.93h17.38c0-2.36.09-4.71,0-7-.09-1.71.46-2.35,2.23-2.26,3.66.17,3.52-.6,3.53,3.49,0,1.32.07,2.64,0,3.95-.11,1.57.54,2.05,2.08,2,5.72-.07,11.45,0,17.36,0v4.77h-2.06c-5.13,0-10.27,0-15.4,0-1.44,0-2,.45-2,1.92.08,2.17.07,4.34,0,6.51-.05,1.77.72,2.48,2.48,2.46,6.71,0,13.43,0,20.14,0h2.5V177H559.07c-2.56,0-2.88.32-2.89,2.81,0,2.89,0,5.78,0,8.85h-5.72c0-3.16-.09-6.24,0-9.31.08-1.81-.49-2.41-2.34-2.39-8.29.09-16.58,0-24.88,0h-2.71v-4.31h2.23c8.42,0,16.85-.05,25.27,0,1.95,0,2.52-.62,2.43-2.5-.14-2.69,0-5.39,0-8.31H526.75c0-2.67-.75-5,1.15-7.37a95.08,95.08,0,0,0,5.81-8.75,8.93,8.93,0,0,0,.62-1.91H522.12v-4.37c3.35,0,6.68,0,10,0,5.74-.07,4.74.91,7.33-5,.49-1.12,1-2.24,1.51-3.33.17-.35.61-.88.83-.84,1.85.35,3.67.82,5.65,1.28l-4.2,7.81H578v4.22c-.81.06-1.63.16-2.45.16-10.73,0-21.45,0-32.18,0a4,4,0,0,0-4,2.39C537.42,149.75,535.27,153.21,533.08,156.93Z"/><path class="cls-1" d="M428.11,144.22l11.62-5.65-3.75-6.7a24.34,24.34,0,0,1,3.4-2.25c.4-.19,1.48.36,1.8.85,2.29,3.51,4.45,7.1,6.66,10.66a6.21,6.21,0,0,0,.67,1c.26.28.58.64.9.68s.55-.45.69-.77a32.55,32.55,0,0,0,2.51-13.09,26.2,26.2,0,0,1,.47-4c.17-1.17-.21-1.76-1.46-1.72s-2.47,0-3.61,0c-.17-.28-.28-.38-.29-.5-.42-4.24-.42-4.24,3.82-4.24,7.5,0,15,0,22.51,0,1.75,0,2.29.53,2.21,2.27-.35,7.39-.47,14.8-.92,22.18-.21,3.44-1.45,6.56-4.85,8.27a2.82,2.82,0,0,1-.88.4c-3.06.3-6.12.57-9.19.84-1,.09-1.53-.24-1.62-1.4a33.64,33.64,0,0,0-.86-4.15c2.6,0,5,0,7.42,0a4.18,4.18,0,0,0,4.47-3.88c.46-6.46.78-12.93,1.18-19.73-4.19,0-8,0-11.75.07-.35,0-.93,1-1,1.57-.16,2.1-.09,4.21-.19,6.31a33.4,33.4,0,0,1-7.49,20.17,21.25,21.25,0,0,1-4,3.36,1.8,1.8,0,0,1-1.65,0c-3.5-2.39-3.5-2.67-.39-5.38a9.34,9.34,0,0,0,1.14-1,17,17,0,0,0,2.51-3.83,11.28,11.28,0,0,0-1.65.72c-1.43.91-2.63.76-3.34-.82-.56-1.23-1-1.46-2.31-.73-5,2.87-10.14,5.58-15.21,8.35-.21.12-.4.35-.62.37-1.19.1-3.64-3.66-3.35-4.85a35.65,35.65,0,0,0,1.41-7.14c.2-6,.1-12,0-18,0-1.57.58-2.14,2.11-2.4,3.49-.6,7-1.39,10.41-2.17,2.13-.48,4.23-1.09,6.34-1.62.22-.05.67,0,.71.15.55,1.69,2.47,2.93,1.67,5.24-4.84.83-9.7,1.61-14.52,2.54-.69.13-1.76,1-1.77,1.58C428.06,131.67,428.11,137.71,428.11,144.22Z"/><path class="cls-1" d="M214.81,185.26c-2.59,1.64-4.74,3.1-7,4.41a27.93,27.93,0,0,1-16.78,3.67,14.63,14.63,0,0,1-12.62-11.46,32.26,32.26,0,0,1-.71-6.16c-.08-8.88,0-17.77,0-26.65,0-2.87,0-2.87-3-2.87-1.32,0-2.63,0-3.95,0-2.13-.12-2.74-.77-2.73-2.72s.84-2.89,2.84-2.93c4-.07,8,0,12.29,0,.08.93.22,1.81.22,2.69,0,10.92-.06,21.85.07,32.77a15.53,15.53,0,0,0,1.44,6.36,8.27,8.27,0,0,0,6.42,4.83c7.25,1.08,13.28-1.63,18.82-5.92.56-.44,1.11-.89,1.67-1.33,1.95-1.53,3.15-3.2,3.07-6-.23-8.48-.13-17,0-25.46,0-1.76-.58-2.31-2.28-2.24-2.43.1-4.87,0-7.3,0-1.71,0-2.44-.89-2.48-2.57s.57-3,2.29-3c4.8-.13,9.6-.07,14.41,0,.34,0,.85.53,1,.91a7.45,7.45,0,0,1,.09,2q0,19.44,0,38.89c0,3.25,0,3.25,3.18,3.28a4.7,4.7,0,0,1,1.94.17c1.27.63,2.7,1.46,2.44,3.1a3.51,3.51,0,0,1-3.62,2.89c-2.76.14-5.53.1-8.29,0a2,2,0,0,1-1.31-1.4A46.11,46.11,0,0,1,214.81,185.26Z"/><path class="cls-1" d="M368.86,140.5c.06,1,.14,1.85.14,2.68q0,19.93,0,39.87c0,2.48,0,2.5,2.56,2.51.53,0,1.05,0,1.58,0,1.95.12,3.49,1.42,3.52,2.93a3.5,3.5,0,0,1-3.32,3.21c-2.89.14-5.79.11-8.68,0-.48,0-1.25-.91-1.32-1.47a42.74,42.74,0,0,1-.06-5c-1.71,1.17-3.12,2.18-4.58,3.12-5.51,3.54-11.53,5.5-18.11,5-6.84-.55-11.85-4.13-13.66-11.84a33.75,33.75,0,0,1-.74-7.34q-.13-12.83,0-25.66c0-1.84-.55-2.49-2.37-2.35-1.57.12-3.15,0-4.73,0-1.76,0-2.58-1-2.56-2.7a2.67,2.67,0,0,1,2.74-2.91c4.07-.07,8.14,0,12.42,0,.07.94.17,1.76.17,2.58,0,10.79-.07,21.58.06,32.37,0,3.27.43,6.64,3.06,9.1a10.61,10.61,0,0,0,9.11,2.78c3.33-.41,6.61-.94,9.39-2.69a94.83,94.83,0,0,0,9.05-6.94,2.65,2.65,0,0,0,.7-1.85c0-9.28,0-18.55.05-27.83,0-1.41-.56-1.84-1.88-1.82-2.5,0-5,0-7.5,0a2.36,2.36,0,0,1-2.64-2.64c0-1.74.9-2.9,2.47-2.95C358.73,140.41,363.72,140.5,368.86,140.5Z"/><path class="cls-1" d="M405.08,136.58H394.21v-5c2.93,0,5.81-.1,8.68,0,1.86.08,2.38-.62,2.34-2.41-.11-4.54,0-9.08-.07-13.62,0-1.49.33-2.12,1.95-2.07,4.26.12,3.45-.25,3.5,3.44,0,3.35,0,6.71,0,10.07,0,5.15-.7,4.51,4.46,4.55,1.37,0,2.74,0,4.28,0v4.93h-8.63v11.88c1.6-1.66,2.72-.94,3.93.22,2.34,2.25,4.77,4.4,7.19,6.56,1.07,1,1.08,1.78-.11,2.66-.92.68-1.77,1.47-3,2.51l-7.6-8.16-.54.25v2.25q0,21,0,42c0,2.62-2.05,4-4.43,2.72a3,3,0,0,1-1-2.3c-.06-10.92,0-21.84,0-32.77,0-3,0-6.05,0-9.08,0-.68-.07-1.37-.14-2.49-1.81,4.16-3.36,7.89-5,11.56s-3.25,7.29-6.23,10.41c-.78-2-1.47-3.41-1.91-4.94a3.17,3.17,0,0,1,.17-2.4c4.35-5.91,7.1-12.62,9.78-19.35,1.33-3.32,2.19-6.83,3.23-10.27A5.19,5.19,0,0,0,405.08,136.58Z"/><path class="cls-1" d="M682.8,122.46c-2.67.25-5.06.45-7.44.7-4.4.47-8.8,1-13.2,1.45-.26,0-.53,0-.79,0-5.16.31-10.31.6-15.47.93-3.92.26-7.83.62-11.75.85-1.69.1-2.33.76-2.32,2.54,0,12.24.17,24.48-.16,36.71-.12,4.62-1.33,9.22-2.12,13.82-1.22,7.07-5,13-8.78,18.83-.94,1.44-1.76,1.67-2.92.37-.09-.1-.15-.22-.24-.31-.78-.73-2.2-1.45-2.2-2.18,0-.94,1.13-1.88,1.75-2.84,2.8-4.36,5.41-8.77,6.84-13.86,2-7.19,2.35-14.5,2.34-21.88,0-11.32,0-22.63,0-33.95,0-1.72.5-2.29,2.17-2.36,4.38-.17,8.75-.44,13.12-.75q10.07-.73,20.13-1.58c5.33-.45,10.64-1.07,16-1.47,1.23-.09,2.69-1.71,3.72,0a14.84,14.84,0,0,1,1,3.7C682.52,121.52,682.6,121.77,682.8,122.46Z"/><path class="cls-1" d="M580.84,196.61H569.36c-11.25,0-22.5,0-33.75-.13a45.24,45.24,0,0,1-9.36-.83c-5.21-1.17-10-3.34-13.78-7.38-1.71-1.84-2-1.81-3.76,0q-4.06,4.17-8.09,8.35c-.88.91-1.68,1.18-2.73.08a29.35,29.35,0,0,0-3.33-2.59c4.39-4,8.2-7.44,12-10.94a3.56,3.56,0,0,0,1.24-2.13c.09-6.84.05-13.68,0-20.53a8,8,0,0,0-.12-.92H496v-4.87h17.33c0,.75,0,1.45,0,2.14,0,7.11.24,14.22-.11,21.31-.17,3.42,1.31,5.43,3.7,7.2A28.64,28.64,0,0,0,534.45,191c15.53,0,31.05,0,46.58,0,.52,0,1,0,1.82.09Z"/><path class="cls-1" d="M582,121.48v4.84H579.9c-6.71,0-13.42,0-20.12,0-1.57,0-2.17.52-2,2.06.07.78,0,1.58,0,2.37,0,2.62,0,2.62-2.59,2.62s-2.49,0-2.51-2.9c0-4.75.49-4.09-4.08-4.1-7.16,0-14.32,0-21.76,0,0,1.8-.05,3.49,0,5.17.05,1.28-.27,1.92-1.74,1.87-4.57-.15-3.82.59-3.9-3.83,0-1,0-2,0-3.14H496v-4.81H521.2c0-2.39.07-4.59,0-6.8-.06-1.44.39-2,1.9-1.92,4.25.14,3.71-.46,3.75,3.63,0,1.57,0,3.14,0,4.83.61.06,1.11.15,1.61.15,7.37,0,14.73,0,22.1,0,1.66,0,2.26-.52,2.15-2.15s0-3.16,0-4.73c0-1.21.36-1.89,1.7-1.74a8.86,8.86,0,0,0,1.77,0c1.22-.12,1.65.48,1.63,1.62,0,1.58.08,3.16,0,4.73s.44,2.31,2.22,2.28c6.58-.09,13.15,0,19.73,0Z"/><path class="cls-1" d="M611.52,163.5c1.81.86,3.39,1.53,4.87,2.38.31.18.46,1.1.3,1.54-1.69,4.81-3.55,9.56-5.18,14.38-1.52,4.49-2.81,9-4.21,13.57a14.31,14.31,0,0,1-.89,2.53,1.48,1.48,0,0,1-1.24.62,11.85,11.85,0,0,1-2.5-.93c-2.46-1.11-2.31-1.07-1.26-3.74,1.56-4,2.92-8,4.32-12.05,1.26-3.62,2.53-7.23,3.7-10.88C610.18,168.62,610.76,166.25,611.52,163.5Z"/><path class="cls-1" d="M602.1,138.41a26.66,26.66,0,0,1,2.59,1.52c3.7,2.78,7.35,5.64,11.06,8.41,1.23.92,1.3,1.61.19,2.76-2.94,3.05-2.86,3.08-6.16.39s-6.53-5.32-9.88-7.87c-1.44-1.1-1.56-2-.14-3.1C600.59,139.87,601.33,139.11,602.1,138.41Z"/><path class="cls-1" d="M606.28,115l13.34,11.29c.93.79.87,1.56-.1,2.3a31.21,31.21,0,0,1-2.73,2.07,1.57,1.57,0,0,1-1.44-.21c-4-3.65-8-7.38-12.07-11-.92-.83-.77-1.32.08-2S605.12,116,606.28,115Z"/><path class="cls-1" d="M512.11,147.69c-3.08-4-6-7.78-9-11.59-.35-.45-.92-.8-1.11-1.31a1.76,1.76,0,0,1,.15-1.53,10,10,0,0,1,2.73-2c.39-.18,1.35.31,1.75.77,2.55,2.93,5,6,7.52,8.9,3.53,4.09,3.5,3.17-1.07,6.14C512.8,147.2,512.54,147.39,512.11,147.69Z"/></g></g></svg>