<svg xmlns="http://www.w3.org/2000/svg" viewBox="0 0 33.1 32.29"><defs><style>.cls-1{fill:#666;}</style></defs><title>edit</title><g id="图层_2" data-name="图层 2"><g id="图层_1-2" data-name="图层 1"><path class="cls-1" d="M24.06,0H6.71A6.72,6.72,0,0,0,0,6.71V23.42a6.72,6.72,0,0,0,6.71,6.71H19.46c0-.5,0-1,.07-1.49H6.71a5.23,5.23,0,0,1-5.22-5.22V6.71A5.23,5.23,0,0,1,6.71,1.49H24.06a5.23,5.23,0,0,1,5.22,5.22V18.63l1.49,0V6.71A6.72,6.72,0,0,0,24.06,0Z"/><rect class="cls-1" x="24.02" y="12.93" width="1.49" height="22.07" transform="translate(-9.69 24.53) rotate(-45)"/></g></g></svg>