<?xml version="1.0" encoding="utf-8"?>
<!-- Generator: Adobe Illustrator 21.0.0, SVG Export Plug-In . SVG Version: 6.00 Build 0)  -->
<svg version="1.1" id="图层_1" xmlns="http://www.w3.org/2000/svg" xmlns:xlink="http://www.w3.org/1999/xlink" x="0px" y="0px"
	 viewBox="0 0 36.3 38.9" style="enable-background:new 0 0 36.3 38.9;" xml:space="preserve">
<style type="text/css">
	.st0{fill:#CEA7A6;}
</style>
<title>location</title>
<g id="图层_2">
	<g id="图层_1-2">
		<path class="st0" d="M18.1,33.2l-0.9-1.4c-1.5-2.2-3.2-4.4-5.1-6.3C8.6,21.6,5,17.6,5,13C5,5.8,10.8,0,18,0s13,5.8,13,13
			c0,4.6-3.6,8.5-7.1,12.4c-1.9,1.9-3.6,4-5,6.3L18.1,33.2L18.1,33.2z M18,2C12,2,7,6.9,7,13c0,3.9,3.2,7.4,6.6,11.1
			c1.6,1.7,3,3.4,4.4,5.3c1.4-1.9,2.9-3.7,4.5-5.3c3.3-3.6,6.6-7.3,6.6-11.1C29.1,6.9,24.1,2,18,2z"/>
		<path class="st0" d="M18,19.2c-3.4,0-6.2-2.8-6.2-6.2c0-3.4,2.8-6.2,6.2-6.2c3.4,0,6.2,2.8,6.2,6.2C24.2,16.4,21.5,19.2,18,19.2
			L18,19.2z M18,8.8c-2.3,0-4.2,1.9-4.2,4.2c0,2.3,1.9,4.2,4.2,4.2c2.3,0,4.2-1.9,4.2-4.2c0,0,0,0,0,0C22.3,10.7,20.4,8.8,18,8.8
			L18,8.8z"/>
		<path class="st0" d="M35.3,38.9H1c-0.6,0-1-0.5-0.9-1.1c0-0.2,0.1-0.4,0.2-0.6L9,27.6c0.3-0.4,1-0.5,1.4-0.1
			c0.4,0.3,0.5,1,0.1,1.4c0,0-0.1,0.1-0.1,0.1l-7.3,8H33l-7.7-8c-0.3-0.5-0.1-1.1,0.3-1.4c0.3-0.2,0.7-0.2,1.1,0l9.3,9.6
			c0.4,0.4,0.3,1-0.1,1.4C35.7,38.8,35.5,38.9,35.3,38.9L35.3,38.9z"/>
	</g>
</g>
</svg>
