<svg xmlns="http://www.w3.org/2000/svg" viewBox="0 0 53.15 55.9"><defs><style>.cls-1{fill:none;stroke:#666;stroke-miterlimit:10;stroke-width:3px;}</style></defs><title>4_03</title><g id="图层_2" data-name="图层 2"><g id="图层_1-2" data-name="图层 1"><path class="cls-1" d="M24.3,2.44,1.93,24.82a1.44,1.44,0,0,0,1,2.46h0a1.44,1.44,0,0,1,1.44,1.44V53A1.44,1.44,0,0,0,5.83,54.4h11.9A1.44,1.44,0,0,0,19.18,53V33.66a1.44,1.44,0,0,1,1.44-1.44h11.9A1.44,1.44,0,0,1,34,33.66V53a1.44,1.44,0,0,0,1.44,1.44h11.9A1.44,1.44,0,0,0,48.76,53V28.73a1.44,1.44,0,0,1,1.44-1.44h0a1.44,1.44,0,0,0,1-2.46L28.84,2.44A3.21,3.21,0,0,0,24.3,2.44Z"/></g></g></svg>