<svg xmlns="http://www.w3.org/2000/svg" viewBox="0 0 61.97 55"><defs><style>.cls-1{fill:#666;fill-rule:evenodd;}</style></defs><title>5_03</title><g id="图层_2" data-name="图层 2"><g id="图层_1-2" data-name="图层 1"><path class="cls-1" d="M22.1,46.59a4.21,4.21,0,1,0,4.28,4.21A4.25,4.25,0,0,0,22.1,46.59Zm0,5.94a1.74,1.74,0,1,1,1.77-1.74A1.76,1.76,0,0,1,22.1,52.53Z"/><path class="cls-1" d="M51.76,46.59A4.21,4.21,0,1,0,56,50.79,4.25,4.25,0,0,0,51.76,46.59Zm0,5.94a1.74,1.74,0,1,1,1.77-1.74A1.76,1.76,0,0,1,51.76,52.53Z"/><path class="cls-1" d="M57.62,43.23a1.23,1.23,0,1,0,0-2.47H20.09L11.18,14.11H59.34l-3.42,15.1L27.37,32a1.26,1.26,0,0,0-.85.45,1.22,1.22,0,0,0-.28.9,1.25,1.25,0,0,0,1.38,1.1L57,31.58l.17.43,0-.45.33.38-.16-.42.16-.06.13-.08.3-.28.44.17L58,31l.06-.1a1.29,1.29,0,0,0,.1-.28L61.94,14a1.19,1.19,0,0,0,0-.57l0-.11,0-.11a1.22,1.22,0,0,0,0-.3,1.25,1.25,0,0,0-1.26-1.23H10.36L6.75.85A1.28,1.28,0,0,0,5.51,0H1.26A1.25,1.25,0,0,0,0,1.23,1.25,1.25,0,0,0,1.26,2.47H4.64L18,42.43a1.25,1.25,0,0,0,1.5.81Z"/></g></g></svg>