<svg xmlns="http://www.w3.org/2000/svg" viewBox="0 0 26.26 27.57"><defs><style>.cls-1{fill:#ea2134;}</style></defs><title>0_03</title><g id="图层_2" data-name="图层 2"><g id="图层_1-2" data-name="图层 1"><path class="cls-1" d="M16.34,4.5a.47.47,0,0,1-.41-.71l1.54-2.6a.47.47,0,1,1,.82.48l-1.54,2.6A.47.47,0,0,1,16.34,4.5Z"/><path class="cls-1" d="M10.19,4.5a.47.47,0,0,1-.4-.22L8.13,1.68a.47.47,0,1,1,.8-.51l1.66,2.6a.47.47,0,0,1-.4.73Z"/><path class="cls-1" d="M13.15,4.62a.47.47,0,0,1-.47-.47V.47a.47.47,0,1,1,.95,0V4.14A.47.47,0,0,1,13.15,4.62Z"/><path class="cls-1" d="M22.3,5.45,4.17,5.4,0,11.69,13.11,27.57,26.26,11.68Zm-9.12.92,4.18,4.78H9l4-4.78Zm1.26,0,6.76,0-2.88,4.42Zm3.27,5.72-4.6,13.26L8.63,12.1ZM8,10.84,5.22,6.35l6.52,0Zm-.92.31H1.49L4.38,6.8Zm.51.95,4.21,12.44L1.57,12.1Zm11.09,0h6L14.41,24.52Zm.51-.95,2.82-4.32,2.74,4.32Z"/></g></g></svg>