<?xml version="1.0" encoding="utf-8"?>
<!-- Generator: Adobe Illustrator 21.0.0, SVG Export Plug-In . SVG Version: 6.00 Build 0)  -->
<svg version="1.1" id="图层_1" xmlns="http://www.w3.org/2000/svg" xmlns:xlink="http://www.w3.org/1999/xlink" x="0px" y="0px"
	 viewBox="0 0 66.4 66.4" style="enable-background:new 0 0 66.4 66.4;" xml:space="preserve">
<style type="text/css">
	.st0{fill:#CCCCCC;}
	.st1{fill:#FFFFFF;}
</style>
<title>coupon_unselect</title>
<g id="图层_2">
	<g id="图层_1-2">
		<circle class="st0" cx="33.2" cy="33.2" r="33.2"/>
		<path class="st1" d="M46.8,45.7H30.5c-0.6,0-1.1-0.4-1.2-1c-0.2-0.8-1-1.3-1.8-1.2c-0.6,0.1-1,0.6-1.2,1.2c-0.1,0.6-0.6,1-1.2,1
			h-3.5c-4,0-7.3-3.3-7.3-7.3c0-0.6,0.5-1.2,1.1-1.3c1.9-0.1,3.4-1.8,3.2-3.8c-0.1-1.7-1.5-3.1-3.2-3.2c-0.6-0.1-1.1-0.6-1.1-1.3
			c0-4,3.3-7.3,7.3-7.3h3.4c0.6,0,1.1,0.5,1.2,1.1c0.1,0.9,0.9,1.5,1.7,1.4c0.7-0.1,1.3-0.6,1.4-1.4c0.1-0.6,0.6-1.1,1.2-1.1h16.5
			c3.8,0,6.9,3,7.1,6.8c0,0.8-0.5,1.5-1.3,1.6c-1.9,0.2-3.3,2-3.1,3.9c0.2,1.6,1.5,2.9,3.2,3.1c0.7,0,1.2,0.6,1.2,1.3v0.2
			C54.1,42.4,50.9,45.7,46.8,45.7C46.8,45.7,46.8,45.7,46.8,45.7z M31.1,43.8h15.7c2.8,0,5.2-2.2,5.3-5c-3-0.5-4.9-3.4-4.4-6.4
			c0.4-2.2,2.2-4,4.4-4.4c-0.3-2.6-2.5-4.5-5.1-4.5H31.1c-0.6,1.8-2.5,2.9-4.4,2.3c-1.1-0.3-2-1.2-2.3-2.3h-2.8
			c-2.7,0-5,2.1-5.3,4.8c2.9,0.7,4.7,3.7,4,6.6c-0.5,2-2,3.5-4,4c0.3,2.7,2.6,4.8,5.3,4.8h2.9c0.6-1.8,2.6-2.8,4.4-2.1
			C30,41.9,30.7,42.7,31.1,43.8L31.1,43.8z M15.7,39L15.7,39z M52.6,28L52.6,28z M24.4,22.9L24.4,22.9z M31.3,22.9L31.3,22.9z"/>
		<path class="st1" d="M34.8,36.3h3c0.3,0,0.6,0.2,0.6,0.5c0,0,0,0.1,0,0.2c0,0.3-0.2,0.6-0.5,0.6c-0.1,0-0.1,0-0.2,0h-3v2.6
			c0,0.2,0,0.4-0.1,0.6c-0.1,0.1-0.3,0.2-0.5,0.2c-0.2,0-0.4,0-0.5-0.2c-0.1-0.2-0.2-0.4-0.2-0.6v-2.6h-3c-0.3,0-0.6-0.2-0.6-0.4
			c0,0,0-0.1,0-0.2c0-0.4,0.2-0.6,0.6-0.6h3v-1.8h-3c-0.3,0-0.6-0.2-0.6-0.4c0,0,0-0.1,0-0.2c0-0.4,0.2-0.6,0.6-0.6h2.2l-1.3-2.2
			L30,29c-0.2-0.4-0.2-0.7,0.1-0.9c0.1-0.1,0.3-0.1,0.5-0.1c0.1,0,0.3,0.1,0.4,0.4l3,5h0.3l1.5-2.5l1.5-2.5c0.2-0.3,0.3-0.4,0.5-0.4
			c0.2,0,0.3,0.1,0.4,0.2c0.1,0.1,0.2,0.2,0.3,0.4c0,0.2-0.1,0.4-0.2,0.5l-2.6,4.3h2.2c0.3,0,0.6,0.2,0.6,0.5c0,0,0,0.1,0,0.2
			c0,0.3-0.2,0.6-0.5,0.6c-0.1,0-0.1,0-0.2,0h-3L34.8,36.3z"/>
		<path class="st1" d="M34.1,41.4c-0.3,0-0.6-0.1-0.9-0.3c-0.2-0.3-0.3-0.6-0.3-1V38h-2.5c-0.6,0-1.1-0.5-1.1-1.1
			c0-0.6,0.5-1.1,1.1-1.1H33V35h-2.5c-0.6,0-1.1-0.5-1.1-1.1c0-0.6,0.5-1.1,1.1-1.1h1.3l-2.2-3.5c-0.4-0.5-0.3-1.2,0.2-1.6
			c0,0,0,0,0,0c0.2-0.2,0.5-0.3,0.8-0.2c0.3,0.1,0.6,0.3,0.8,0.6l2.8,4.6l2.7-4.5c0.2-0.4,0.5-0.6,0.9-0.7c0.2,0,0.5,0.1,0.7,0.2
			c0.3,0.2,0.5,0.4,0.5,0.8c0,0.3-0.1,0.6-0.3,0.9l-2.1,3.5h1.3c0.6,0,1.1,0.5,1.1,1.1c0,0.6-0.5,1.1-1.1,1.1h-2.6v0.8h2.5
			c0.6,0,1.1,0.5,1.1,1.1c0,0.6-0.5,1.1-1.1,1.1h-2.5v2.1c0,0.3,0,0.7-0.2,0.9C34.8,41.3,34.5,41.4,34.1,41.4z M34,40.4h0.3
			c0-0.1,0-0.2,0-0.3V37h3.6c0,0,0.1,0,0.1,0c0-0.1,0-0.1,0-0.2h-3.7V34h3.6c0,0,0.1,0,0.1,0c0-0.1,0-0.1,0-0.2h-3.2l3.1-5.1
			c0.1-0.1,0.1-0.2,0.1-0.2h-0.1l-0.1,0.1l-3.1,5.2h-0.9l-3.2-5.3c0-0.1-0.1-0.1-0.1-0.1l0,0.1l0,0c0,0.1,0,0.1,0.1,0.2l3.1,5.1
			h-3.1c0,0-0.1,0-0.1,0.1s0,0.1,0.1,0.1h3.5v2.8h-3.6c0,0-0.1,0-0.1,0.1s0,0.1,0.1,0.1h3.5v3.1C33.9,40.2,33.9,40.3,34,40.4
			L34,40.4z"/>
	</g>
</g>
</svg>
