<?xml version="1.0" encoding="utf-8"?>
<!-- Generator: Adobe Illustrator 21.0.0, SVG Export Plug-In . SVG Version: 6.00 Build 0)  -->
<svg version="1.1" id="图层_1" xmlns="http://www.w3.org/2000/svg" xmlns:xlink="http://www.w3.org/1999/xlink" x="0px" y="0px"
	 viewBox="0 0 66.4 66.4" style="enable-background:new 0 0 66.4 66.4;" xml:space="preserve">
<style type="text/css">
	.st0{fill:#CCCCCC;}
	.st1{fill:none;stroke:#FFFFFF;stroke-width:2.5;stroke-miterlimit:10;}
</style>
<title>home_unselect</title>
<g id="图层_2">
	<g id="图层_1-2">
		<circle class="st0" cx="33.2" cy="33.2" r="33.2"/>
		<path class="st1" d="M30.9,13.7L14.6,30c-0.4,0.4-0.4,1.1,0,1.5c0.2,0.2,0.5,0.3,0.8,0.3l0,0c0.6,0,1,0.5,1,1v17.6
			c0,0.6,0.5,1,1,1h8.7c0.6,0,1-0.5,1-1v-14c0-0.6,0.5-1,1-1h8.7c0.6,0,1,0.5,1,1v14c0,0.6,0.5,1.1,1,1.1c0,0,0,0,0,0h8.7
			c0.6,0,1-0.5,1-1V32.8c0-0.6,0.5-1,1-1l0,0c0.6,0,1.1-0.5,1.1-1c0-0.3-0.1-0.6-0.3-0.8L34.2,13.7C33.3,12.7,31.8,12.7,30.9,13.7
			C30.9,13.7,30.9,13.7,30.9,13.7z"/>
	</g>
</g>
</svg>
