<?xml version="1.0" encoding="utf-8"?>
<!-- Generator: Adobe Illustrator 21.0.0, SVG Export Plug-In . SVG Version: 6.00 Build 0)  -->
<svg version="1.1" id="图层_1" xmlns="http://www.w3.org/2000/svg" xmlns:xlink="http://www.w3.org/1999/xlink" x="0px" y="0px"
	 viewBox="0 0 66.4 66.4" style="enable-background:new 0 0 66.4 66.4;" xml:space="preserve">
<style type="text/css">
	.st0{fill:#CCCCCC;}
	.st1{fill:#FFFFFF;}
</style>
<title>order_unselect</title>
<g id="图层_2">
	<g id="图层_1-2">
		<circle class="st0" cx="33.2" cy="33.2" r="33.2"/>
		<path class="st1" d="M26.6,33.2h14.9c0.5,0,0.8-0.4,0.8-0.8c0-0.5-0.4-0.9-0.9-0.9H26.6c-0.5,0-0.9,0.4-0.9,0.8
			C25.8,32.8,26.2,33.2,26.6,33.2z"/>
		<path class="st1" d="M26.6,39.2h14.9c0.5,0,0.8-0.4,0.8-0.8c0-0.5-0.4-0.9-0.9-0.9H26.6c-0.5,0-0.9,0.4-0.9,0.8
			C25.8,38.8,26.2,39.2,26.6,39.2z"/>
		<path class="st1" d="M25.6,18.1h-2.5C22,18,21,18.4,20.2,19.2c-0.6,0.8-1,1.8-0.9,2.8v22.6c-0.1,1.1,0.3,2.1,1,2.9
			c0.8,0.8,1.9,1.2,3,1.1h21.5c2.6,0,4-1.4,4-4V21.9c0-1-0.3-2-1-2.8c-0.7-0.7-1.8-1.1-2.8-1.1h-2c-0.5,0-1,0.3-1,0.7
			c0.1,0.5,0.5,0.9,1,0.9h2c1.1-0.1,2.1,0.8,2.2,1.9c0,0.1,0,0.1,0,0.2v22.9c0.1,1.1-0.8,2.1-1.9,2.1c-0.1,0-0.1,0-0.2,0H23.6
			c-0.6,0-1.3-0.2-1.8-0.6C21.3,46,21,45.4,21,44.8V21.9c-0.1-1.1,0.8-2.1,1.9-2.1c0.1,0,0.1,0,0.2,0h2.5c0.6,0,0.6-0.8,0.6-0.9
			C26.2,18.5,26.1,18.1,25.6,18.1z"/>
		<path class="st1" d="M37.5,17.1h-6.9c-0.9,0.1-1.5,0.9-1.4,1.7c0.1,0.7,0.7,1.3,1.4,1.4h6.9c0.8-0.1,1.4-0.8,1.3-1.6
			C38.9,17.9,38.3,17.2,37.5,17.1z"/>
		<path class="st1" d="M26.6,26c-0.5,0-0.9,0.4-0.9,0.9s0.4,0.9,0.9,0.9h14.9c0.5,0,0.9-0.4,0.9-0.9S42,26,41.6,26H26.6z"/>
	</g>
</g>
</svg>
