<?xml version="1.0" encoding="utf-8"?>
<!-- Generator: Adobe Illustrator 21.0.0, SVG Export Plug-In . SVG Version: 6.00 Build 0)  -->
<svg version="1.1" id="图层_1" xmlns="http://www.w3.org/2000/svg" xmlns:xlink="http://www.w3.org/1999/xlink" x="0px" y="0px"
	 viewBox="0 0 66.4 66.4" style="enable-background:new 0 0 66.4 66.4;" xml:space="preserve">
<style type="text/css">
	.st0{fill:#CEA7A6;}
	.st1{fill:#FFFFFF;}
</style>
<title>stock</title>
<g id="图层_2">
	<g id="图层_1-2">
		<circle class="st0" cx="33.2" cy="33.2" r="33.2"/>
		<path class="st1" d="M33.8,33.3c10.2,0,17.9-3.3,17.9-7.7S44,18,33.8,18s-17.9,3.3-17.9,7.7S23.6,33.3,33.8,33.3z M33.8,19.9
			c9.4,0,16,3,16,5.7s-6.6,5.7-16,5.7s-16-3-16-5.7S24.3,19.9,33.8,19.9z M33.8,41.5c10.2,0,17.9-3.3,17.9-7.6
			c-0.1-1.2-0.6-2.4-1.5-3.2l0,0l0,0l0,0c-0.2-0.2-0.4-0.2-0.6-0.2c-0.5,0-0.9,0.4-0.9,0.9l0,0c0,0.2,0.1,0.5,0.3,0.6l0,0
			c0.5,0.5,0.9,1.2,0.9,1.9c0,2.7-6.6,5.8-16,5.8s-16-3-16-5.8c0-0.8,0.3-1.5,0.9-1.9l0,0l0,0c0.3-0.4,0.3-0.9,0-1.2
			c-0.4-0.3-0.9-0.3-1.2,0l0,0l0,0c-0.9,0.8-1.5,2-1.5,3.2C16,38.3,23.6,41.5,33.8,41.5L33.8,41.5z M50.1,38.8L50.1,38.8L50.1,38.8
			c-0.2-0.2-0.4-0.2-0.6-0.2c-0.5,0-0.9,0.4-0.9,0.9c0,0,0,0,0,0c0,0.2,0.1,0.5,0.3,0.7l0,0c0.5,0.5,0.9,1.2,0.9,1.9
			c0,2.7-6.6,5.8-16,5.8s-16-3-16-5.8c0-0.8,0.3-1.5,0.9-2l0,0l0,0c0.2-0.2,0.2-0.4,0.2-0.6c0-0.5-0.4-0.9-0.9-0.9
			c-0.2,0-0.5,0.1-0.6,0.3l0,0c-0.9,0.8-1.5,2-1.6,3.2c0,4.3,7.7,7.6,17.9,7.6s17.9-3.3,17.9-7.6C51.6,40.8,51,39.6,50.1,38.8
			L50.1,38.8L50.1,38.8z"/>
	</g>
</g>
</svg>
